M48
; DRILL file {KiCad 9.0.4} date 2025-11-01T07:57:31+0100
; FORMAT={-:-/ absolute / metric / decimal}
; #@! TF.CreationDate,2025-11-01T07:57:31+01:00
; #@! TF.GenerationSoftware,Kicad,Pcbnew,9.0.4
; #@! TF.FileFunction,Plated,1,2,PTH
FMAT,2
METRIC
; #@! TA.AperFunction,Plated,PTH,ComponentDrill
T1C1.000
; #@! TA.AperFunction,Plated,PTH,ComponentDrill
T2C2.500
%
G90
G05
T1
X45.61Y-63.182
X45.61Y-65.722
X45.61Y-68.263
X45.61Y-70.802
X45.61Y-73.343
X45.61Y-75.882
X45.61Y-78.422
X45.61Y-80.962
X45.61Y-83.502
X45.61Y-86.042
X45.61Y-88.582
X45.61Y-91.123
X45.61Y-93.662
X45.61Y-96.203
X45.61Y-98.742
X45.61Y-101.282
X45.61Y-103.822
X45.61Y-106.362
X45.61Y-108.902
X45.61Y-111.442
X63.39Y-63.182
X63.39Y-65.722
X63.39Y-68.263
X63.39Y-70.802
X63.39Y-73.343
X63.39Y-75.882
X63.39Y-78.422
X63.39Y-80.962
X63.39Y-83.502
X63.39Y-86.042
X63.39Y-88.582
X63.39Y-91.123
X63.39Y-93.662
X63.39Y-96.203
X63.39Y-98.742
X63.39Y-101.282
X63.39Y-103.822
X63.39Y-106.362
X63.39Y-108.902
X63.39Y-111.442
T2
X47.0Y-146.0
X69.0Y-119.0
X139.0Y-124.0
X181.0Y-66.0
M30
