%TF.GenerationSoftware,KiCad,Pcbnew,9.0.4*%
%TF.CreationDate,2025-11-01T07:57:15+01:00*%
%TF.ProjectId,kbv3-right,6b627633-2d72-4696-9768-742e6b696361,rev?*%
%TF.SameCoordinates,Original*%
%TF.FileFunction,Soldermask,Top*%
%TF.FilePolarity,Negative*%
%FSLAX46Y46*%
G04 Gerber Fmt 4.6, Leading zero omitted, Abs format (unit mm)*
G04 Created by KiCad (PCBNEW 9.0.4) date 2025-11-01 07:57:15*
%MOMM*%
%LPD*%
G01*
G04 APERTURE LIST*
G04 APERTURE END LIST*
G36*
X78967003Y-153984557D02*
G01*
X79121111Y-154048391D01*
X79259805Y-154141063D01*
X79377755Y-154259013D01*
X79470427Y-154397707D01*
X79534261Y-154551815D01*
X79566803Y-154715415D01*
X79566803Y-154882221D01*
X79534261Y-155045821D01*
X79470427Y-155199929D01*
X79377755Y-155338623D01*
X79259805Y-155456573D01*
X79121111Y-155549245D01*
X78967003Y-155613079D01*
X78803403Y-155645621D01*
X78636597Y-155645621D01*
X78472997Y-155613079D01*
X78318889Y-155549245D01*
X78180195Y-155456573D01*
X78062245Y-155338623D01*
X77969573Y-155199929D01*
X77905739Y-155045821D01*
X77873197Y-154882221D01*
X77873197Y-154715415D01*
X77905739Y-154551815D01*
X77969573Y-154397707D01*
X78062245Y-154259013D01*
X78180195Y-154141063D01*
X78318889Y-154048391D01*
X78472997Y-153984557D01*
X78636597Y-153952015D01*
X78803403Y-153952015D01*
X78967003Y-153984557D01*
G37*
G36*
X77505463Y-150970411D02*
G01*
X77729320Y-151043147D01*
X77939043Y-151150006D01*
X78129467Y-151288357D01*
X78295904Y-151454794D01*
X78434255Y-151645218D01*
X78541114Y-151854941D01*
X78613850Y-152078798D01*
X78650671Y-152311277D01*
X78650671Y-152546655D01*
X78613850Y-152779134D01*
X78541114Y-153002991D01*
X78434255Y-153212714D01*
X78295904Y-153403138D01*
X78129467Y-153569575D01*
X77939043Y-153707926D01*
X77729320Y-153814785D01*
X77505463Y-153887521D01*
X77272984Y-153924342D01*
X77037606Y-153924342D01*
X76805127Y-153887521D01*
X76581270Y-153814785D01*
X76371547Y-153707926D01*
X76181123Y-153569575D01*
X76014686Y-153403138D01*
X75876335Y-153212714D01*
X75769476Y-153002991D01*
X75696740Y-152779134D01*
X75659919Y-152546655D01*
X75659919Y-152311277D01*
X75696740Y-152078798D01*
X75769476Y-151854941D01*
X75876335Y-151645218D01*
X76014686Y-151454794D01*
X76181123Y-151288357D01*
X76371547Y-151150006D01*
X76581270Y-151043147D01*
X76805127Y-150970411D01*
X77037606Y-150933590D01*
X77272984Y-150933590D01*
X77505463Y-150970411D01*
G37*
G36*
X81648991Y-148443821D02*
G01*
X81900918Y-148511325D01*
X82141879Y-148611134D01*
X82367751Y-148741542D01*
X82574670Y-148900316D01*
X82759093Y-149084739D01*
X82917867Y-149291658D01*
X83048275Y-149517530D01*
X83148084Y-149758491D01*
X83215588Y-150010418D01*
X83249631Y-150269002D01*
X83249631Y-150529816D01*
X83215588Y-150788400D01*
X83148084Y-151040327D01*
X83048275Y-151281288D01*
X82917867Y-151507160D01*
X82759093Y-151714079D01*
X82574670Y-151898502D01*
X82367751Y-152057276D01*
X82141879Y-152187684D01*
X81900918Y-152287493D01*
X81648991Y-152354997D01*
X81390407Y-152389040D01*
X81129593Y-152389040D01*
X80871009Y-152354997D01*
X80619082Y-152287493D01*
X80378121Y-152187684D01*
X80152249Y-152057276D01*
X79945330Y-151898502D01*
X79760907Y-151714079D01*
X79602133Y-151507160D01*
X79471725Y-151281288D01*
X79371916Y-151040327D01*
X79304412Y-150788400D01*
X79270369Y-150529816D01*
X79270369Y-150269002D01*
X79304412Y-150010418D01*
X79371916Y-149758491D01*
X79471725Y-149517530D01*
X79602133Y-149291658D01*
X79760907Y-149084739D01*
X79945330Y-148900316D01*
X80152249Y-148741542D01*
X80378121Y-148611134D01*
X80619082Y-148511325D01*
X80871009Y-148443821D01*
X81129593Y-148409778D01*
X81390407Y-148409778D01*
X81648991Y-148443821D01*
G37*
G36*
X47418766Y-143535322D02*
G01*
X47692089Y-143597707D01*
X47956709Y-143690301D01*
X48209297Y-143811941D01*
X48446678Y-143961098D01*
X48665866Y-144135895D01*
X48864105Y-144334134D01*
X49038902Y-144553322D01*
X49188059Y-144790703D01*
X49309699Y-145043291D01*
X49402293Y-145307911D01*
X49464678Y-145581234D01*
X49496067Y-145859824D01*
X49496067Y-146140176D01*
X49464678Y-146418766D01*
X49402293Y-146692089D01*
X49309699Y-146956709D01*
X49188059Y-147209297D01*
X49038902Y-147446678D01*
X48864105Y-147665866D01*
X48665866Y-147864105D01*
X48446678Y-148038902D01*
X48209297Y-148188059D01*
X47956709Y-148309699D01*
X47692089Y-148402293D01*
X47418766Y-148464678D01*
X47140176Y-148496067D01*
X46859824Y-148496067D01*
X46581234Y-148464678D01*
X46307911Y-148402293D01*
X46043291Y-148309699D01*
X45790703Y-148188059D01*
X45553322Y-148038902D01*
X45334134Y-147864105D01*
X45135895Y-147665866D01*
X44961098Y-147446678D01*
X44811941Y-147209297D01*
X44690301Y-146956709D01*
X44597707Y-146692089D01*
X44535322Y-146418766D01*
X44503933Y-146140176D01*
X44503933Y-145859824D01*
X44535322Y-145581234D01*
X44597707Y-145307911D01*
X44690301Y-145043291D01*
X44811941Y-144790703D01*
X44961098Y-144553322D01*
X45135895Y-144334134D01*
X45334134Y-144135895D01*
X45553322Y-143961098D01*
X45790703Y-143811941D01*
X46043291Y-143690301D01*
X46307911Y-143597707D01*
X46581234Y-143535322D01*
X46859824Y-143503933D01*
X47140176Y-143503933D01*
X47418766Y-143535322D01*
G37*
G36*
X78480759Y-144201149D02*
G01*
X78704616Y-144273885D01*
X78914339Y-144380744D01*
X79104763Y-144519095D01*
X79271200Y-144685532D01*
X79409551Y-144875956D01*
X79516410Y-145085679D01*
X79589146Y-145309536D01*
X79625967Y-145542015D01*
X79625967Y-145777393D01*
X79589146Y-146009872D01*
X79516410Y-146233729D01*
X79409551Y-146443452D01*
X79271200Y-146633876D01*
X79104763Y-146800313D01*
X78914339Y-146938664D01*
X78704616Y-147045523D01*
X78480759Y-147118259D01*
X78248280Y-147155080D01*
X78012902Y-147155080D01*
X77780423Y-147118259D01*
X77556566Y-147045523D01*
X77346843Y-146938664D01*
X77156419Y-146800313D01*
X76989982Y-146633876D01*
X76851631Y-146443452D01*
X76744772Y-146233729D01*
X76672036Y-146009872D01*
X76635215Y-145777393D01*
X76635215Y-145542015D01*
X76672036Y-145309536D01*
X76744772Y-145085679D01*
X76851631Y-144875956D01*
X76989982Y-144685532D01*
X77156419Y-144519095D01*
X77346843Y-144380744D01*
X77556566Y-144273885D01*
X77780423Y-144201149D01*
X78012902Y-144164328D01*
X78248280Y-144164328D01*
X78480759Y-144201149D01*
G37*
G36*
X84047003Y-145185739D02*
G01*
X84201111Y-145249573D01*
X84339805Y-145342245D01*
X84457755Y-145460195D01*
X84550427Y-145598889D01*
X84614261Y-145752997D01*
X84646803Y-145916597D01*
X84646803Y-146083403D01*
X84614261Y-146247003D01*
X84550427Y-146401111D01*
X84457755Y-146539805D01*
X84339805Y-146657755D01*
X84201111Y-146750427D01*
X84047003Y-146814261D01*
X83883403Y-146846803D01*
X83716597Y-146846803D01*
X83552997Y-146814261D01*
X83398889Y-146750427D01*
X83260195Y-146657755D01*
X83142245Y-146539805D01*
X83049573Y-146401111D01*
X82985739Y-146247003D01*
X82953197Y-146083403D01*
X82953197Y-145916597D01*
X82985739Y-145752997D01*
X83049573Y-145598889D01*
X83142245Y-145460195D01*
X83260195Y-145342245D01*
X83398889Y-145249573D01*
X83552997Y-145185739D01*
X83716597Y-145153197D01*
X83883403Y-145153197D01*
X84047003Y-145185739D01*
G37*
G36*
X92088185Y-136175739D02*
G01*
X92242293Y-136239573D01*
X92380987Y-136332245D01*
X92498937Y-136450195D01*
X92591609Y-136588889D01*
X92655443Y-136742997D01*
X92687985Y-136906597D01*
X92687985Y-137073403D01*
X92655443Y-137237003D01*
X92591609Y-137391111D01*
X92498937Y-137529805D01*
X92380987Y-137647755D01*
X92242293Y-137740427D01*
X92088185Y-137804261D01*
X91924585Y-137836803D01*
X91757779Y-137836803D01*
X91594179Y-137804261D01*
X91440071Y-137740427D01*
X91301377Y-137647755D01*
X91183427Y-137529805D01*
X91090755Y-137391111D01*
X91026921Y-137237003D01*
X90994379Y-137073403D01*
X90994379Y-136906597D01*
X91026921Y-136742997D01*
X91090755Y-136588889D01*
X91183427Y-136450195D01*
X91301377Y-136332245D01*
X91440071Y-136239573D01*
X91594179Y-136175739D01*
X91757779Y-136143197D01*
X91924585Y-136143197D01*
X92088185Y-136175739D01*
G37*
G36*
X96629582Y-132494412D02*
G01*
X96881509Y-132561916D01*
X97122470Y-132661725D01*
X97348342Y-132792133D01*
X97555261Y-132950907D01*
X97739684Y-133135330D01*
X97898458Y-133342249D01*
X98028866Y-133568121D01*
X98128675Y-133809082D01*
X98196179Y-134061009D01*
X98230222Y-134319593D01*
X98230222Y-134580407D01*
X98196179Y-134838991D01*
X98128675Y-135090918D01*
X98028866Y-135331879D01*
X97898458Y-135557751D01*
X97739684Y-135764670D01*
X97555261Y-135949093D01*
X97348342Y-136107867D01*
X97122470Y-136238275D01*
X96881509Y-136338084D01*
X96629582Y-136405588D01*
X96370998Y-136439631D01*
X96110184Y-136439631D01*
X95851600Y-136405588D01*
X95599673Y-136338084D01*
X95358712Y-136238275D01*
X95132840Y-136107867D01*
X94925921Y-135949093D01*
X94741498Y-135764670D01*
X94582724Y-135557751D01*
X94452316Y-135331879D01*
X94352507Y-135090918D01*
X94285003Y-134838991D01*
X94250960Y-134580407D01*
X94250960Y-134319593D01*
X94285003Y-134061009D01*
X94352507Y-133809082D01*
X94452316Y-133568121D01*
X94582724Y-133342249D01*
X94741498Y-133135330D01*
X94925921Y-132950907D01*
X95132840Y-132792133D01*
X95358712Y-132661725D01*
X95599673Y-132561916D01*
X95851600Y-132494412D01*
X96110184Y-132460369D01*
X96370998Y-132460369D01*
X96629582Y-132494412D01*
G37*
G36*
X92021202Y-132696740D02*
G01*
X92245059Y-132769476D01*
X92454782Y-132876335D01*
X92645206Y-133014686D01*
X92811643Y-133181123D01*
X92949994Y-133371547D01*
X93056853Y-133581270D01*
X93129589Y-133805127D01*
X93166410Y-134037606D01*
X93166410Y-134272984D01*
X93129589Y-134505463D01*
X93056853Y-134729320D01*
X92949994Y-134939043D01*
X92811643Y-135129467D01*
X92645206Y-135295904D01*
X92454782Y-135434255D01*
X92245059Y-135541114D01*
X92021202Y-135613850D01*
X91788723Y-135650671D01*
X91553345Y-135650671D01*
X91320866Y-135613850D01*
X91097009Y-135541114D01*
X90887286Y-135434255D01*
X90696862Y-135295904D01*
X90530425Y-135129467D01*
X90392074Y-134939043D01*
X90285215Y-134729320D01*
X90212479Y-134505463D01*
X90175658Y-134272984D01*
X90175658Y-134037606D01*
X90212479Y-133805127D01*
X90285215Y-133581270D01*
X90392074Y-133371547D01*
X90530425Y-133181123D01*
X90696862Y-133014686D01*
X90887286Y-132876335D01*
X91097009Y-132769476D01*
X91320866Y-132696740D01*
X91553345Y-132659919D01*
X91788723Y-132659919D01*
X92021202Y-132696740D01*
G37*
G36*
X100887003Y-131095739D02*
G01*
X101041111Y-131159573D01*
X101179805Y-131252245D01*
X101297755Y-131370195D01*
X101390427Y-131508889D01*
X101454261Y-131662997D01*
X101486803Y-131826597D01*
X101486803Y-131993403D01*
X101454261Y-132157003D01*
X101390427Y-132311111D01*
X101297755Y-132449805D01*
X101179805Y-132567755D01*
X101041111Y-132660427D01*
X100887003Y-132724261D01*
X100723403Y-132756803D01*
X100556597Y-132756803D01*
X100392997Y-132724261D01*
X100238889Y-132660427D01*
X100100195Y-132567755D01*
X99982245Y-132449805D01*
X99889573Y-132311111D01*
X99825739Y-132157003D01*
X99793197Y-131993403D01*
X99793197Y-131826597D01*
X99825739Y-131662997D01*
X99889573Y-131508889D01*
X99982245Y-131370195D01*
X100100195Y-131252245D01*
X100238889Y-131159573D01*
X100392997Y-131095739D01*
X100556597Y-131063197D01*
X100723403Y-131063197D01*
X100887003Y-131095739D01*
G37*
G36*
X117308991Y-127044412D02*
G01*
X117560918Y-127111916D01*
X117801879Y-127211725D01*
X118027751Y-127342133D01*
X118234670Y-127500907D01*
X118419093Y-127685330D01*
X118577867Y-127892249D01*
X118708275Y-128118121D01*
X118808084Y-128359082D01*
X118875588Y-128611009D01*
X118909631Y-128869593D01*
X118909631Y-129130407D01*
X118875588Y-129388991D01*
X118808084Y-129640918D01*
X118708275Y-129881879D01*
X118577867Y-130107751D01*
X118419093Y-130314670D01*
X118234670Y-130499093D01*
X118027751Y-130657867D01*
X117801879Y-130788275D01*
X117560918Y-130888084D01*
X117308991Y-130955588D01*
X117050407Y-130989631D01*
X116789593Y-130989631D01*
X116531009Y-130955588D01*
X116279082Y-130888084D01*
X116038121Y-130788275D01*
X115812249Y-130657867D01*
X115605330Y-130499093D01*
X115420907Y-130314670D01*
X115262133Y-130107751D01*
X115131725Y-129881879D01*
X115031916Y-129640918D01*
X114964412Y-129388991D01*
X114930369Y-129130407D01*
X114930369Y-128869593D01*
X114964412Y-128611009D01*
X115031916Y-128359082D01*
X115131725Y-128118121D01*
X115262133Y-127892249D01*
X115420907Y-127685330D01*
X115605330Y-127500907D01*
X115812249Y-127342133D01*
X116038121Y-127211725D01*
X116279082Y-127111916D01*
X116531009Y-127044412D01*
X116789593Y-127010369D01*
X117050407Y-127010369D01*
X117308991Y-127044412D01*
G37*
G36*
X96250464Y-127322036D02*
G01*
X96474321Y-127394772D01*
X96684044Y-127501631D01*
X96874468Y-127639982D01*
X97040905Y-127806419D01*
X97179256Y-127996843D01*
X97286115Y-128206566D01*
X97358851Y-128430423D01*
X97395672Y-128662902D01*
X97395672Y-128898280D01*
X97358851Y-129130759D01*
X97286115Y-129354616D01*
X97179256Y-129564339D01*
X97040905Y-129754763D01*
X96874468Y-129921200D01*
X96684044Y-130059551D01*
X96474321Y-130166410D01*
X96250464Y-130239146D01*
X96017985Y-130275967D01*
X95782607Y-130275967D01*
X95550128Y-130239146D01*
X95326271Y-130166410D01*
X95116548Y-130059551D01*
X94926124Y-129921200D01*
X94759687Y-129754763D01*
X94621336Y-129564339D01*
X94514477Y-129354616D01*
X94441741Y-129130759D01*
X94404920Y-128898280D01*
X94404920Y-128662902D01*
X94441741Y-128430423D01*
X94514477Y-128206566D01*
X94621336Y-127996843D01*
X94759687Y-127806419D01*
X94926124Y-127639982D01*
X95116548Y-127501631D01*
X95326271Y-127394772D01*
X95550128Y-127322036D01*
X95782607Y-127285215D01*
X96017985Y-127285215D01*
X96250464Y-127322036D01*
G37*
G36*
X112087003Y-128185739D02*
G01*
X112241111Y-128249573D01*
X112379805Y-128342245D01*
X112497755Y-128460195D01*
X112590427Y-128598889D01*
X112654261Y-128752997D01*
X112686803Y-128916597D01*
X112686803Y-129083403D01*
X112654261Y-129247003D01*
X112590427Y-129401111D01*
X112497755Y-129539805D01*
X112379805Y-129657755D01*
X112241111Y-129750427D01*
X112087003Y-129814261D01*
X111923403Y-129846803D01*
X111756597Y-129846803D01*
X111592997Y-129814261D01*
X111438889Y-129750427D01*
X111300195Y-129657755D01*
X111182245Y-129539805D01*
X111089573Y-129401111D01*
X111025739Y-129247003D01*
X110993197Y-129083403D01*
X110993197Y-128916597D01*
X111025739Y-128752997D01*
X111089573Y-128598889D01*
X111182245Y-128460195D01*
X111300195Y-128342245D01*
X111438889Y-128249573D01*
X111592997Y-128185739D01*
X111756597Y-128153197D01*
X111923403Y-128153197D01*
X112087003Y-128185739D01*
G37*
G36*
X122247003Y-128185739D02*
G01*
X122401111Y-128249573D01*
X122539805Y-128342245D01*
X122657755Y-128460195D01*
X122750427Y-128598889D01*
X122814261Y-128752997D01*
X122846803Y-128916597D01*
X122846803Y-129083403D01*
X122814261Y-129247003D01*
X122750427Y-129401111D01*
X122657755Y-129539805D01*
X122539805Y-129657755D01*
X122401111Y-129750427D01*
X122247003Y-129814261D01*
X122083403Y-129846803D01*
X121916597Y-129846803D01*
X121752997Y-129814261D01*
X121598889Y-129750427D01*
X121460195Y-129657755D01*
X121342245Y-129539805D01*
X121249573Y-129401111D01*
X121185739Y-129247003D01*
X121153197Y-129083403D01*
X121153197Y-128916597D01*
X121185739Y-128752997D01*
X121249573Y-128598889D01*
X121342245Y-128460195D01*
X121460195Y-128342245D01*
X121598889Y-128249573D01*
X121752997Y-128185739D01*
X121916597Y-128153197D01*
X122083403Y-128153197D01*
X122247003Y-128185739D01*
G37*
G36*
X113460168Y-125001445D02*
G01*
X113684025Y-125074181D01*
X113893748Y-125181040D01*
X114084172Y-125319391D01*
X114250609Y-125485828D01*
X114388960Y-125676252D01*
X114495819Y-125885975D01*
X114568555Y-126109832D01*
X114605376Y-126342311D01*
X114605376Y-126577689D01*
X114568555Y-126810168D01*
X114495819Y-127034025D01*
X114388960Y-127243748D01*
X114250609Y-127434172D01*
X114084172Y-127600609D01*
X113893748Y-127738960D01*
X113684025Y-127845819D01*
X113460168Y-127918555D01*
X113227689Y-127955376D01*
X112992311Y-127955376D01*
X112759832Y-127918555D01*
X112535975Y-127845819D01*
X112326252Y-127738960D01*
X112135828Y-127600609D01*
X111969391Y-127434172D01*
X111831040Y-127243748D01*
X111724181Y-127034025D01*
X111651445Y-126810168D01*
X111614624Y-126577689D01*
X111614624Y-126342311D01*
X111651445Y-126109832D01*
X111724181Y-125885975D01*
X111831040Y-125676252D01*
X111969391Y-125485828D01*
X112135828Y-125319391D01*
X112326252Y-125181040D01*
X112535975Y-125074181D01*
X112759832Y-125001445D01*
X112992311Y-124964624D01*
X113227689Y-124964624D01*
X113460168Y-125001445D01*
G37*
G36*
X139418766Y-121535322D02*
G01*
X139692089Y-121597707D01*
X139956709Y-121690301D01*
X140209297Y-121811941D01*
X140446678Y-121961098D01*
X140665866Y-122135895D01*
X140864105Y-122334134D01*
X141038902Y-122553322D01*
X141188059Y-122790703D01*
X141309699Y-123043291D01*
X141402293Y-123307911D01*
X141464678Y-123581234D01*
X141496067Y-123859824D01*
X141496067Y-124140176D01*
X141464678Y-124418766D01*
X141402293Y-124692089D01*
X141309699Y-124956709D01*
X141188059Y-125209297D01*
X141038902Y-125446678D01*
X140864105Y-125665866D01*
X140665866Y-125864105D01*
X140446678Y-126038902D01*
X140209297Y-126188059D01*
X139956709Y-126309699D01*
X139692089Y-126402293D01*
X139418766Y-126464678D01*
X139140176Y-126496067D01*
X138859824Y-126496067D01*
X138581234Y-126464678D01*
X138307911Y-126402293D01*
X138043291Y-126309699D01*
X137790703Y-126188059D01*
X137553322Y-126038902D01*
X137334134Y-125864105D01*
X137135895Y-125665866D01*
X136961098Y-125446678D01*
X136811941Y-125209297D01*
X136690301Y-124956709D01*
X136597707Y-124692089D01*
X136535322Y-124418766D01*
X136503933Y-124140176D01*
X136503933Y-123859824D01*
X136535322Y-123581234D01*
X136597707Y-123307911D01*
X136690301Y-123043291D01*
X136811941Y-122790703D01*
X136961098Y-122553322D01*
X137135895Y-122334134D01*
X137334134Y-122135895D01*
X137553322Y-121961098D01*
X137790703Y-121811941D01*
X138043291Y-121690301D01*
X138307911Y-121597707D01*
X138581234Y-121535322D01*
X138859824Y-121503933D01*
X139140176Y-121503933D01*
X139418766Y-121535322D01*
G37*
G36*
X119810168Y-122461445D02*
G01*
X120034025Y-122534181D01*
X120243748Y-122641040D01*
X120434172Y-122779391D01*
X120600609Y-122945828D01*
X120738960Y-123136252D01*
X120845819Y-123345975D01*
X120918555Y-123569832D01*
X120955376Y-123802311D01*
X120955376Y-124037689D01*
X120918555Y-124270168D01*
X120845819Y-124494025D01*
X120738960Y-124703748D01*
X120600609Y-124894172D01*
X120434172Y-125060609D01*
X120243748Y-125198960D01*
X120034025Y-125305819D01*
X119810168Y-125378555D01*
X119577689Y-125415376D01*
X119342311Y-125415376D01*
X119109832Y-125378555D01*
X118885975Y-125305819D01*
X118676252Y-125198960D01*
X118485828Y-125060609D01*
X118319391Y-124894172D01*
X118181040Y-124703748D01*
X118074181Y-124494025D01*
X118001445Y-124270168D01*
X117964624Y-124037689D01*
X117964624Y-123802311D01*
X118001445Y-123569832D01*
X118074181Y-123345975D01*
X118181040Y-123136252D01*
X118319391Y-122945828D01*
X118485828Y-122779391D01*
X118676252Y-122641040D01*
X118885975Y-122534181D01*
X119109832Y-122461445D01*
X119342311Y-122424624D01*
X119577689Y-122424624D01*
X119810168Y-122461445D01*
G37*
G36*
X69418766Y-116535322D02*
G01*
X69692089Y-116597707D01*
X69956709Y-116690301D01*
X70209297Y-116811941D01*
X70446678Y-116961098D01*
X70665866Y-117135895D01*
X70864105Y-117334134D01*
X71038902Y-117553322D01*
X71188059Y-117790703D01*
X71309699Y-118043291D01*
X71402293Y-118307911D01*
X71464678Y-118581234D01*
X71496067Y-118859824D01*
X71496067Y-119140176D01*
X71464678Y-119418766D01*
X71402293Y-119692089D01*
X71309699Y-119956709D01*
X71188059Y-120209297D01*
X71038902Y-120446678D01*
X70864105Y-120665866D01*
X70665866Y-120864105D01*
X70446678Y-121038902D01*
X70209297Y-121188059D01*
X69956709Y-121309699D01*
X69692089Y-121402293D01*
X69418766Y-121464678D01*
X69140176Y-121496067D01*
X68859824Y-121496067D01*
X68581234Y-121464678D01*
X68307911Y-121402293D01*
X68043291Y-121309699D01*
X67790703Y-121188059D01*
X67553322Y-121038902D01*
X67334134Y-120864105D01*
X67135895Y-120665866D01*
X66961098Y-120446678D01*
X66811941Y-120209297D01*
X66690301Y-119956709D01*
X66597707Y-119692089D01*
X66535322Y-119418766D01*
X66503933Y-119140176D01*
X66503933Y-118859824D01*
X66535322Y-118581234D01*
X66597707Y-118307911D01*
X66690301Y-118043291D01*
X66811941Y-117790703D01*
X66961098Y-117553322D01*
X67135895Y-117334134D01*
X67334134Y-117135895D01*
X67553322Y-116961098D01*
X67790703Y-116811941D01*
X68043291Y-116690301D01*
X68307911Y-116597707D01*
X68581234Y-116535322D01*
X68859824Y-116503933D01*
X69140176Y-116503933D01*
X69418766Y-116535322D01*
G37*
G36*
X84308991Y-115044412D02*
G01*
X84560918Y-115111916D01*
X84801879Y-115211725D01*
X85027751Y-115342133D01*
X85234670Y-115500907D01*
X85419093Y-115685330D01*
X85577867Y-115892249D01*
X85708275Y-116118121D01*
X85808084Y-116359082D01*
X85875588Y-116611009D01*
X85909631Y-116869593D01*
X85909631Y-117130407D01*
X85875588Y-117388991D01*
X85808084Y-117640918D01*
X85708275Y-117881879D01*
X85577867Y-118107751D01*
X85419093Y-118314670D01*
X85234670Y-118499093D01*
X85027751Y-118657867D01*
X84801879Y-118788275D01*
X84560918Y-118888084D01*
X84308991Y-118955588D01*
X84050407Y-118989631D01*
X83789593Y-118989631D01*
X83531009Y-118955588D01*
X83279082Y-118888084D01*
X83038121Y-118788275D01*
X82812249Y-118657867D01*
X82605330Y-118499093D01*
X82420907Y-118314670D01*
X82262133Y-118107751D01*
X82131725Y-117881879D01*
X82031916Y-117640918D01*
X81964412Y-117388991D01*
X81930369Y-117130407D01*
X81930369Y-116869593D01*
X81964412Y-116611009D01*
X82031916Y-116359082D01*
X82131725Y-116118121D01*
X82262133Y-115892249D01*
X82420907Y-115685330D01*
X82605330Y-115500907D01*
X82812249Y-115342133D01*
X83038121Y-115211725D01*
X83279082Y-115111916D01*
X83531009Y-115044412D01*
X83789593Y-115010369D01*
X84050407Y-115010369D01*
X84308991Y-115044412D01*
G37*
G36*
X156308991Y-115044412D02*
G01*
X156560918Y-115111916D01*
X156801879Y-115211725D01*
X157027751Y-115342133D01*
X157234670Y-115500907D01*
X157419093Y-115685330D01*
X157577867Y-115892249D01*
X157708275Y-116118121D01*
X157808084Y-116359082D01*
X157875588Y-116611009D01*
X157909631Y-116869593D01*
X157909631Y-117130407D01*
X157875588Y-117388991D01*
X157808084Y-117640918D01*
X157708275Y-117881879D01*
X157577867Y-118107751D01*
X157419093Y-118314670D01*
X157234670Y-118499093D01*
X157027751Y-118657867D01*
X156801879Y-118788275D01*
X156560918Y-118888084D01*
X156308991Y-118955588D01*
X156050407Y-118989631D01*
X155789593Y-118989631D01*
X155531009Y-118955588D01*
X155279082Y-118888084D01*
X155038121Y-118788275D01*
X154812249Y-118657867D01*
X154605330Y-118499093D01*
X154420907Y-118314670D01*
X154262133Y-118107751D01*
X154131725Y-117881879D01*
X154031916Y-117640918D01*
X153964412Y-117388991D01*
X153930369Y-117130407D01*
X153930369Y-116869593D01*
X153964412Y-116611009D01*
X154031916Y-116359082D01*
X154131725Y-116118121D01*
X154262133Y-115892249D01*
X154420907Y-115685330D01*
X154605330Y-115500907D01*
X154812249Y-115342133D01*
X155038121Y-115211725D01*
X155279082Y-115111916D01*
X155531009Y-115044412D01*
X155789593Y-115010369D01*
X156050407Y-115010369D01*
X156308991Y-115044412D01*
G37*
G36*
X174308991Y-115044412D02*
G01*
X174560918Y-115111916D01*
X174801879Y-115211725D01*
X175027751Y-115342133D01*
X175234670Y-115500907D01*
X175419093Y-115685330D01*
X175577867Y-115892249D01*
X175708275Y-116118121D01*
X175808084Y-116359082D01*
X175875588Y-116611009D01*
X175909631Y-116869593D01*
X175909631Y-117130407D01*
X175875588Y-117388991D01*
X175808084Y-117640918D01*
X175708275Y-117881879D01*
X175577867Y-118107751D01*
X175419093Y-118314670D01*
X175234670Y-118499093D01*
X175027751Y-118657867D01*
X174801879Y-118788275D01*
X174560918Y-118888084D01*
X174308991Y-118955588D01*
X174050407Y-118989631D01*
X173789593Y-118989631D01*
X173531009Y-118955588D01*
X173279082Y-118888084D01*
X173038121Y-118788275D01*
X172812249Y-118657867D01*
X172605330Y-118499093D01*
X172420907Y-118314670D01*
X172262133Y-118107751D01*
X172131725Y-117881879D01*
X172031916Y-117640918D01*
X171964412Y-117388991D01*
X171930369Y-117130407D01*
X171930369Y-116869593D01*
X171964412Y-116611009D01*
X172031916Y-116359082D01*
X172131725Y-116118121D01*
X172262133Y-115892249D01*
X172420907Y-115685330D01*
X172605330Y-115500907D01*
X172812249Y-115342133D01*
X173038121Y-115211725D01*
X173279082Y-115111916D01*
X173531009Y-115044412D01*
X173789593Y-115010369D01*
X174050407Y-115010369D01*
X174308991Y-115044412D01*
G37*
G36*
X79087003Y-116185739D02*
G01*
X79241111Y-116249573D01*
X79379805Y-116342245D01*
X79497755Y-116460195D01*
X79590427Y-116598889D01*
X79654261Y-116752997D01*
X79686803Y-116916597D01*
X79686803Y-117083403D01*
X79654261Y-117247003D01*
X79590427Y-117401111D01*
X79497755Y-117539805D01*
X79379805Y-117657755D01*
X79241111Y-117750427D01*
X79087003Y-117814261D01*
X78923403Y-117846803D01*
X78756597Y-117846803D01*
X78592997Y-117814261D01*
X78438889Y-117750427D01*
X78300195Y-117657755D01*
X78182245Y-117539805D01*
X78089573Y-117401111D01*
X78025739Y-117247003D01*
X77993197Y-117083403D01*
X77993197Y-116916597D01*
X78025739Y-116752997D01*
X78089573Y-116598889D01*
X78182245Y-116460195D01*
X78300195Y-116342245D01*
X78438889Y-116249573D01*
X78592997Y-116185739D01*
X78756597Y-116153197D01*
X78923403Y-116153197D01*
X79087003Y-116185739D01*
G37*
G36*
X89247003Y-116185739D02*
G01*
X89401111Y-116249573D01*
X89539805Y-116342245D01*
X89657755Y-116460195D01*
X89750427Y-116598889D01*
X89814261Y-116752997D01*
X89846803Y-116916597D01*
X89846803Y-117083403D01*
X89814261Y-117247003D01*
X89750427Y-117401111D01*
X89657755Y-117539805D01*
X89539805Y-117657755D01*
X89401111Y-117750427D01*
X89247003Y-117814261D01*
X89083403Y-117846803D01*
X88916597Y-117846803D01*
X88752997Y-117814261D01*
X88598889Y-117750427D01*
X88460195Y-117657755D01*
X88342245Y-117539805D01*
X88249573Y-117401111D01*
X88185739Y-117247003D01*
X88153197Y-117083403D01*
X88153197Y-116916597D01*
X88185739Y-116752997D01*
X88249573Y-116598889D01*
X88342245Y-116460195D01*
X88460195Y-116342245D01*
X88598889Y-116249573D01*
X88752997Y-116185739D01*
X88916597Y-116153197D01*
X89083403Y-116153197D01*
X89247003Y-116185739D01*
G37*
G36*
X151087003Y-116185739D02*
G01*
X151241111Y-116249573D01*
X151379805Y-116342245D01*
X151497755Y-116460195D01*
X151590427Y-116598889D01*
X151654261Y-116752997D01*
X151686803Y-116916597D01*
X151686803Y-117083403D01*
X151654261Y-117247003D01*
X151590427Y-117401111D01*
X151497755Y-117539805D01*
X151379805Y-117657755D01*
X151241111Y-117750427D01*
X151087003Y-117814261D01*
X150923403Y-117846803D01*
X150756597Y-117846803D01*
X150592997Y-117814261D01*
X150438889Y-117750427D01*
X150300195Y-117657755D01*
X150182245Y-117539805D01*
X150089573Y-117401111D01*
X150025739Y-117247003D01*
X149993197Y-117083403D01*
X149993197Y-116916597D01*
X150025739Y-116752997D01*
X150089573Y-116598889D01*
X150182245Y-116460195D01*
X150300195Y-116342245D01*
X150438889Y-116249573D01*
X150592997Y-116185739D01*
X150756597Y-116153197D01*
X150923403Y-116153197D01*
X151087003Y-116185739D01*
G37*
G36*
X161247003Y-116185739D02*
G01*
X161401111Y-116249573D01*
X161539805Y-116342245D01*
X161657755Y-116460195D01*
X161750427Y-116598889D01*
X161814261Y-116752997D01*
X161846803Y-116916597D01*
X161846803Y-117083403D01*
X161814261Y-117247003D01*
X161750427Y-117401111D01*
X161657755Y-117539805D01*
X161539805Y-117657755D01*
X161401111Y-117750427D01*
X161247003Y-117814261D01*
X161083403Y-117846803D01*
X160916597Y-117846803D01*
X160752997Y-117814261D01*
X160598889Y-117750427D01*
X160460195Y-117657755D01*
X160342245Y-117539805D01*
X160249573Y-117401111D01*
X160185739Y-117247003D01*
X160153197Y-117083403D01*
X160153197Y-116916597D01*
X160185739Y-116752997D01*
X160249573Y-116598889D01*
X160342245Y-116460195D01*
X160460195Y-116342245D01*
X160598889Y-116249573D01*
X160752997Y-116185739D01*
X160916597Y-116153197D01*
X161083403Y-116153197D01*
X161247003Y-116185739D01*
G37*
G36*
X169087003Y-116185739D02*
G01*
X169241111Y-116249573D01*
X169379805Y-116342245D01*
X169497755Y-116460195D01*
X169590427Y-116598889D01*
X169654261Y-116752997D01*
X169686803Y-116916597D01*
X169686803Y-117083403D01*
X169654261Y-117247003D01*
X169590427Y-117401111D01*
X169497755Y-117539805D01*
X169379805Y-117657755D01*
X169241111Y-117750427D01*
X169087003Y-117814261D01*
X168923403Y-117846803D01*
X168756597Y-117846803D01*
X168592997Y-117814261D01*
X168438889Y-117750427D01*
X168300195Y-117657755D01*
X168182245Y-117539805D01*
X168089573Y-117401111D01*
X168025739Y-117247003D01*
X167993197Y-117083403D01*
X167993197Y-116916597D01*
X168025739Y-116752997D01*
X168089573Y-116598889D01*
X168182245Y-116460195D01*
X168300195Y-116342245D01*
X168438889Y-116249573D01*
X168592997Y-116185739D01*
X168756597Y-116153197D01*
X168923403Y-116153197D01*
X169087003Y-116185739D01*
G37*
G36*
X179247003Y-116185739D02*
G01*
X179401111Y-116249573D01*
X179539805Y-116342245D01*
X179657755Y-116460195D01*
X179750427Y-116598889D01*
X179814261Y-116752997D01*
X179846803Y-116916597D01*
X179846803Y-117083403D01*
X179814261Y-117247003D01*
X179750427Y-117401111D01*
X179657755Y-117539805D01*
X179539805Y-117657755D01*
X179401111Y-117750427D01*
X179247003Y-117814261D01*
X179083403Y-117846803D01*
X178916597Y-117846803D01*
X178752997Y-117814261D01*
X178598889Y-117750427D01*
X178460195Y-117657755D01*
X178342245Y-117539805D01*
X178249573Y-117401111D01*
X178185739Y-117247003D01*
X178153197Y-117083403D01*
X178153197Y-116916597D01*
X178185739Y-116752997D01*
X178249573Y-116598889D01*
X178342245Y-116460195D01*
X178460195Y-116342245D01*
X178598889Y-116249573D01*
X178752997Y-116185739D01*
X178916597Y-116153197D01*
X179083403Y-116153197D01*
X179247003Y-116185739D01*
G37*
G36*
X80460168Y-113001445D02*
G01*
X80684025Y-113074181D01*
X80893748Y-113181040D01*
X81084172Y-113319391D01*
X81250609Y-113485828D01*
X81388960Y-113676252D01*
X81495819Y-113885975D01*
X81568555Y-114109832D01*
X81605376Y-114342311D01*
X81605376Y-114577689D01*
X81568555Y-114810168D01*
X81495819Y-115034025D01*
X81388960Y-115243748D01*
X81250609Y-115434172D01*
X81084172Y-115600609D01*
X80893748Y-115738960D01*
X80684025Y-115845819D01*
X80460168Y-115918555D01*
X80227689Y-115955376D01*
X79992311Y-115955376D01*
X79759832Y-115918555D01*
X79535975Y-115845819D01*
X79326252Y-115738960D01*
X79135828Y-115600609D01*
X78969391Y-115434172D01*
X78831040Y-115243748D01*
X78724181Y-115034025D01*
X78651445Y-114810168D01*
X78614624Y-114577689D01*
X78614624Y-114342311D01*
X78651445Y-114109832D01*
X78724181Y-113885975D01*
X78831040Y-113676252D01*
X78969391Y-113485828D01*
X79135828Y-113319391D01*
X79326252Y-113181040D01*
X79535975Y-113074181D01*
X79759832Y-113001445D01*
X79992311Y-112964624D01*
X80227689Y-112964624D01*
X80460168Y-113001445D01*
G37*
G36*
X152460168Y-113001445D02*
G01*
X152684025Y-113074181D01*
X152893748Y-113181040D01*
X153084172Y-113319391D01*
X153250609Y-113485828D01*
X153388960Y-113676252D01*
X153495819Y-113885975D01*
X153568555Y-114109832D01*
X153605376Y-114342311D01*
X153605376Y-114577689D01*
X153568555Y-114810168D01*
X153495819Y-115034025D01*
X153388960Y-115243748D01*
X153250609Y-115434172D01*
X153084172Y-115600609D01*
X152893748Y-115738960D01*
X152684025Y-115845819D01*
X152460168Y-115918555D01*
X152227689Y-115955376D01*
X151992311Y-115955376D01*
X151759832Y-115918555D01*
X151535975Y-115845819D01*
X151326252Y-115738960D01*
X151135828Y-115600609D01*
X150969391Y-115434172D01*
X150831040Y-115243748D01*
X150724181Y-115034025D01*
X150651445Y-114810168D01*
X150614624Y-114577689D01*
X150614624Y-114342311D01*
X150651445Y-114109832D01*
X150724181Y-113885975D01*
X150831040Y-113676252D01*
X150969391Y-113485828D01*
X151135828Y-113319391D01*
X151326252Y-113181040D01*
X151535975Y-113074181D01*
X151759832Y-113001445D01*
X151992311Y-112964624D01*
X152227689Y-112964624D01*
X152460168Y-113001445D01*
G37*
G36*
X170460168Y-113001445D02*
G01*
X170684025Y-113074181D01*
X170893748Y-113181040D01*
X171084172Y-113319391D01*
X171250609Y-113485828D01*
X171388960Y-113676252D01*
X171495819Y-113885975D01*
X171568555Y-114109832D01*
X171605376Y-114342311D01*
X171605376Y-114577689D01*
X171568555Y-114810168D01*
X171495819Y-115034025D01*
X171388960Y-115243748D01*
X171250609Y-115434172D01*
X171084172Y-115600609D01*
X170893748Y-115738960D01*
X170684025Y-115845819D01*
X170460168Y-115918555D01*
X170227689Y-115955376D01*
X169992311Y-115955376D01*
X169759832Y-115918555D01*
X169535975Y-115845819D01*
X169326252Y-115738960D01*
X169135828Y-115600609D01*
X168969391Y-115434172D01*
X168831040Y-115243748D01*
X168724181Y-115034025D01*
X168651445Y-114810168D01*
X168614624Y-114577689D01*
X168614624Y-114342311D01*
X168651445Y-114109832D01*
X168724181Y-113885975D01*
X168831040Y-113676252D01*
X168969391Y-113485828D01*
X169135828Y-113319391D01*
X169326252Y-113181040D01*
X169535975Y-113074181D01*
X169759832Y-113001445D01*
X169992311Y-112964624D01*
X170227689Y-112964624D01*
X170460168Y-113001445D01*
G37*
G36*
X86810168Y-110461445D02*
G01*
X87034025Y-110534181D01*
X87243748Y-110641040D01*
X87434172Y-110779391D01*
X87600609Y-110945828D01*
X87738960Y-111136252D01*
X87845819Y-111345975D01*
X87918555Y-111569832D01*
X87955376Y-111802311D01*
X87955376Y-112037689D01*
X87918555Y-112270168D01*
X87845819Y-112494025D01*
X87738960Y-112703748D01*
X87600609Y-112894172D01*
X87434172Y-113060609D01*
X87243748Y-113198960D01*
X87034025Y-113305819D01*
X86810168Y-113378555D01*
X86577689Y-113415376D01*
X86342311Y-113415376D01*
X86109832Y-113378555D01*
X85885975Y-113305819D01*
X85676252Y-113198960D01*
X85485828Y-113060609D01*
X85319391Y-112894172D01*
X85181040Y-112703748D01*
X85074181Y-112494025D01*
X85001445Y-112270168D01*
X84964624Y-112037689D01*
X84964624Y-111802311D01*
X85001445Y-111569832D01*
X85074181Y-111345975D01*
X85181040Y-111136252D01*
X85319391Y-110945828D01*
X85485828Y-110779391D01*
X85676252Y-110641040D01*
X85885975Y-110534181D01*
X86109832Y-110461445D01*
X86342311Y-110424624D01*
X86577689Y-110424624D01*
X86810168Y-110461445D01*
G37*
G36*
X158810168Y-110461445D02*
G01*
X159034025Y-110534181D01*
X159243748Y-110641040D01*
X159434172Y-110779391D01*
X159600609Y-110945828D01*
X159738960Y-111136252D01*
X159845819Y-111345975D01*
X159918555Y-111569832D01*
X159955376Y-111802311D01*
X159955376Y-112037689D01*
X159918555Y-112270168D01*
X159845819Y-112494025D01*
X159738960Y-112703748D01*
X159600609Y-112894172D01*
X159434172Y-113060609D01*
X159243748Y-113198960D01*
X159034025Y-113305819D01*
X158810168Y-113378555D01*
X158577689Y-113415376D01*
X158342311Y-113415376D01*
X158109832Y-113378555D01*
X157885975Y-113305819D01*
X157676252Y-113198960D01*
X157485828Y-113060609D01*
X157319391Y-112894172D01*
X157181040Y-112703748D01*
X157074181Y-112494025D01*
X157001445Y-112270168D01*
X156964624Y-112037689D01*
X156964624Y-111802311D01*
X157001445Y-111569832D01*
X157074181Y-111345975D01*
X157181040Y-111136252D01*
X157319391Y-110945828D01*
X157485828Y-110779391D01*
X157676252Y-110641040D01*
X157885975Y-110534181D01*
X158109832Y-110461445D01*
X158342311Y-110424624D01*
X158577689Y-110424624D01*
X158810168Y-110461445D01*
G37*
G36*
X176810168Y-110461445D02*
G01*
X177034025Y-110534181D01*
X177243748Y-110641040D01*
X177434172Y-110779391D01*
X177600609Y-110945828D01*
X177738960Y-111136252D01*
X177845819Y-111345975D01*
X177918555Y-111569832D01*
X177955376Y-111802311D01*
X177955376Y-112037689D01*
X177918555Y-112270168D01*
X177845819Y-112494025D01*
X177738960Y-112703748D01*
X177600609Y-112894172D01*
X177434172Y-113060609D01*
X177243748Y-113198960D01*
X177034025Y-113305819D01*
X176810168Y-113378555D01*
X176577689Y-113415376D01*
X176342311Y-113415376D01*
X176109832Y-113378555D01*
X175885975Y-113305819D01*
X175676252Y-113198960D01*
X175485828Y-113060609D01*
X175319391Y-112894172D01*
X175181040Y-112703748D01*
X175074181Y-112494025D01*
X175001445Y-112270168D01*
X174964624Y-112037689D01*
X174964624Y-111802311D01*
X175001445Y-111569832D01*
X175074181Y-111345975D01*
X175181040Y-111136252D01*
X175319391Y-110945828D01*
X175485828Y-110779391D01*
X175676252Y-110641040D01*
X175885975Y-110534181D01*
X176109832Y-110461445D01*
X176342311Y-110424624D01*
X176577689Y-110424624D01*
X176810168Y-110461445D01*
G37*
G36*
X102308991Y-109044412D02*
G01*
X102560918Y-109111916D01*
X102801879Y-109211725D01*
X103027751Y-109342133D01*
X103234670Y-109500907D01*
X103419093Y-109685330D01*
X103577867Y-109892249D01*
X103708275Y-110118121D01*
X103808084Y-110359082D01*
X103875588Y-110611009D01*
X103909631Y-110869593D01*
X103909631Y-111130407D01*
X103875588Y-111388991D01*
X103808084Y-111640918D01*
X103708275Y-111881879D01*
X103577867Y-112107751D01*
X103419093Y-112314670D01*
X103234670Y-112499093D01*
X103027751Y-112657867D01*
X102801879Y-112788275D01*
X102560918Y-112888084D01*
X102308991Y-112955588D01*
X102050407Y-112989631D01*
X101789593Y-112989631D01*
X101531009Y-112955588D01*
X101279082Y-112888084D01*
X101038121Y-112788275D01*
X100812249Y-112657867D01*
X100605330Y-112499093D01*
X100420907Y-112314670D01*
X100262133Y-112107751D01*
X100131725Y-111881879D01*
X100031916Y-111640918D01*
X99964412Y-111388991D01*
X99930369Y-111130407D01*
X99930369Y-110869593D01*
X99964412Y-110611009D01*
X100031916Y-110359082D01*
X100131725Y-110118121D01*
X100262133Y-109892249D01*
X100420907Y-109685330D01*
X100605330Y-109500907D01*
X100812249Y-109342133D01*
X101038121Y-109211725D01*
X101279082Y-109111916D01*
X101531009Y-109044412D01*
X101789593Y-109010369D01*
X102050407Y-109010369D01*
X102308991Y-109044412D01*
G37*
G36*
X138308991Y-109044412D02*
G01*
X138560918Y-109111916D01*
X138801879Y-109211725D01*
X139027751Y-109342133D01*
X139234670Y-109500907D01*
X139419093Y-109685330D01*
X139577867Y-109892249D01*
X139708275Y-110118121D01*
X139808084Y-110359082D01*
X139875588Y-110611009D01*
X139909631Y-110869593D01*
X139909631Y-111130407D01*
X139875588Y-111388991D01*
X139808084Y-111640918D01*
X139708275Y-111881879D01*
X139577867Y-112107751D01*
X139419093Y-112314670D01*
X139234670Y-112499093D01*
X139027751Y-112657867D01*
X138801879Y-112788275D01*
X138560918Y-112888084D01*
X138308991Y-112955588D01*
X138050407Y-112989631D01*
X137789593Y-112989631D01*
X137531009Y-112955588D01*
X137279082Y-112888084D01*
X137038121Y-112788275D01*
X136812249Y-112657867D01*
X136605330Y-112499093D01*
X136420907Y-112314670D01*
X136262133Y-112107751D01*
X136131725Y-111881879D01*
X136031916Y-111640918D01*
X135964412Y-111388991D01*
X135930369Y-111130407D01*
X135930369Y-110869593D01*
X135964412Y-110611009D01*
X136031916Y-110359082D01*
X136131725Y-110118121D01*
X136262133Y-109892249D01*
X136420907Y-109685330D01*
X136605330Y-109500907D01*
X136812249Y-109342133D01*
X137038121Y-109211725D01*
X137279082Y-109111916D01*
X137531009Y-109044412D01*
X137789593Y-109010369D01*
X138050407Y-109010369D01*
X138308991Y-109044412D01*
G37*
G36*
X45842228Y-110676948D02*
G01*
X45987117Y-110736963D01*
X46117515Y-110824092D01*
X46228408Y-110934985D01*
X46315537Y-111065383D01*
X46375552Y-111210272D01*
X46406148Y-111364086D01*
X46406148Y-111520914D01*
X46375552Y-111674728D01*
X46315537Y-111819617D01*
X46228408Y-111950015D01*
X46117515Y-112060908D01*
X45987117Y-112148037D01*
X45842228Y-112208052D01*
X45688414Y-112238648D01*
X45531586Y-112238648D01*
X45377772Y-112208052D01*
X45232883Y-112148037D01*
X45102485Y-112060908D01*
X44991592Y-111950015D01*
X44904463Y-111819617D01*
X44844448Y-111674728D01*
X44813852Y-111520914D01*
X44813852Y-111364086D01*
X44844448Y-111210272D01*
X44904463Y-111065383D01*
X44991592Y-110934985D01*
X45102485Y-110824092D01*
X45232883Y-110736963D01*
X45377772Y-110676948D01*
X45531586Y-110646352D01*
X45688414Y-110646352D01*
X45842228Y-110676948D01*
G37*
G36*
X63622228Y-110676948D02*
G01*
X63767117Y-110736963D01*
X63897515Y-110824092D01*
X64008408Y-110934985D01*
X64095537Y-111065383D01*
X64155552Y-111210272D01*
X64186148Y-111364086D01*
X64186148Y-111520914D01*
X64155552Y-111674728D01*
X64095537Y-111819617D01*
X64008408Y-111950015D01*
X63897515Y-112060908D01*
X63767117Y-112148037D01*
X63622228Y-112208052D01*
X63468414Y-112238648D01*
X63311586Y-112238648D01*
X63157772Y-112208052D01*
X63012883Y-112148037D01*
X62882485Y-112060908D01*
X62771592Y-111950015D01*
X62684463Y-111819617D01*
X62624448Y-111674728D01*
X62593852Y-111520914D01*
X62593852Y-111364086D01*
X62624448Y-111210272D01*
X62684463Y-111065383D01*
X62771592Y-110934985D01*
X62882485Y-110824092D01*
X63012883Y-110736963D01*
X63157772Y-110676948D01*
X63311586Y-110646352D01*
X63468414Y-110646352D01*
X63622228Y-110676948D01*
G37*
G36*
X97087003Y-110185739D02*
G01*
X97241111Y-110249573D01*
X97379805Y-110342245D01*
X97497755Y-110460195D01*
X97590427Y-110598889D01*
X97654261Y-110752997D01*
X97686803Y-110916597D01*
X97686803Y-111083403D01*
X97654261Y-111247003D01*
X97590427Y-111401111D01*
X97497755Y-111539805D01*
X97379805Y-111657755D01*
X97241111Y-111750427D01*
X97087003Y-111814261D01*
X96923403Y-111846803D01*
X96756597Y-111846803D01*
X96592997Y-111814261D01*
X96438889Y-111750427D01*
X96300195Y-111657755D01*
X96182245Y-111539805D01*
X96089573Y-111401111D01*
X96025739Y-111247003D01*
X95993197Y-111083403D01*
X95993197Y-110916597D01*
X96025739Y-110752997D01*
X96089573Y-110598889D01*
X96182245Y-110460195D01*
X96300195Y-110342245D01*
X96438889Y-110249573D01*
X96592997Y-110185739D01*
X96756597Y-110153197D01*
X96923403Y-110153197D01*
X97087003Y-110185739D01*
G37*
G36*
X107247003Y-110185739D02*
G01*
X107401111Y-110249573D01*
X107539805Y-110342245D01*
X107657755Y-110460195D01*
X107750427Y-110598889D01*
X107814261Y-110752997D01*
X107846803Y-110916597D01*
X107846803Y-111083403D01*
X107814261Y-111247003D01*
X107750427Y-111401111D01*
X107657755Y-111539805D01*
X107539805Y-111657755D01*
X107401111Y-111750427D01*
X107247003Y-111814261D01*
X107083403Y-111846803D01*
X106916597Y-111846803D01*
X106752997Y-111814261D01*
X106598889Y-111750427D01*
X106460195Y-111657755D01*
X106342245Y-111539805D01*
X106249573Y-111401111D01*
X106185739Y-111247003D01*
X106153197Y-111083403D01*
X106153197Y-110916597D01*
X106185739Y-110752997D01*
X106249573Y-110598889D01*
X106342245Y-110460195D01*
X106460195Y-110342245D01*
X106598889Y-110249573D01*
X106752997Y-110185739D01*
X106916597Y-110153197D01*
X107083403Y-110153197D01*
X107247003Y-110185739D01*
G37*
G36*
X133087003Y-110185739D02*
G01*
X133241111Y-110249573D01*
X133379805Y-110342245D01*
X133497755Y-110460195D01*
X133590427Y-110598889D01*
X133654261Y-110752997D01*
X133686803Y-110916597D01*
X133686803Y-111083403D01*
X133654261Y-111247003D01*
X133590427Y-111401111D01*
X133497755Y-111539805D01*
X133379805Y-111657755D01*
X133241111Y-111750427D01*
X133087003Y-111814261D01*
X132923403Y-111846803D01*
X132756597Y-111846803D01*
X132592997Y-111814261D01*
X132438889Y-111750427D01*
X132300195Y-111657755D01*
X132182245Y-111539805D01*
X132089573Y-111401111D01*
X132025739Y-111247003D01*
X131993197Y-111083403D01*
X131993197Y-110916597D01*
X132025739Y-110752997D01*
X132089573Y-110598889D01*
X132182245Y-110460195D01*
X132300195Y-110342245D01*
X132438889Y-110249573D01*
X132592997Y-110185739D01*
X132756597Y-110153197D01*
X132923403Y-110153197D01*
X133087003Y-110185739D01*
G37*
G36*
X143247003Y-110185739D02*
G01*
X143401111Y-110249573D01*
X143539805Y-110342245D01*
X143657755Y-110460195D01*
X143750427Y-110598889D01*
X143814261Y-110752997D01*
X143846803Y-110916597D01*
X143846803Y-111083403D01*
X143814261Y-111247003D01*
X143750427Y-111401111D01*
X143657755Y-111539805D01*
X143539805Y-111657755D01*
X143401111Y-111750427D01*
X143247003Y-111814261D01*
X143083403Y-111846803D01*
X142916597Y-111846803D01*
X142752997Y-111814261D01*
X142598889Y-111750427D01*
X142460195Y-111657755D01*
X142342245Y-111539805D01*
X142249573Y-111401111D01*
X142185739Y-111247003D01*
X142153197Y-111083403D01*
X142153197Y-110916597D01*
X142185739Y-110752997D01*
X142249573Y-110598889D01*
X142342245Y-110460195D01*
X142460195Y-110342245D01*
X142598889Y-110249573D01*
X142752997Y-110185739D01*
X142916597Y-110153197D01*
X143083403Y-110153197D01*
X143247003Y-110185739D01*
G37*
G36*
X98460168Y-107001445D02*
G01*
X98684025Y-107074181D01*
X98893748Y-107181040D01*
X99084172Y-107319391D01*
X99250609Y-107485828D01*
X99388960Y-107676252D01*
X99495819Y-107885975D01*
X99568555Y-108109832D01*
X99605376Y-108342311D01*
X99605376Y-108577689D01*
X99568555Y-108810168D01*
X99495819Y-109034025D01*
X99388960Y-109243748D01*
X99250609Y-109434172D01*
X99084172Y-109600609D01*
X98893748Y-109738960D01*
X98684025Y-109845819D01*
X98460168Y-109918555D01*
X98227689Y-109955376D01*
X97992311Y-109955376D01*
X97759832Y-109918555D01*
X97535975Y-109845819D01*
X97326252Y-109738960D01*
X97135828Y-109600609D01*
X96969391Y-109434172D01*
X96831040Y-109243748D01*
X96724181Y-109034025D01*
X96651445Y-108810168D01*
X96614624Y-108577689D01*
X96614624Y-108342311D01*
X96651445Y-108109832D01*
X96724181Y-107885975D01*
X96831040Y-107676252D01*
X96969391Y-107485828D01*
X97135828Y-107319391D01*
X97326252Y-107181040D01*
X97535975Y-107074181D01*
X97759832Y-107001445D01*
X97992311Y-106964624D01*
X98227689Y-106964624D01*
X98460168Y-107001445D01*
G37*
G36*
X134460168Y-107001445D02*
G01*
X134684025Y-107074181D01*
X134893748Y-107181040D01*
X135084172Y-107319391D01*
X135250609Y-107485828D01*
X135388960Y-107676252D01*
X135495819Y-107885975D01*
X135568555Y-108109832D01*
X135605376Y-108342311D01*
X135605376Y-108577689D01*
X135568555Y-108810168D01*
X135495819Y-109034025D01*
X135388960Y-109243748D01*
X135250609Y-109434172D01*
X135084172Y-109600609D01*
X134893748Y-109738960D01*
X134684025Y-109845819D01*
X134460168Y-109918555D01*
X134227689Y-109955376D01*
X133992311Y-109955376D01*
X133759832Y-109918555D01*
X133535975Y-109845819D01*
X133326252Y-109738960D01*
X133135828Y-109600609D01*
X132969391Y-109434172D01*
X132831040Y-109243748D01*
X132724181Y-109034025D01*
X132651445Y-108810168D01*
X132614624Y-108577689D01*
X132614624Y-108342311D01*
X132651445Y-108109832D01*
X132724181Y-107885975D01*
X132831040Y-107676252D01*
X132969391Y-107485828D01*
X133135828Y-107319391D01*
X133326252Y-107181040D01*
X133535975Y-107074181D01*
X133759832Y-107001445D01*
X133992311Y-106964624D01*
X134227689Y-106964624D01*
X134460168Y-107001445D01*
G37*
G36*
X45842228Y-108136948D02*
G01*
X45987117Y-108196963D01*
X46117515Y-108284092D01*
X46228408Y-108394985D01*
X46315537Y-108525383D01*
X46375552Y-108670272D01*
X46406148Y-108824086D01*
X46406148Y-108980914D01*
X46375552Y-109134728D01*
X46315537Y-109279617D01*
X46228408Y-109410015D01*
X46117515Y-109520908D01*
X45987117Y-109608037D01*
X45842228Y-109668052D01*
X45688414Y-109698648D01*
X45531586Y-109698648D01*
X45377772Y-109668052D01*
X45232883Y-109608037D01*
X45102485Y-109520908D01*
X44991592Y-109410015D01*
X44904463Y-109279617D01*
X44844448Y-109134728D01*
X44813852Y-108980914D01*
X44813852Y-108824086D01*
X44844448Y-108670272D01*
X44904463Y-108525383D01*
X44991592Y-108394985D01*
X45102485Y-108284092D01*
X45232883Y-108196963D01*
X45377772Y-108136948D01*
X45531586Y-108106352D01*
X45688414Y-108106352D01*
X45842228Y-108136948D01*
G37*
G36*
X63622228Y-108136948D02*
G01*
X63767117Y-108196963D01*
X63897515Y-108284092D01*
X64008408Y-108394985D01*
X64095537Y-108525383D01*
X64155552Y-108670272D01*
X64186148Y-108824086D01*
X64186148Y-108980914D01*
X64155552Y-109134728D01*
X64095537Y-109279617D01*
X64008408Y-109410015D01*
X63897515Y-109520908D01*
X63767117Y-109608037D01*
X63622228Y-109668052D01*
X63468414Y-109698648D01*
X63311586Y-109698648D01*
X63157772Y-109668052D01*
X63012883Y-109608037D01*
X62882485Y-109520908D01*
X62771592Y-109410015D01*
X62684463Y-109279617D01*
X62624448Y-109134728D01*
X62593852Y-108980914D01*
X62593852Y-108824086D01*
X62624448Y-108670272D01*
X62684463Y-108525383D01*
X62771592Y-108394985D01*
X62882485Y-108284092D01*
X63012883Y-108196963D01*
X63157772Y-108136948D01*
X63311586Y-108106352D01*
X63468414Y-108106352D01*
X63622228Y-108136948D01*
G37*
G36*
X104810168Y-104461445D02*
G01*
X105034025Y-104534181D01*
X105243748Y-104641040D01*
X105434172Y-104779391D01*
X105600609Y-104945828D01*
X105738960Y-105136252D01*
X105845819Y-105345975D01*
X105918555Y-105569832D01*
X105955376Y-105802311D01*
X105955376Y-106037689D01*
X105918555Y-106270168D01*
X105845819Y-106494025D01*
X105738960Y-106703748D01*
X105600609Y-106894172D01*
X105434172Y-107060609D01*
X105243748Y-107198960D01*
X105034025Y-107305819D01*
X104810168Y-107378555D01*
X104577689Y-107415376D01*
X104342311Y-107415376D01*
X104109832Y-107378555D01*
X103885975Y-107305819D01*
X103676252Y-107198960D01*
X103485828Y-107060609D01*
X103319391Y-106894172D01*
X103181040Y-106703748D01*
X103074181Y-106494025D01*
X103001445Y-106270168D01*
X102964624Y-106037689D01*
X102964624Y-105802311D01*
X103001445Y-105569832D01*
X103074181Y-105345975D01*
X103181040Y-105136252D01*
X103319391Y-104945828D01*
X103485828Y-104779391D01*
X103676252Y-104641040D01*
X103885975Y-104534181D01*
X104109832Y-104461445D01*
X104342311Y-104424624D01*
X104577689Y-104424624D01*
X104810168Y-104461445D01*
G37*
G36*
X140810168Y-104461445D02*
G01*
X141034025Y-104534181D01*
X141243748Y-104641040D01*
X141434172Y-104779391D01*
X141600609Y-104945828D01*
X141738960Y-105136252D01*
X141845819Y-105345975D01*
X141918555Y-105569832D01*
X141955376Y-105802311D01*
X141955376Y-106037689D01*
X141918555Y-106270168D01*
X141845819Y-106494025D01*
X141738960Y-106703748D01*
X141600609Y-106894172D01*
X141434172Y-107060609D01*
X141243748Y-107198960D01*
X141034025Y-107305819D01*
X140810168Y-107378555D01*
X140577689Y-107415376D01*
X140342311Y-107415376D01*
X140109832Y-107378555D01*
X139885975Y-107305819D01*
X139676252Y-107198960D01*
X139485828Y-107060609D01*
X139319391Y-106894172D01*
X139181040Y-106703748D01*
X139074181Y-106494025D01*
X139001445Y-106270168D01*
X138964624Y-106037689D01*
X138964624Y-105802311D01*
X139001445Y-105569832D01*
X139074181Y-105345975D01*
X139181040Y-105136252D01*
X139319391Y-104945828D01*
X139485828Y-104779391D01*
X139676252Y-104641040D01*
X139885975Y-104534181D01*
X140109832Y-104461445D01*
X140342311Y-104424624D01*
X140577689Y-104424624D01*
X140810168Y-104461445D01*
G37*
G36*
X46213536Y-105558964D02*
G01*
X46215915Y-105561343D01*
X46243108Y-105561343D01*
X46249018Y-105561343D01*
X46250931Y-105561724D01*
X46256385Y-105563983D01*
X46256389Y-105563984D01*
X46317569Y-105589326D01*
X46323027Y-105591587D01*
X46324650Y-105592670D01*
X46379830Y-105647850D01*
X46380913Y-105649473D01*
X46410776Y-105721569D01*
X46411157Y-105723482D01*
X46411157Y-105756585D01*
X46413536Y-105758964D01*
X46415000Y-105762500D01*
X46415000Y-106962500D01*
X46413536Y-106966036D01*
X46411157Y-106968415D01*
X46411157Y-107001518D01*
X46410776Y-107003431D01*
X46380913Y-107075527D01*
X46379830Y-107077150D01*
X46324650Y-107132330D01*
X46323027Y-107133413D01*
X46250931Y-107163276D01*
X46249018Y-107163657D01*
X46215915Y-107163657D01*
X46213536Y-107166036D01*
X46210000Y-107167500D01*
X46198066Y-107167500D01*
X45621935Y-107167500D01*
X45610000Y-107167500D01*
X45606464Y-107166036D01*
X45605475Y-107163648D01*
X45534533Y-107163648D01*
X45531586Y-107163648D01*
X45530611Y-107163552D01*
X45376797Y-107132956D01*
X45375859Y-107132671D01*
X45237901Y-107075527D01*
X45233688Y-107073782D01*
X45233686Y-107073781D01*
X45230970Y-107072656D01*
X45230105Y-107072194D01*
X45135362Y-107008889D01*
X45102159Y-106986704D01*
X45102154Y-106986700D01*
X45099707Y-106985065D01*
X45098949Y-106984444D01*
X44988056Y-106873551D01*
X44987435Y-106872793D01*
X44985800Y-106870346D01*
X44985795Y-106870340D01*
X44901943Y-106744845D01*
X44901942Y-106744844D01*
X44900306Y-106742395D01*
X44899844Y-106741530D01*
X44898720Y-106738817D01*
X44898717Y-106738811D01*
X44840955Y-106599360D01*
X44840954Y-106599357D01*
X44839829Y-106596641D01*
X44839544Y-106595703D01*
X44838970Y-106592818D01*
X44838968Y-106592811D01*
X44809523Y-106444781D01*
X44809522Y-106444778D01*
X44808948Y-106441889D01*
X44808852Y-106440914D01*
X44808852Y-106284086D01*
X44808948Y-106283111D01*
X44809523Y-106280218D01*
X44838968Y-106132188D01*
X44838970Y-106132179D01*
X44839544Y-106129297D01*
X44839829Y-106128359D01*
X44840953Y-106125644D01*
X44840955Y-106125639D01*
X44898717Y-105986188D01*
X44898722Y-105986178D01*
X44899844Y-105983470D01*
X44900306Y-105982605D01*
X44901940Y-105980159D01*
X44901943Y-105980154D01*
X44985795Y-105854659D01*
X44985803Y-105854648D01*
X44987435Y-105852207D01*
X44988056Y-105851449D01*
X45098949Y-105740556D01*
X45099707Y-105739935D01*
X45102148Y-105738303D01*
X45102159Y-105738295D01*
X45227654Y-105654443D01*
X45227659Y-105654440D01*
X45230105Y-105652806D01*
X45230970Y-105652344D01*
X45233678Y-105651222D01*
X45233688Y-105651217D01*
X45373139Y-105593455D01*
X45373144Y-105593453D01*
X45375859Y-105592329D01*
X45376797Y-105592044D01*
X45379679Y-105591470D01*
X45379688Y-105591468D01*
X45527718Y-105562023D01*
X45527722Y-105562022D01*
X45530611Y-105561448D01*
X45531586Y-105561352D01*
X45605475Y-105561352D01*
X45606464Y-105558964D01*
X45610000Y-105557500D01*
X46210000Y-105557500D01*
X46213536Y-105558964D01*
G37*
G36*
X63393536Y-105558964D02*
G01*
X63394525Y-105561352D01*
X63465467Y-105561352D01*
X63468414Y-105561352D01*
X63469389Y-105561448D01*
X63472278Y-105562022D01*
X63472281Y-105562023D01*
X63620311Y-105591468D01*
X63620318Y-105591470D01*
X63623203Y-105592044D01*
X63624141Y-105592329D01*
X63626857Y-105593454D01*
X63626860Y-105593455D01*
X63766311Y-105651217D01*
X63766317Y-105651220D01*
X63769030Y-105652344D01*
X63769895Y-105652806D01*
X63772344Y-105654442D01*
X63772345Y-105654443D01*
X63897840Y-105738295D01*
X63897846Y-105738300D01*
X63900293Y-105739935D01*
X63901051Y-105740556D01*
X64011944Y-105851449D01*
X64012565Y-105852207D01*
X64014200Y-105854654D01*
X64014204Y-105854659D01*
X64071152Y-105939889D01*
X64099694Y-105982605D01*
X64100156Y-105983470D01*
X64160171Y-106128359D01*
X64160456Y-106129297D01*
X64191052Y-106283111D01*
X64191148Y-106284086D01*
X64191148Y-106440914D01*
X64191052Y-106441889D01*
X64160456Y-106595703D01*
X64160171Y-106596641D01*
X64100156Y-106741530D01*
X64099694Y-106742395D01*
X64012565Y-106872793D01*
X64011944Y-106873551D01*
X63901051Y-106984444D01*
X63900293Y-106985065D01*
X63769895Y-107072194D01*
X63769030Y-107072656D01*
X63624141Y-107132671D01*
X63623203Y-107132956D01*
X63469389Y-107163552D01*
X63468414Y-107163648D01*
X63394525Y-107163648D01*
X63393536Y-107166036D01*
X63390000Y-107167500D01*
X63378065Y-107167500D01*
X62801934Y-107167500D01*
X62790000Y-107167500D01*
X62786464Y-107166036D01*
X62784085Y-107163657D01*
X62756892Y-107163657D01*
X62750982Y-107163657D01*
X62749069Y-107163276D01*
X62676973Y-107133413D01*
X62675350Y-107132330D01*
X62620170Y-107077150D01*
X62619087Y-107075527D01*
X62616826Y-107070069D01*
X62591484Y-107008889D01*
X62591483Y-107008885D01*
X62589224Y-107003431D01*
X62588843Y-107001518D01*
X62588843Y-106968415D01*
X62586464Y-106966036D01*
X62585000Y-106962500D01*
X62585000Y-105762500D01*
X62586464Y-105758964D01*
X62588843Y-105756585D01*
X62588843Y-105723482D01*
X62589224Y-105721569D01*
X62591482Y-105716115D01*
X62591484Y-105716110D01*
X62616826Y-105654930D01*
X62616827Y-105654927D01*
X62619087Y-105649473D01*
X62620170Y-105647850D01*
X62675350Y-105592670D01*
X62676973Y-105591587D01*
X62682427Y-105589327D01*
X62682430Y-105589326D01*
X62743610Y-105563984D01*
X62743615Y-105563982D01*
X62749069Y-105561724D01*
X62750982Y-105561343D01*
X62784085Y-105561343D01*
X62786464Y-105558964D01*
X62790000Y-105557500D01*
X63390000Y-105557500D01*
X63393536Y-105558964D01*
G37*
G36*
X120308991Y-103044412D02*
G01*
X120560918Y-103111916D01*
X120801879Y-103211725D01*
X121027751Y-103342133D01*
X121234670Y-103500907D01*
X121419093Y-103685330D01*
X121577867Y-103892249D01*
X121708275Y-104118121D01*
X121808084Y-104359082D01*
X121875588Y-104611009D01*
X121909631Y-104869593D01*
X121909631Y-105130407D01*
X121875588Y-105388991D01*
X121808084Y-105640918D01*
X121708275Y-105881879D01*
X121577867Y-106107751D01*
X121419093Y-106314670D01*
X121234670Y-106499093D01*
X121027751Y-106657867D01*
X120801879Y-106788275D01*
X120560918Y-106888084D01*
X120308991Y-106955588D01*
X120050407Y-106989631D01*
X119789593Y-106989631D01*
X119531009Y-106955588D01*
X119279082Y-106888084D01*
X119038121Y-106788275D01*
X118812249Y-106657867D01*
X118605330Y-106499093D01*
X118420907Y-106314670D01*
X118262133Y-106107751D01*
X118131725Y-105881879D01*
X118031916Y-105640918D01*
X117964412Y-105388991D01*
X117930369Y-105130407D01*
X117930369Y-104869593D01*
X117964412Y-104611009D01*
X118031916Y-104359082D01*
X118131725Y-104118121D01*
X118262133Y-103892249D01*
X118420907Y-103685330D01*
X118605330Y-103500907D01*
X118812249Y-103342133D01*
X119038121Y-103211725D01*
X119279082Y-103111916D01*
X119531009Y-103044412D01*
X119789593Y-103010369D01*
X120050407Y-103010369D01*
X120308991Y-103044412D01*
G37*
G36*
X115087003Y-104185739D02*
G01*
X115241111Y-104249573D01*
X115379805Y-104342245D01*
X115497755Y-104460195D01*
X115590427Y-104598889D01*
X115654261Y-104752997D01*
X115686803Y-104916597D01*
X115686803Y-105083403D01*
X115654261Y-105247003D01*
X115590427Y-105401111D01*
X115497755Y-105539805D01*
X115379805Y-105657755D01*
X115241111Y-105750427D01*
X115087003Y-105814261D01*
X114923403Y-105846803D01*
X114756597Y-105846803D01*
X114592997Y-105814261D01*
X114438889Y-105750427D01*
X114300195Y-105657755D01*
X114182245Y-105539805D01*
X114089573Y-105401111D01*
X114025739Y-105247003D01*
X113993197Y-105083403D01*
X113993197Y-104916597D01*
X114025739Y-104752997D01*
X114089573Y-104598889D01*
X114182245Y-104460195D01*
X114300195Y-104342245D01*
X114438889Y-104249573D01*
X114592997Y-104185739D01*
X114756597Y-104153197D01*
X114923403Y-104153197D01*
X115087003Y-104185739D01*
G37*
G36*
X125247003Y-104185739D02*
G01*
X125401111Y-104249573D01*
X125539805Y-104342245D01*
X125657755Y-104460195D01*
X125750427Y-104598889D01*
X125814261Y-104752997D01*
X125846803Y-104916597D01*
X125846803Y-105083403D01*
X125814261Y-105247003D01*
X125750427Y-105401111D01*
X125657755Y-105539805D01*
X125539805Y-105657755D01*
X125401111Y-105750427D01*
X125247003Y-105814261D01*
X125083403Y-105846803D01*
X124916597Y-105846803D01*
X124752997Y-105814261D01*
X124598889Y-105750427D01*
X124460195Y-105657755D01*
X124342245Y-105539805D01*
X124249573Y-105401111D01*
X124185739Y-105247003D01*
X124153197Y-105083403D01*
X124153197Y-104916597D01*
X124185739Y-104752997D01*
X124249573Y-104598889D01*
X124342245Y-104460195D01*
X124460195Y-104342245D01*
X124598889Y-104249573D01*
X124752997Y-104185739D01*
X124916597Y-104153197D01*
X125083403Y-104153197D01*
X125247003Y-104185739D01*
G37*
G36*
X45842228Y-103056948D02*
G01*
X45987117Y-103116963D01*
X46117515Y-103204092D01*
X46228408Y-103314985D01*
X46315537Y-103445383D01*
X46375552Y-103590272D01*
X46406148Y-103744086D01*
X46406148Y-103900914D01*
X46375552Y-104054728D01*
X46315537Y-104199617D01*
X46228408Y-104330015D01*
X46117515Y-104440908D01*
X45987117Y-104528037D01*
X45842228Y-104588052D01*
X45688414Y-104618648D01*
X45531586Y-104618648D01*
X45377772Y-104588052D01*
X45232883Y-104528037D01*
X45102485Y-104440908D01*
X44991592Y-104330015D01*
X44904463Y-104199617D01*
X44844448Y-104054728D01*
X44813852Y-103900914D01*
X44813852Y-103744086D01*
X44844448Y-103590272D01*
X44904463Y-103445383D01*
X44991592Y-103314985D01*
X45102485Y-103204092D01*
X45232883Y-103116963D01*
X45377772Y-103056948D01*
X45531586Y-103026352D01*
X45688414Y-103026352D01*
X45842228Y-103056948D01*
G37*
G36*
X63622228Y-103056948D02*
G01*
X63767117Y-103116963D01*
X63897515Y-103204092D01*
X64008408Y-103314985D01*
X64095537Y-103445383D01*
X64155552Y-103590272D01*
X64186148Y-103744086D01*
X64186148Y-103900914D01*
X64155552Y-104054728D01*
X64095537Y-104199617D01*
X64008408Y-104330015D01*
X63897515Y-104440908D01*
X63767117Y-104528037D01*
X63622228Y-104588052D01*
X63468414Y-104618648D01*
X63311586Y-104618648D01*
X63157772Y-104588052D01*
X63012883Y-104528037D01*
X62882485Y-104440908D01*
X62771592Y-104330015D01*
X62684463Y-104199617D01*
X62624448Y-104054728D01*
X62593852Y-103900914D01*
X62593852Y-103744086D01*
X62624448Y-103590272D01*
X62684463Y-103445383D01*
X62771592Y-103314985D01*
X62882485Y-103204092D01*
X63012883Y-103116963D01*
X63157772Y-103056948D01*
X63311586Y-103026352D01*
X63468414Y-103026352D01*
X63622228Y-103056948D01*
G37*
G36*
X116460168Y-101001445D02*
G01*
X116684025Y-101074181D01*
X116893748Y-101181040D01*
X117084172Y-101319391D01*
X117250609Y-101485828D01*
X117388960Y-101676252D01*
X117495819Y-101885975D01*
X117568555Y-102109832D01*
X117605376Y-102342311D01*
X117605376Y-102577689D01*
X117568555Y-102810168D01*
X117495819Y-103034025D01*
X117388960Y-103243748D01*
X117250609Y-103434172D01*
X117084172Y-103600609D01*
X116893748Y-103738960D01*
X116684025Y-103845819D01*
X116460168Y-103918555D01*
X116227689Y-103955376D01*
X115992311Y-103955376D01*
X115759832Y-103918555D01*
X115535975Y-103845819D01*
X115326252Y-103738960D01*
X115135828Y-103600609D01*
X114969391Y-103434172D01*
X114831040Y-103243748D01*
X114724181Y-103034025D01*
X114651445Y-102810168D01*
X114614624Y-102577689D01*
X114614624Y-102342311D01*
X114651445Y-102109832D01*
X114724181Y-101885975D01*
X114831040Y-101676252D01*
X114969391Y-101485828D01*
X115135828Y-101319391D01*
X115326252Y-101181040D01*
X115535975Y-101074181D01*
X115759832Y-101001445D01*
X115992311Y-100964624D01*
X116227689Y-100964624D01*
X116460168Y-101001445D01*
G37*
G36*
X45842228Y-100516948D02*
G01*
X45987117Y-100576963D01*
X46117515Y-100664092D01*
X46228408Y-100774985D01*
X46315537Y-100905383D01*
X46375552Y-101050272D01*
X46406148Y-101204086D01*
X46406148Y-101360914D01*
X46375552Y-101514728D01*
X46315537Y-101659617D01*
X46228408Y-101790015D01*
X46117515Y-101900908D01*
X45987117Y-101988037D01*
X45842228Y-102048052D01*
X45688414Y-102078648D01*
X45531586Y-102078648D01*
X45377772Y-102048052D01*
X45232883Y-101988037D01*
X45102485Y-101900908D01*
X44991592Y-101790015D01*
X44904463Y-101659617D01*
X44844448Y-101514728D01*
X44813852Y-101360914D01*
X44813852Y-101204086D01*
X44844448Y-101050272D01*
X44904463Y-100905383D01*
X44991592Y-100774985D01*
X45102485Y-100664092D01*
X45232883Y-100576963D01*
X45377772Y-100516948D01*
X45531586Y-100486352D01*
X45688414Y-100486352D01*
X45842228Y-100516948D01*
G37*
G36*
X63622228Y-100516948D02*
G01*
X63767117Y-100576963D01*
X63897515Y-100664092D01*
X64008408Y-100774985D01*
X64095537Y-100905383D01*
X64155552Y-101050272D01*
X64186148Y-101204086D01*
X64186148Y-101360914D01*
X64155552Y-101514728D01*
X64095537Y-101659617D01*
X64008408Y-101790015D01*
X63897515Y-101900908D01*
X63767117Y-101988037D01*
X63622228Y-102048052D01*
X63468414Y-102078648D01*
X63311586Y-102078648D01*
X63157772Y-102048052D01*
X63012883Y-101988037D01*
X62882485Y-101900908D01*
X62771592Y-101790015D01*
X62684463Y-101659617D01*
X62624448Y-101514728D01*
X62593852Y-101360914D01*
X62593852Y-101204086D01*
X62624448Y-101050272D01*
X62684463Y-100905383D01*
X62771592Y-100774985D01*
X62882485Y-100664092D01*
X63012883Y-100576963D01*
X63157772Y-100516948D01*
X63311586Y-100486352D01*
X63468414Y-100486352D01*
X63622228Y-100516948D01*
G37*
G36*
X122810168Y-98461445D02*
G01*
X123034025Y-98534181D01*
X123243748Y-98641040D01*
X123434172Y-98779391D01*
X123600609Y-98945828D01*
X123738960Y-99136252D01*
X123845819Y-99345975D01*
X123918555Y-99569832D01*
X123955376Y-99802311D01*
X123955376Y-100037689D01*
X123918555Y-100270168D01*
X123845819Y-100494025D01*
X123738960Y-100703748D01*
X123600609Y-100894172D01*
X123434172Y-101060609D01*
X123243748Y-101198960D01*
X123034025Y-101305819D01*
X122810168Y-101378555D01*
X122577689Y-101415376D01*
X122342311Y-101415376D01*
X122109832Y-101378555D01*
X121885975Y-101305819D01*
X121676252Y-101198960D01*
X121485828Y-101060609D01*
X121319391Y-100894172D01*
X121181040Y-100703748D01*
X121074181Y-100494025D01*
X121001445Y-100270168D01*
X120964624Y-100037689D01*
X120964624Y-99802311D01*
X121001445Y-99569832D01*
X121074181Y-99345975D01*
X121181040Y-99136252D01*
X121319391Y-98945828D01*
X121485828Y-98779391D01*
X121676252Y-98641040D01*
X121885975Y-98534181D01*
X122109832Y-98461445D01*
X122342311Y-98424624D01*
X122577689Y-98424624D01*
X122810168Y-98461445D01*
G37*
G36*
X84308991Y-97044412D02*
G01*
X84560918Y-97111916D01*
X84801879Y-97211725D01*
X85027751Y-97342133D01*
X85234670Y-97500907D01*
X85419093Y-97685330D01*
X85577867Y-97892249D01*
X85708275Y-98118121D01*
X85808084Y-98359082D01*
X85875588Y-98611009D01*
X85909631Y-98869593D01*
X85909631Y-99130407D01*
X85875588Y-99388991D01*
X85808084Y-99640918D01*
X85708275Y-99881879D01*
X85577867Y-100107751D01*
X85419093Y-100314670D01*
X85234670Y-100499093D01*
X85027751Y-100657867D01*
X84801879Y-100788275D01*
X84560918Y-100888084D01*
X84308991Y-100955588D01*
X84050407Y-100989631D01*
X83789593Y-100989631D01*
X83531009Y-100955588D01*
X83279082Y-100888084D01*
X83038121Y-100788275D01*
X82812249Y-100657867D01*
X82605330Y-100499093D01*
X82420907Y-100314670D01*
X82262133Y-100107751D01*
X82131725Y-99881879D01*
X82031916Y-99640918D01*
X81964412Y-99388991D01*
X81930369Y-99130407D01*
X81930369Y-98869593D01*
X81964412Y-98611009D01*
X82031916Y-98359082D01*
X82131725Y-98118121D01*
X82262133Y-97892249D01*
X82420907Y-97685330D01*
X82605330Y-97500907D01*
X82812249Y-97342133D01*
X83038121Y-97211725D01*
X83279082Y-97111916D01*
X83531009Y-97044412D01*
X83789593Y-97010369D01*
X84050407Y-97010369D01*
X84308991Y-97044412D01*
G37*
G36*
X156308991Y-97044412D02*
G01*
X156560918Y-97111916D01*
X156801879Y-97211725D01*
X157027751Y-97342133D01*
X157234670Y-97500907D01*
X157419093Y-97685330D01*
X157577867Y-97892249D01*
X157708275Y-98118121D01*
X157808084Y-98359082D01*
X157875588Y-98611009D01*
X157909631Y-98869593D01*
X157909631Y-99130407D01*
X157875588Y-99388991D01*
X157808084Y-99640918D01*
X157708275Y-99881879D01*
X157577867Y-100107751D01*
X157419093Y-100314670D01*
X157234670Y-100499093D01*
X157027751Y-100657867D01*
X156801879Y-100788275D01*
X156560918Y-100888084D01*
X156308991Y-100955588D01*
X156050407Y-100989631D01*
X155789593Y-100989631D01*
X155531009Y-100955588D01*
X155279082Y-100888084D01*
X155038121Y-100788275D01*
X154812249Y-100657867D01*
X154605330Y-100499093D01*
X154420907Y-100314670D01*
X154262133Y-100107751D01*
X154131725Y-99881879D01*
X154031916Y-99640918D01*
X153964412Y-99388991D01*
X153930369Y-99130407D01*
X153930369Y-98869593D01*
X153964412Y-98611009D01*
X154031916Y-98359082D01*
X154131725Y-98118121D01*
X154262133Y-97892249D01*
X154420907Y-97685330D01*
X154605330Y-97500907D01*
X154812249Y-97342133D01*
X155038121Y-97211725D01*
X155279082Y-97111916D01*
X155531009Y-97044412D01*
X155789593Y-97010369D01*
X156050407Y-97010369D01*
X156308991Y-97044412D01*
G37*
G36*
X174308991Y-97044412D02*
G01*
X174560918Y-97111916D01*
X174801879Y-97211725D01*
X175027751Y-97342133D01*
X175234670Y-97500907D01*
X175419093Y-97685330D01*
X175577867Y-97892249D01*
X175708275Y-98118121D01*
X175808084Y-98359082D01*
X175875588Y-98611009D01*
X175909631Y-98869593D01*
X175909631Y-99130407D01*
X175875588Y-99388991D01*
X175808084Y-99640918D01*
X175708275Y-99881879D01*
X175577867Y-100107751D01*
X175419093Y-100314670D01*
X175234670Y-100499093D01*
X175027751Y-100657867D01*
X174801879Y-100788275D01*
X174560918Y-100888084D01*
X174308991Y-100955588D01*
X174050407Y-100989631D01*
X173789593Y-100989631D01*
X173531009Y-100955588D01*
X173279082Y-100888084D01*
X173038121Y-100788275D01*
X172812249Y-100657867D01*
X172605330Y-100499093D01*
X172420907Y-100314670D01*
X172262133Y-100107751D01*
X172131725Y-99881879D01*
X172031916Y-99640918D01*
X171964412Y-99388991D01*
X171930369Y-99130407D01*
X171930369Y-98869593D01*
X171964412Y-98611009D01*
X172031916Y-98359082D01*
X172131725Y-98118121D01*
X172262133Y-97892249D01*
X172420907Y-97685330D01*
X172605330Y-97500907D01*
X172812249Y-97342133D01*
X173038121Y-97211725D01*
X173279082Y-97111916D01*
X173531009Y-97044412D01*
X173789593Y-97010369D01*
X174050407Y-97010369D01*
X174308991Y-97044412D01*
G37*
G36*
X79087003Y-98185739D02*
G01*
X79241111Y-98249573D01*
X79379805Y-98342245D01*
X79497755Y-98460195D01*
X79590427Y-98598889D01*
X79654261Y-98752997D01*
X79686803Y-98916597D01*
X79686803Y-99083403D01*
X79654261Y-99247003D01*
X79590427Y-99401111D01*
X79497755Y-99539805D01*
X79379805Y-99657755D01*
X79241111Y-99750427D01*
X79087003Y-99814261D01*
X78923403Y-99846803D01*
X78756597Y-99846803D01*
X78592997Y-99814261D01*
X78438889Y-99750427D01*
X78300195Y-99657755D01*
X78182245Y-99539805D01*
X78089573Y-99401111D01*
X78025739Y-99247003D01*
X77993197Y-99083403D01*
X77993197Y-98916597D01*
X78025739Y-98752997D01*
X78089573Y-98598889D01*
X78182245Y-98460195D01*
X78300195Y-98342245D01*
X78438889Y-98249573D01*
X78592997Y-98185739D01*
X78756597Y-98153197D01*
X78923403Y-98153197D01*
X79087003Y-98185739D01*
G37*
G36*
X89247003Y-98185739D02*
G01*
X89401111Y-98249573D01*
X89539805Y-98342245D01*
X89657755Y-98460195D01*
X89750427Y-98598889D01*
X89814261Y-98752997D01*
X89846803Y-98916597D01*
X89846803Y-99083403D01*
X89814261Y-99247003D01*
X89750427Y-99401111D01*
X89657755Y-99539805D01*
X89539805Y-99657755D01*
X89401111Y-99750427D01*
X89247003Y-99814261D01*
X89083403Y-99846803D01*
X88916597Y-99846803D01*
X88752997Y-99814261D01*
X88598889Y-99750427D01*
X88460195Y-99657755D01*
X88342245Y-99539805D01*
X88249573Y-99401111D01*
X88185739Y-99247003D01*
X88153197Y-99083403D01*
X88153197Y-98916597D01*
X88185739Y-98752997D01*
X88249573Y-98598889D01*
X88342245Y-98460195D01*
X88460195Y-98342245D01*
X88598889Y-98249573D01*
X88752997Y-98185739D01*
X88916597Y-98153197D01*
X89083403Y-98153197D01*
X89247003Y-98185739D01*
G37*
G36*
X151087003Y-98185739D02*
G01*
X151241111Y-98249573D01*
X151379805Y-98342245D01*
X151497755Y-98460195D01*
X151590427Y-98598889D01*
X151654261Y-98752997D01*
X151686803Y-98916597D01*
X151686803Y-99083403D01*
X151654261Y-99247003D01*
X151590427Y-99401111D01*
X151497755Y-99539805D01*
X151379805Y-99657755D01*
X151241111Y-99750427D01*
X151087003Y-99814261D01*
X150923403Y-99846803D01*
X150756597Y-99846803D01*
X150592997Y-99814261D01*
X150438889Y-99750427D01*
X150300195Y-99657755D01*
X150182245Y-99539805D01*
X150089573Y-99401111D01*
X150025739Y-99247003D01*
X149993197Y-99083403D01*
X149993197Y-98916597D01*
X150025739Y-98752997D01*
X150089573Y-98598889D01*
X150182245Y-98460195D01*
X150300195Y-98342245D01*
X150438889Y-98249573D01*
X150592997Y-98185739D01*
X150756597Y-98153197D01*
X150923403Y-98153197D01*
X151087003Y-98185739D01*
G37*
G36*
X161247003Y-98185739D02*
G01*
X161401111Y-98249573D01*
X161539805Y-98342245D01*
X161657755Y-98460195D01*
X161750427Y-98598889D01*
X161814261Y-98752997D01*
X161846803Y-98916597D01*
X161846803Y-99083403D01*
X161814261Y-99247003D01*
X161750427Y-99401111D01*
X161657755Y-99539805D01*
X161539805Y-99657755D01*
X161401111Y-99750427D01*
X161247003Y-99814261D01*
X161083403Y-99846803D01*
X160916597Y-99846803D01*
X160752997Y-99814261D01*
X160598889Y-99750427D01*
X160460195Y-99657755D01*
X160342245Y-99539805D01*
X160249573Y-99401111D01*
X160185739Y-99247003D01*
X160153197Y-99083403D01*
X160153197Y-98916597D01*
X160185739Y-98752997D01*
X160249573Y-98598889D01*
X160342245Y-98460195D01*
X160460195Y-98342245D01*
X160598889Y-98249573D01*
X160752997Y-98185739D01*
X160916597Y-98153197D01*
X161083403Y-98153197D01*
X161247003Y-98185739D01*
G37*
G36*
X169087003Y-98185739D02*
G01*
X169241111Y-98249573D01*
X169379805Y-98342245D01*
X169497755Y-98460195D01*
X169590427Y-98598889D01*
X169654261Y-98752997D01*
X169686803Y-98916597D01*
X169686803Y-99083403D01*
X169654261Y-99247003D01*
X169590427Y-99401111D01*
X169497755Y-99539805D01*
X169379805Y-99657755D01*
X169241111Y-99750427D01*
X169087003Y-99814261D01*
X168923403Y-99846803D01*
X168756597Y-99846803D01*
X168592997Y-99814261D01*
X168438889Y-99750427D01*
X168300195Y-99657755D01*
X168182245Y-99539805D01*
X168089573Y-99401111D01*
X168025739Y-99247003D01*
X167993197Y-99083403D01*
X167993197Y-98916597D01*
X168025739Y-98752997D01*
X168089573Y-98598889D01*
X168182245Y-98460195D01*
X168300195Y-98342245D01*
X168438889Y-98249573D01*
X168592997Y-98185739D01*
X168756597Y-98153197D01*
X168923403Y-98153197D01*
X169087003Y-98185739D01*
G37*
G36*
X179247003Y-98185739D02*
G01*
X179401111Y-98249573D01*
X179539805Y-98342245D01*
X179657755Y-98460195D01*
X179750427Y-98598889D01*
X179814261Y-98752997D01*
X179846803Y-98916597D01*
X179846803Y-99083403D01*
X179814261Y-99247003D01*
X179750427Y-99401111D01*
X179657755Y-99539805D01*
X179539805Y-99657755D01*
X179401111Y-99750427D01*
X179247003Y-99814261D01*
X179083403Y-99846803D01*
X178916597Y-99846803D01*
X178752997Y-99814261D01*
X178598889Y-99750427D01*
X178460195Y-99657755D01*
X178342245Y-99539805D01*
X178249573Y-99401111D01*
X178185739Y-99247003D01*
X178153197Y-99083403D01*
X178153197Y-98916597D01*
X178185739Y-98752997D01*
X178249573Y-98598889D01*
X178342245Y-98460195D01*
X178460195Y-98342245D01*
X178598889Y-98249573D01*
X178752997Y-98185739D01*
X178916597Y-98153197D01*
X179083403Y-98153197D01*
X179247003Y-98185739D01*
G37*
G36*
X45842228Y-97976948D02*
G01*
X45987117Y-98036963D01*
X46117515Y-98124092D01*
X46228408Y-98234985D01*
X46315537Y-98365383D01*
X46375552Y-98510272D01*
X46406148Y-98664086D01*
X46406148Y-98820914D01*
X46375552Y-98974728D01*
X46315537Y-99119617D01*
X46228408Y-99250015D01*
X46117515Y-99360908D01*
X45987117Y-99448037D01*
X45842228Y-99508052D01*
X45688414Y-99538648D01*
X45531586Y-99538648D01*
X45377772Y-99508052D01*
X45232883Y-99448037D01*
X45102485Y-99360908D01*
X44991592Y-99250015D01*
X44904463Y-99119617D01*
X44844448Y-98974728D01*
X44813852Y-98820914D01*
X44813852Y-98664086D01*
X44844448Y-98510272D01*
X44904463Y-98365383D01*
X44991592Y-98234985D01*
X45102485Y-98124092D01*
X45232883Y-98036963D01*
X45377772Y-97976948D01*
X45531586Y-97946352D01*
X45688414Y-97946352D01*
X45842228Y-97976948D01*
G37*
G36*
X63622228Y-97976948D02*
G01*
X63767117Y-98036963D01*
X63897515Y-98124092D01*
X64008408Y-98234985D01*
X64095537Y-98365383D01*
X64155552Y-98510272D01*
X64186148Y-98664086D01*
X64186148Y-98820914D01*
X64155552Y-98974728D01*
X64095537Y-99119617D01*
X64008408Y-99250015D01*
X63897515Y-99360908D01*
X63767117Y-99448037D01*
X63622228Y-99508052D01*
X63468414Y-99538648D01*
X63311586Y-99538648D01*
X63157772Y-99508052D01*
X63012883Y-99448037D01*
X62882485Y-99360908D01*
X62771592Y-99250015D01*
X62684463Y-99119617D01*
X62624448Y-98974728D01*
X62593852Y-98820914D01*
X62593852Y-98664086D01*
X62624448Y-98510272D01*
X62684463Y-98365383D01*
X62771592Y-98234985D01*
X62882485Y-98124092D01*
X63012883Y-98036963D01*
X63157772Y-97976948D01*
X63311586Y-97946352D01*
X63468414Y-97946352D01*
X63622228Y-97976948D01*
G37*
G36*
X80460168Y-95001445D02*
G01*
X80684025Y-95074181D01*
X80893748Y-95181040D01*
X81084172Y-95319391D01*
X81250609Y-95485828D01*
X81388960Y-95676252D01*
X81495819Y-95885975D01*
X81568555Y-96109832D01*
X81605376Y-96342311D01*
X81605376Y-96577689D01*
X81568555Y-96810168D01*
X81495819Y-97034025D01*
X81388960Y-97243748D01*
X81250609Y-97434172D01*
X81084172Y-97600609D01*
X80893748Y-97738960D01*
X80684025Y-97845819D01*
X80460168Y-97918555D01*
X80227689Y-97955376D01*
X79992311Y-97955376D01*
X79759832Y-97918555D01*
X79535975Y-97845819D01*
X79326252Y-97738960D01*
X79135828Y-97600609D01*
X78969391Y-97434172D01*
X78831040Y-97243748D01*
X78724181Y-97034025D01*
X78651445Y-96810168D01*
X78614624Y-96577689D01*
X78614624Y-96342311D01*
X78651445Y-96109832D01*
X78724181Y-95885975D01*
X78831040Y-95676252D01*
X78969391Y-95485828D01*
X79135828Y-95319391D01*
X79326252Y-95181040D01*
X79535975Y-95074181D01*
X79759832Y-95001445D01*
X79992311Y-94964624D01*
X80227689Y-94964624D01*
X80460168Y-95001445D01*
G37*
G36*
X152460168Y-95001445D02*
G01*
X152684025Y-95074181D01*
X152893748Y-95181040D01*
X153084172Y-95319391D01*
X153250609Y-95485828D01*
X153388960Y-95676252D01*
X153495819Y-95885975D01*
X153568555Y-96109832D01*
X153605376Y-96342311D01*
X153605376Y-96577689D01*
X153568555Y-96810168D01*
X153495819Y-97034025D01*
X153388960Y-97243748D01*
X153250609Y-97434172D01*
X153084172Y-97600609D01*
X152893748Y-97738960D01*
X152684025Y-97845819D01*
X152460168Y-97918555D01*
X152227689Y-97955376D01*
X151992311Y-97955376D01*
X151759832Y-97918555D01*
X151535975Y-97845819D01*
X151326252Y-97738960D01*
X151135828Y-97600609D01*
X150969391Y-97434172D01*
X150831040Y-97243748D01*
X150724181Y-97034025D01*
X150651445Y-96810168D01*
X150614624Y-96577689D01*
X150614624Y-96342311D01*
X150651445Y-96109832D01*
X150724181Y-95885975D01*
X150831040Y-95676252D01*
X150969391Y-95485828D01*
X151135828Y-95319391D01*
X151326252Y-95181040D01*
X151535975Y-95074181D01*
X151759832Y-95001445D01*
X151992311Y-94964624D01*
X152227689Y-94964624D01*
X152460168Y-95001445D01*
G37*
G36*
X170460168Y-95001445D02*
G01*
X170684025Y-95074181D01*
X170893748Y-95181040D01*
X171084172Y-95319391D01*
X171250609Y-95485828D01*
X171388960Y-95676252D01*
X171495819Y-95885975D01*
X171568555Y-96109832D01*
X171605376Y-96342311D01*
X171605376Y-96577689D01*
X171568555Y-96810168D01*
X171495819Y-97034025D01*
X171388960Y-97243748D01*
X171250609Y-97434172D01*
X171084172Y-97600609D01*
X170893748Y-97738960D01*
X170684025Y-97845819D01*
X170460168Y-97918555D01*
X170227689Y-97955376D01*
X169992311Y-97955376D01*
X169759832Y-97918555D01*
X169535975Y-97845819D01*
X169326252Y-97738960D01*
X169135828Y-97600609D01*
X168969391Y-97434172D01*
X168831040Y-97243748D01*
X168724181Y-97034025D01*
X168651445Y-96810168D01*
X168614624Y-96577689D01*
X168614624Y-96342311D01*
X168651445Y-96109832D01*
X168724181Y-95885975D01*
X168831040Y-95676252D01*
X168969391Y-95485828D01*
X169135828Y-95319391D01*
X169326252Y-95181040D01*
X169535975Y-95074181D01*
X169759832Y-95001445D01*
X169992311Y-94964624D01*
X170227689Y-94964624D01*
X170460168Y-95001445D01*
G37*
G36*
X45842228Y-95436948D02*
G01*
X45987117Y-95496963D01*
X46117515Y-95584092D01*
X46228408Y-95694985D01*
X46315537Y-95825383D01*
X46375552Y-95970272D01*
X46406148Y-96124086D01*
X46406148Y-96280914D01*
X46375552Y-96434728D01*
X46315537Y-96579617D01*
X46228408Y-96710015D01*
X46117515Y-96820908D01*
X45987117Y-96908037D01*
X45842228Y-96968052D01*
X45688414Y-96998648D01*
X45531586Y-96998648D01*
X45377772Y-96968052D01*
X45232883Y-96908037D01*
X45102485Y-96820908D01*
X44991592Y-96710015D01*
X44904463Y-96579617D01*
X44844448Y-96434728D01*
X44813852Y-96280914D01*
X44813852Y-96124086D01*
X44844448Y-95970272D01*
X44904463Y-95825383D01*
X44991592Y-95694985D01*
X45102485Y-95584092D01*
X45232883Y-95496963D01*
X45377772Y-95436948D01*
X45531586Y-95406352D01*
X45688414Y-95406352D01*
X45842228Y-95436948D01*
G37*
G36*
X63622228Y-95436948D02*
G01*
X63767117Y-95496963D01*
X63897515Y-95584092D01*
X64008408Y-95694985D01*
X64095537Y-95825383D01*
X64155552Y-95970272D01*
X64186148Y-96124086D01*
X64186148Y-96280914D01*
X64155552Y-96434728D01*
X64095537Y-96579617D01*
X64008408Y-96710015D01*
X63897515Y-96820908D01*
X63767117Y-96908037D01*
X63622228Y-96968052D01*
X63468414Y-96998648D01*
X63311586Y-96998648D01*
X63157772Y-96968052D01*
X63012883Y-96908037D01*
X62882485Y-96820908D01*
X62771592Y-96710015D01*
X62684463Y-96579617D01*
X62624448Y-96434728D01*
X62593852Y-96280914D01*
X62593852Y-96124086D01*
X62624448Y-95970272D01*
X62684463Y-95825383D01*
X62771592Y-95694985D01*
X62882485Y-95584092D01*
X63012883Y-95496963D01*
X63157772Y-95436948D01*
X63311586Y-95406352D01*
X63468414Y-95406352D01*
X63622228Y-95436948D01*
G37*
G36*
X86810168Y-92461445D02*
G01*
X87034025Y-92534181D01*
X87243748Y-92641040D01*
X87434172Y-92779391D01*
X87600609Y-92945828D01*
X87738960Y-93136252D01*
X87845819Y-93345975D01*
X87918555Y-93569832D01*
X87955376Y-93802311D01*
X87955376Y-94037689D01*
X87918555Y-94270168D01*
X87845819Y-94494025D01*
X87738960Y-94703748D01*
X87600609Y-94894172D01*
X87434172Y-95060609D01*
X87243748Y-95198960D01*
X87034025Y-95305819D01*
X86810168Y-95378555D01*
X86577689Y-95415376D01*
X86342311Y-95415376D01*
X86109832Y-95378555D01*
X85885975Y-95305819D01*
X85676252Y-95198960D01*
X85485828Y-95060609D01*
X85319391Y-94894172D01*
X85181040Y-94703748D01*
X85074181Y-94494025D01*
X85001445Y-94270168D01*
X84964624Y-94037689D01*
X84964624Y-93802311D01*
X85001445Y-93569832D01*
X85074181Y-93345975D01*
X85181040Y-93136252D01*
X85319391Y-92945828D01*
X85485828Y-92779391D01*
X85676252Y-92641040D01*
X85885975Y-92534181D01*
X86109832Y-92461445D01*
X86342311Y-92424624D01*
X86577689Y-92424624D01*
X86810168Y-92461445D01*
G37*
G36*
X158810168Y-92461445D02*
G01*
X159034025Y-92534181D01*
X159243748Y-92641040D01*
X159434172Y-92779391D01*
X159600609Y-92945828D01*
X159738960Y-93136252D01*
X159845819Y-93345975D01*
X159918555Y-93569832D01*
X159955376Y-93802311D01*
X159955376Y-94037689D01*
X159918555Y-94270168D01*
X159845819Y-94494025D01*
X159738960Y-94703748D01*
X159600609Y-94894172D01*
X159434172Y-95060609D01*
X159243748Y-95198960D01*
X159034025Y-95305819D01*
X158810168Y-95378555D01*
X158577689Y-95415376D01*
X158342311Y-95415376D01*
X158109832Y-95378555D01*
X157885975Y-95305819D01*
X157676252Y-95198960D01*
X157485828Y-95060609D01*
X157319391Y-94894172D01*
X157181040Y-94703748D01*
X157074181Y-94494025D01*
X157001445Y-94270168D01*
X156964624Y-94037689D01*
X156964624Y-93802311D01*
X157001445Y-93569832D01*
X157074181Y-93345975D01*
X157181040Y-93136252D01*
X157319391Y-92945828D01*
X157485828Y-92779391D01*
X157676252Y-92641040D01*
X157885975Y-92534181D01*
X158109832Y-92461445D01*
X158342311Y-92424624D01*
X158577689Y-92424624D01*
X158810168Y-92461445D01*
G37*
G36*
X176810168Y-92461445D02*
G01*
X177034025Y-92534181D01*
X177243748Y-92641040D01*
X177434172Y-92779391D01*
X177600609Y-92945828D01*
X177738960Y-93136252D01*
X177845819Y-93345975D01*
X177918555Y-93569832D01*
X177955376Y-93802311D01*
X177955376Y-94037689D01*
X177918555Y-94270168D01*
X177845819Y-94494025D01*
X177738960Y-94703748D01*
X177600609Y-94894172D01*
X177434172Y-95060609D01*
X177243748Y-95198960D01*
X177034025Y-95305819D01*
X176810168Y-95378555D01*
X176577689Y-95415376D01*
X176342311Y-95415376D01*
X176109832Y-95378555D01*
X175885975Y-95305819D01*
X175676252Y-95198960D01*
X175485828Y-95060609D01*
X175319391Y-94894172D01*
X175181040Y-94703748D01*
X175074181Y-94494025D01*
X175001445Y-94270168D01*
X174964624Y-94037689D01*
X174964624Y-93802311D01*
X175001445Y-93569832D01*
X175074181Y-93345975D01*
X175181040Y-93136252D01*
X175319391Y-92945828D01*
X175485828Y-92779391D01*
X175676252Y-92641040D01*
X175885975Y-92534181D01*
X176109832Y-92461445D01*
X176342311Y-92424624D01*
X176577689Y-92424624D01*
X176810168Y-92461445D01*
G37*
G36*
X102308991Y-91044412D02*
G01*
X102560918Y-91111916D01*
X102801879Y-91211725D01*
X103027751Y-91342133D01*
X103234670Y-91500907D01*
X103419093Y-91685330D01*
X103577867Y-91892249D01*
X103708275Y-92118121D01*
X103808084Y-92359082D01*
X103875588Y-92611009D01*
X103909631Y-92869593D01*
X103909631Y-93130407D01*
X103875588Y-93388991D01*
X103808084Y-93640918D01*
X103708275Y-93881879D01*
X103577867Y-94107751D01*
X103419093Y-94314670D01*
X103234670Y-94499093D01*
X103027751Y-94657867D01*
X102801879Y-94788275D01*
X102560918Y-94888084D01*
X102308991Y-94955588D01*
X102050407Y-94989631D01*
X101789593Y-94989631D01*
X101531009Y-94955588D01*
X101279082Y-94888084D01*
X101038121Y-94788275D01*
X100812249Y-94657867D01*
X100605330Y-94499093D01*
X100420907Y-94314670D01*
X100262133Y-94107751D01*
X100131725Y-93881879D01*
X100031916Y-93640918D01*
X99964412Y-93388991D01*
X99930369Y-93130407D01*
X99930369Y-92869593D01*
X99964412Y-92611009D01*
X100031916Y-92359082D01*
X100131725Y-92118121D01*
X100262133Y-91892249D01*
X100420907Y-91685330D01*
X100605330Y-91500907D01*
X100812249Y-91342133D01*
X101038121Y-91211725D01*
X101279082Y-91111916D01*
X101531009Y-91044412D01*
X101789593Y-91010369D01*
X102050407Y-91010369D01*
X102308991Y-91044412D01*
G37*
G36*
X138388991Y-91044412D02*
G01*
X138640918Y-91111916D01*
X138881879Y-91211725D01*
X139107751Y-91342133D01*
X139314670Y-91500907D01*
X139499093Y-91685330D01*
X139657867Y-91892249D01*
X139788275Y-92118121D01*
X139888084Y-92359082D01*
X139955588Y-92611009D01*
X139989631Y-92869593D01*
X139989631Y-93130407D01*
X139955588Y-93388991D01*
X139888084Y-93640918D01*
X139788275Y-93881879D01*
X139657867Y-94107751D01*
X139499093Y-94314670D01*
X139314670Y-94499093D01*
X139107751Y-94657867D01*
X138881879Y-94788275D01*
X138640918Y-94888084D01*
X138388991Y-94955588D01*
X138130407Y-94989631D01*
X137869593Y-94989631D01*
X137611009Y-94955588D01*
X137359082Y-94888084D01*
X137118121Y-94788275D01*
X136892249Y-94657867D01*
X136685330Y-94499093D01*
X136500907Y-94314670D01*
X136342133Y-94107751D01*
X136211725Y-93881879D01*
X136111916Y-93640918D01*
X136044412Y-93388991D01*
X136010369Y-93130407D01*
X136010369Y-92869593D01*
X136044412Y-92611009D01*
X136111916Y-92359082D01*
X136211725Y-92118121D01*
X136342133Y-91892249D01*
X136500907Y-91685330D01*
X136685330Y-91500907D01*
X136892249Y-91342133D01*
X137118121Y-91211725D01*
X137359082Y-91111916D01*
X137611009Y-91044412D01*
X137869593Y-91010369D01*
X138130407Y-91010369D01*
X138388991Y-91044412D01*
G37*
G36*
X46213536Y-92858964D02*
G01*
X46215915Y-92861343D01*
X46243108Y-92861343D01*
X46249018Y-92861343D01*
X46250931Y-92861724D01*
X46256385Y-92863983D01*
X46256389Y-92863984D01*
X46317569Y-92889326D01*
X46323027Y-92891587D01*
X46324650Y-92892670D01*
X46379830Y-92947850D01*
X46380913Y-92949473D01*
X46410776Y-93021569D01*
X46411157Y-93023482D01*
X46411157Y-93056585D01*
X46413536Y-93058964D01*
X46415000Y-93062500D01*
X46415000Y-94262500D01*
X46413536Y-94266036D01*
X46411157Y-94268415D01*
X46411157Y-94301518D01*
X46410776Y-94303431D01*
X46380913Y-94375527D01*
X46379830Y-94377150D01*
X46324650Y-94432330D01*
X46323027Y-94433413D01*
X46250931Y-94463276D01*
X46249018Y-94463657D01*
X46215915Y-94463657D01*
X46213536Y-94466036D01*
X46210000Y-94467500D01*
X46198066Y-94467500D01*
X45621935Y-94467500D01*
X45610000Y-94467500D01*
X45606464Y-94466036D01*
X45605475Y-94463648D01*
X45534533Y-94463648D01*
X45531586Y-94463648D01*
X45530611Y-94463552D01*
X45376797Y-94432956D01*
X45375859Y-94432671D01*
X45230970Y-94372656D01*
X45230105Y-94372194D01*
X45135362Y-94308889D01*
X45102159Y-94286704D01*
X45102154Y-94286700D01*
X45099707Y-94285065D01*
X45098949Y-94284444D01*
X44988056Y-94173551D01*
X44987435Y-94172793D01*
X44985800Y-94170346D01*
X44985795Y-94170340D01*
X44901943Y-94044845D01*
X44901942Y-94044844D01*
X44900306Y-94042395D01*
X44899844Y-94041530D01*
X44898720Y-94038817D01*
X44898717Y-94038811D01*
X44840955Y-93899360D01*
X44840954Y-93899357D01*
X44839829Y-93896641D01*
X44839544Y-93895703D01*
X44838970Y-93892818D01*
X44838968Y-93892811D01*
X44809523Y-93744781D01*
X44809522Y-93744778D01*
X44808948Y-93741889D01*
X44808852Y-93740914D01*
X44808852Y-93584086D01*
X44808948Y-93583111D01*
X44817599Y-93539618D01*
X44838968Y-93432188D01*
X44838970Y-93432179D01*
X44839544Y-93429297D01*
X44839829Y-93428359D01*
X44840953Y-93425644D01*
X44840955Y-93425639D01*
X44898717Y-93286188D01*
X44898722Y-93286178D01*
X44899844Y-93283470D01*
X44900306Y-93282605D01*
X44901940Y-93280159D01*
X44901943Y-93280154D01*
X44985795Y-93154659D01*
X44985803Y-93154648D01*
X44987435Y-93152207D01*
X44988056Y-93151449D01*
X45098949Y-93040556D01*
X45099707Y-93039935D01*
X45102148Y-93038303D01*
X45102159Y-93038295D01*
X45227654Y-92954443D01*
X45227659Y-92954440D01*
X45230105Y-92952806D01*
X45230970Y-92952344D01*
X45233678Y-92951222D01*
X45233688Y-92951217D01*
X45373139Y-92893455D01*
X45373144Y-92893453D01*
X45375859Y-92892329D01*
X45376797Y-92892044D01*
X45379679Y-92891470D01*
X45379688Y-92891468D01*
X45527718Y-92862023D01*
X45527722Y-92862022D01*
X45530611Y-92861448D01*
X45531586Y-92861352D01*
X45605475Y-92861352D01*
X45606464Y-92858964D01*
X45610000Y-92857500D01*
X46210000Y-92857500D01*
X46213536Y-92858964D01*
G37*
G36*
X63393536Y-92858964D02*
G01*
X63394525Y-92861352D01*
X63465467Y-92861352D01*
X63468414Y-92861352D01*
X63469389Y-92861448D01*
X63472278Y-92862022D01*
X63472281Y-92862023D01*
X63620311Y-92891468D01*
X63620318Y-92891470D01*
X63623203Y-92892044D01*
X63624141Y-92892329D01*
X63626857Y-92893454D01*
X63626860Y-92893455D01*
X63766311Y-92951217D01*
X63766317Y-92951220D01*
X63769030Y-92952344D01*
X63769895Y-92952806D01*
X63772344Y-92954442D01*
X63772345Y-92954443D01*
X63897840Y-93038295D01*
X63897846Y-93038300D01*
X63900293Y-93039935D01*
X63901051Y-93040556D01*
X64011944Y-93151449D01*
X64012565Y-93152207D01*
X64014200Y-93154654D01*
X64014204Y-93154659D01*
X64071152Y-93239889D01*
X64099694Y-93282605D01*
X64100156Y-93283470D01*
X64160171Y-93428359D01*
X64160456Y-93429297D01*
X64191052Y-93583111D01*
X64191148Y-93584086D01*
X64191148Y-93740914D01*
X64191052Y-93741889D01*
X64160456Y-93895703D01*
X64160171Y-93896641D01*
X64100156Y-94041530D01*
X64099694Y-94042395D01*
X64012565Y-94172793D01*
X64011944Y-94173551D01*
X63901051Y-94284444D01*
X63900293Y-94285065D01*
X63769895Y-94372194D01*
X63769030Y-94372656D01*
X63624141Y-94432671D01*
X63623203Y-94432956D01*
X63469389Y-94463552D01*
X63468414Y-94463648D01*
X63394525Y-94463648D01*
X63393536Y-94466036D01*
X63390000Y-94467500D01*
X63378065Y-94467500D01*
X62801934Y-94467500D01*
X62790000Y-94467500D01*
X62786464Y-94466036D01*
X62784085Y-94463657D01*
X62756892Y-94463657D01*
X62750982Y-94463657D01*
X62749069Y-94463276D01*
X62676973Y-94433413D01*
X62675350Y-94432330D01*
X62620170Y-94377150D01*
X62619087Y-94375527D01*
X62593879Y-94314670D01*
X62591484Y-94308889D01*
X62591483Y-94308885D01*
X62589224Y-94303431D01*
X62588843Y-94301518D01*
X62588843Y-94268415D01*
X62586464Y-94266036D01*
X62585000Y-94262500D01*
X62585000Y-93062500D01*
X62586464Y-93058964D01*
X62588843Y-93056585D01*
X62588843Y-93023482D01*
X62589224Y-93021569D01*
X62591482Y-93016115D01*
X62591484Y-93016110D01*
X62616826Y-92954930D01*
X62616827Y-92954927D01*
X62619087Y-92949473D01*
X62620170Y-92947850D01*
X62675350Y-92892670D01*
X62676973Y-92891587D01*
X62682427Y-92889327D01*
X62682430Y-92889326D01*
X62743610Y-92863984D01*
X62743615Y-92863982D01*
X62749069Y-92861724D01*
X62750982Y-92861343D01*
X62784085Y-92861343D01*
X62786464Y-92858964D01*
X62790000Y-92857500D01*
X63390000Y-92857500D01*
X63393536Y-92858964D01*
G37*
G36*
X97087003Y-92185739D02*
G01*
X97241111Y-92249573D01*
X97379805Y-92342245D01*
X97497755Y-92460195D01*
X97590427Y-92598889D01*
X97654261Y-92752997D01*
X97686803Y-92916597D01*
X97686803Y-93083403D01*
X97654261Y-93247003D01*
X97590427Y-93401111D01*
X97497755Y-93539805D01*
X97379805Y-93657755D01*
X97241111Y-93750427D01*
X97087003Y-93814261D01*
X96923403Y-93846803D01*
X96756597Y-93846803D01*
X96592997Y-93814261D01*
X96438889Y-93750427D01*
X96300195Y-93657755D01*
X96182245Y-93539805D01*
X96089573Y-93401111D01*
X96025739Y-93247003D01*
X95993197Y-93083403D01*
X95993197Y-92916597D01*
X96025739Y-92752997D01*
X96089573Y-92598889D01*
X96182245Y-92460195D01*
X96300195Y-92342245D01*
X96438889Y-92249573D01*
X96592997Y-92185739D01*
X96756597Y-92153197D01*
X96923403Y-92153197D01*
X97087003Y-92185739D01*
G37*
G36*
X107247003Y-92185739D02*
G01*
X107401111Y-92249573D01*
X107539805Y-92342245D01*
X107657755Y-92460195D01*
X107750427Y-92598889D01*
X107814261Y-92752997D01*
X107846803Y-92916597D01*
X107846803Y-93083403D01*
X107814261Y-93247003D01*
X107750427Y-93401111D01*
X107657755Y-93539805D01*
X107539805Y-93657755D01*
X107401111Y-93750427D01*
X107247003Y-93814261D01*
X107083403Y-93846803D01*
X106916597Y-93846803D01*
X106752997Y-93814261D01*
X106598889Y-93750427D01*
X106460195Y-93657755D01*
X106342245Y-93539805D01*
X106249573Y-93401111D01*
X106185739Y-93247003D01*
X106153197Y-93083403D01*
X106153197Y-92916597D01*
X106185739Y-92752997D01*
X106249573Y-92598889D01*
X106342245Y-92460195D01*
X106460195Y-92342245D01*
X106598889Y-92249573D01*
X106752997Y-92185739D01*
X106916597Y-92153197D01*
X107083403Y-92153197D01*
X107247003Y-92185739D01*
G37*
G36*
X133167003Y-92185739D02*
G01*
X133321111Y-92249573D01*
X133459805Y-92342245D01*
X133577755Y-92460195D01*
X133670427Y-92598889D01*
X133734261Y-92752997D01*
X133766803Y-92916597D01*
X133766803Y-93083403D01*
X133734261Y-93247003D01*
X133670427Y-93401111D01*
X133577755Y-93539805D01*
X133459805Y-93657755D01*
X133321111Y-93750427D01*
X133167003Y-93814261D01*
X133003403Y-93846803D01*
X132836597Y-93846803D01*
X132672997Y-93814261D01*
X132518889Y-93750427D01*
X132380195Y-93657755D01*
X132262245Y-93539805D01*
X132169573Y-93401111D01*
X132105739Y-93247003D01*
X132073197Y-93083403D01*
X132073197Y-92916597D01*
X132105739Y-92752997D01*
X132169573Y-92598889D01*
X132262245Y-92460195D01*
X132380195Y-92342245D01*
X132518889Y-92249573D01*
X132672997Y-92185739D01*
X132836597Y-92153197D01*
X133003403Y-92153197D01*
X133167003Y-92185739D01*
G37*
G36*
X143327003Y-92185739D02*
G01*
X143481111Y-92249573D01*
X143619805Y-92342245D01*
X143737755Y-92460195D01*
X143830427Y-92598889D01*
X143894261Y-92752997D01*
X143926803Y-92916597D01*
X143926803Y-93083403D01*
X143894261Y-93247003D01*
X143830427Y-93401111D01*
X143737755Y-93539805D01*
X143619805Y-93657755D01*
X143481111Y-93750427D01*
X143327003Y-93814261D01*
X143163403Y-93846803D01*
X142996597Y-93846803D01*
X142832997Y-93814261D01*
X142678889Y-93750427D01*
X142540195Y-93657755D01*
X142422245Y-93539805D01*
X142329573Y-93401111D01*
X142265739Y-93247003D01*
X142233197Y-93083403D01*
X142233197Y-92916597D01*
X142265739Y-92752997D01*
X142329573Y-92598889D01*
X142422245Y-92460195D01*
X142540195Y-92342245D01*
X142678889Y-92249573D01*
X142832997Y-92185739D01*
X142996597Y-92153197D01*
X143163403Y-92153197D01*
X143327003Y-92185739D01*
G37*
G36*
X98460168Y-89001445D02*
G01*
X98684025Y-89074181D01*
X98893748Y-89181040D01*
X99084172Y-89319391D01*
X99250609Y-89485828D01*
X99388960Y-89676252D01*
X99495819Y-89885975D01*
X99568555Y-90109832D01*
X99605376Y-90342311D01*
X99605376Y-90577689D01*
X99568555Y-90810168D01*
X99495819Y-91034025D01*
X99388960Y-91243748D01*
X99250609Y-91434172D01*
X99084172Y-91600609D01*
X98893748Y-91738960D01*
X98684025Y-91845819D01*
X98460168Y-91918555D01*
X98227689Y-91955376D01*
X97992311Y-91955376D01*
X97759832Y-91918555D01*
X97535975Y-91845819D01*
X97326252Y-91738960D01*
X97135828Y-91600609D01*
X96969391Y-91434172D01*
X96831040Y-91243748D01*
X96724181Y-91034025D01*
X96651445Y-90810168D01*
X96614624Y-90577689D01*
X96614624Y-90342311D01*
X96651445Y-90109832D01*
X96724181Y-89885975D01*
X96831040Y-89676252D01*
X96969391Y-89485828D01*
X97135828Y-89319391D01*
X97326252Y-89181040D01*
X97535975Y-89074181D01*
X97759832Y-89001445D01*
X97992311Y-88964624D01*
X98227689Y-88964624D01*
X98460168Y-89001445D01*
G37*
G36*
X134540168Y-89001445D02*
G01*
X134764025Y-89074181D01*
X134973748Y-89181040D01*
X135164172Y-89319391D01*
X135330609Y-89485828D01*
X135468960Y-89676252D01*
X135575819Y-89885975D01*
X135648555Y-90109832D01*
X135685376Y-90342311D01*
X135685376Y-90577689D01*
X135648555Y-90810168D01*
X135575819Y-91034025D01*
X135468960Y-91243748D01*
X135330609Y-91434172D01*
X135164172Y-91600609D01*
X134973748Y-91738960D01*
X134764025Y-91845819D01*
X134540168Y-91918555D01*
X134307689Y-91955376D01*
X134072311Y-91955376D01*
X133839832Y-91918555D01*
X133615975Y-91845819D01*
X133406252Y-91738960D01*
X133215828Y-91600609D01*
X133049391Y-91434172D01*
X132911040Y-91243748D01*
X132804181Y-91034025D01*
X132731445Y-90810168D01*
X132694624Y-90577689D01*
X132694624Y-90342311D01*
X132731445Y-90109832D01*
X132804181Y-89885975D01*
X132911040Y-89676252D01*
X133049391Y-89485828D01*
X133215828Y-89319391D01*
X133406252Y-89181040D01*
X133615975Y-89074181D01*
X133839832Y-89001445D01*
X134072311Y-88964624D01*
X134307689Y-88964624D01*
X134540168Y-89001445D01*
G37*
G36*
X45842228Y-90356948D02*
G01*
X45987117Y-90416963D01*
X46117515Y-90504092D01*
X46228408Y-90614985D01*
X46315537Y-90745383D01*
X46375552Y-90890272D01*
X46406148Y-91044086D01*
X46406148Y-91200914D01*
X46375552Y-91354728D01*
X46315537Y-91499617D01*
X46228408Y-91630015D01*
X46117515Y-91740908D01*
X45987117Y-91828037D01*
X45842228Y-91888052D01*
X45688414Y-91918648D01*
X45531586Y-91918648D01*
X45377772Y-91888052D01*
X45232883Y-91828037D01*
X45102485Y-91740908D01*
X44991592Y-91630015D01*
X44904463Y-91499617D01*
X44844448Y-91354728D01*
X44813852Y-91200914D01*
X44813852Y-91044086D01*
X44844448Y-90890272D01*
X44904463Y-90745383D01*
X44991592Y-90614985D01*
X45102485Y-90504092D01*
X45232883Y-90416963D01*
X45377772Y-90356948D01*
X45531586Y-90326352D01*
X45688414Y-90326352D01*
X45842228Y-90356948D01*
G37*
G36*
X63622228Y-90356948D02*
G01*
X63767117Y-90416963D01*
X63897515Y-90504092D01*
X64008408Y-90614985D01*
X64095537Y-90745383D01*
X64155552Y-90890272D01*
X64186148Y-91044086D01*
X64186148Y-91200914D01*
X64155552Y-91354728D01*
X64095537Y-91499617D01*
X64008408Y-91630015D01*
X63897515Y-91740908D01*
X63767117Y-91828037D01*
X63622228Y-91888052D01*
X63468414Y-91918648D01*
X63311586Y-91918648D01*
X63157772Y-91888052D01*
X63012883Y-91828037D01*
X62882485Y-91740908D01*
X62771592Y-91630015D01*
X62684463Y-91499617D01*
X62624448Y-91354728D01*
X62593852Y-91200914D01*
X62593852Y-91044086D01*
X62624448Y-90890272D01*
X62684463Y-90745383D01*
X62771592Y-90614985D01*
X62882485Y-90504092D01*
X63012883Y-90416963D01*
X63157772Y-90356948D01*
X63311586Y-90326352D01*
X63468414Y-90326352D01*
X63622228Y-90356948D01*
G37*
G36*
X104810168Y-86461445D02*
G01*
X105034025Y-86534181D01*
X105243748Y-86641040D01*
X105434172Y-86779391D01*
X105600609Y-86945828D01*
X105738960Y-87136252D01*
X105845819Y-87345975D01*
X105918555Y-87569832D01*
X105955376Y-87802311D01*
X105955376Y-88037689D01*
X105918555Y-88270168D01*
X105845819Y-88494025D01*
X105738960Y-88703748D01*
X105600609Y-88894172D01*
X105434172Y-89060609D01*
X105243748Y-89198960D01*
X105034025Y-89305819D01*
X104810168Y-89378555D01*
X104577689Y-89415376D01*
X104342311Y-89415376D01*
X104109832Y-89378555D01*
X103885975Y-89305819D01*
X103676252Y-89198960D01*
X103485828Y-89060609D01*
X103319391Y-88894172D01*
X103181040Y-88703748D01*
X103074181Y-88494025D01*
X103001445Y-88270168D01*
X102964624Y-88037689D01*
X102964624Y-87802311D01*
X103001445Y-87569832D01*
X103074181Y-87345975D01*
X103181040Y-87136252D01*
X103319391Y-86945828D01*
X103485828Y-86779391D01*
X103676252Y-86641040D01*
X103885975Y-86534181D01*
X104109832Y-86461445D01*
X104342311Y-86424624D01*
X104577689Y-86424624D01*
X104810168Y-86461445D01*
G37*
G36*
X140890168Y-86461445D02*
G01*
X141114025Y-86534181D01*
X141323748Y-86641040D01*
X141514172Y-86779391D01*
X141680609Y-86945828D01*
X141818960Y-87136252D01*
X141925819Y-87345975D01*
X141998555Y-87569832D01*
X142035376Y-87802311D01*
X142035376Y-88037689D01*
X141998555Y-88270168D01*
X141925819Y-88494025D01*
X141818960Y-88703748D01*
X141680609Y-88894172D01*
X141514172Y-89060609D01*
X141323748Y-89198960D01*
X141114025Y-89305819D01*
X140890168Y-89378555D01*
X140657689Y-89415376D01*
X140422311Y-89415376D01*
X140189832Y-89378555D01*
X139965975Y-89305819D01*
X139756252Y-89198960D01*
X139565828Y-89060609D01*
X139399391Y-88894172D01*
X139261040Y-88703748D01*
X139154181Y-88494025D01*
X139081445Y-88270168D01*
X139044624Y-88037689D01*
X139044624Y-87802311D01*
X139081445Y-87569832D01*
X139154181Y-87345975D01*
X139261040Y-87136252D01*
X139399391Y-86945828D01*
X139565828Y-86779391D01*
X139756252Y-86641040D01*
X139965975Y-86534181D01*
X140189832Y-86461445D01*
X140422311Y-86424624D01*
X140657689Y-86424624D01*
X140890168Y-86461445D01*
G37*
G36*
X45842228Y-87816948D02*
G01*
X45987117Y-87876963D01*
X46117515Y-87964092D01*
X46228408Y-88074985D01*
X46315537Y-88205383D01*
X46375552Y-88350272D01*
X46406148Y-88504086D01*
X46406148Y-88660914D01*
X46375552Y-88814728D01*
X46315537Y-88959617D01*
X46228408Y-89090015D01*
X46117515Y-89200908D01*
X45987117Y-89288037D01*
X45842228Y-89348052D01*
X45688414Y-89378648D01*
X45531586Y-89378648D01*
X45377772Y-89348052D01*
X45232883Y-89288037D01*
X45102485Y-89200908D01*
X44991592Y-89090015D01*
X44904463Y-88959617D01*
X44844448Y-88814728D01*
X44813852Y-88660914D01*
X44813852Y-88504086D01*
X44844448Y-88350272D01*
X44904463Y-88205383D01*
X44991592Y-88074985D01*
X45102485Y-87964092D01*
X45232883Y-87876963D01*
X45377772Y-87816948D01*
X45531586Y-87786352D01*
X45688414Y-87786352D01*
X45842228Y-87816948D01*
G37*
G36*
X63622228Y-87816948D02*
G01*
X63767117Y-87876963D01*
X63897515Y-87964092D01*
X64008408Y-88074985D01*
X64095537Y-88205383D01*
X64155552Y-88350272D01*
X64186148Y-88504086D01*
X64186148Y-88660914D01*
X64155552Y-88814728D01*
X64095537Y-88959617D01*
X64008408Y-89090015D01*
X63897515Y-89200908D01*
X63767117Y-89288037D01*
X63622228Y-89348052D01*
X63468414Y-89378648D01*
X63311586Y-89378648D01*
X63157772Y-89348052D01*
X63012883Y-89288037D01*
X62882485Y-89200908D01*
X62771592Y-89090015D01*
X62684463Y-88959617D01*
X62624448Y-88814728D01*
X62593852Y-88660914D01*
X62593852Y-88504086D01*
X62624448Y-88350272D01*
X62684463Y-88205383D01*
X62771592Y-88074985D01*
X62882485Y-87964092D01*
X63012883Y-87876963D01*
X63157772Y-87816948D01*
X63311586Y-87786352D01*
X63468414Y-87786352D01*
X63622228Y-87816948D01*
G37*
G36*
X120308991Y-85044412D02*
G01*
X120560918Y-85111916D01*
X120801879Y-85211725D01*
X121027751Y-85342133D01*
X121234670Y-85500907D01*
X121419093Y-85685330D01*
X121577867Y-85892249D01*
X121708275Y-86118121D01*
X121808084Y-86359082D01*
X121875588Y-86611009D01*
X121909631Y-86869593D01*
X121909631Y-87130407D01*
X121875588Y-87388991D01*
X121808084Y-87640918D01*
X121708275Y-87881879D01*
X121577867Y-88107751D01*
X121419093Y-88314670D01*
X121234670Y-88499093D01*
X121027751Y-88657867D01*
X120801879Y-88788275D01*
X120560918Y-88888084D01*
X120308991Y-88955588D01*
X120050407Y-88989631D01*
X119789593Y-88989631D01*
X119531009Y-88955588D01*
X119279082Y-88888084D01*
X119038121Y-88788275D01*
X118812249Y-88657867D01*
X118605330Y-88499093D01*
X118420907Y-88314670D01*
X118262133Y-88107751D01*
X118131725Y-87881879D01*
X118031916Y-87640918D01*
X117964412Y-87388991D01*
X117930369Y-87130407D01*
X117930369Y-86869593D01*
X117964412Y-86611009D01*
X118031916Y-86359082D01*
X118131725Y-86118121D01*
X118262133Y-85892249D01*
X118420907Y-85685330D01*
X118605330Y-85500907D01*
X118812249Y-85342133D01*
X119038121Y-85211725D01*
X119279082Y-85111916D01*
X119531009Y-85044412D01*
X119789593Y-85010369D01*
X120050407Y-85010369D01*
X120308991Y-85044412D01*
G37*
G36*
X115087003Y-86185739D02*
G01*
X115241111Y-86249573D01*
X115379805Y-86342245D01*
X115497755Y-86460195D01*
X115590427Y-86598889D01*
X115654261Y-86752997D01*
X115686803Y-86916597D01*
X115686803Y-87083403D01*
X115654261Y-87247003D01*
X115590427Y-87401111D01*
X115497755Y-87539805D01*
X115379805Y-87657755D01*
X115241111Y-87750427D01*
X115087003Y-87814261D01*
X114923403Y-87846803D01*
X114756597Y-87846803D01*
X114592997Y-87814261D01*
X114438889Y-87750427D01*
X114300195Y-87657755D01*
X114182245Y-87539805D01*
X114089573Y-87401111D01*
X114025739Y-87247003D01*
X113993197Y-87083403D01*
X113993197Y-86916597D01*
X114025739Y-86752997D01*
X114089573Y-86598889D01*
X114182245Y-86460195D01*
X114300195Y-86342245D01*
X114438889Y-86249573D01*
X114592997Y-86185739D01*
X114756597Y-86153197D01*
X114923403Y-86153197D01*
X115087003Y-86185739D01*
G37*
G36*
X125247003Y-86185739D02*
G01*
X125401111Y-86249573D01*
X125539805Y-86342245D01*
X125657755Y-86460195D01*
X125750427Y-86598889D01*
X125814261Y-86752997D01*
X125846803Y-86916597D01*
X125846803Y-87083403D01*
X125814261Y-87247003D01*
X125750427Y-87401111D01*
X125657755Y-87539805D01*
X125539805Y-87657755D01*
X125401111Y-87750427D01*
X125247003Y-87814261D01*
X125083403Y-87846803D01*
X124916597Y-87846803D01*
X124752997Y-87814261D01*
X124598889Y-87750427D01*
X124460195Y-87657755D01*
X124342245Y-87539805D01*
X124249573Y-87401111D01*
X124185739Y-87247003D01*
X124153197Y-87083403D01*
X124153197Y-86916597D01*
X124185739Y-86752997D01*
X124249573Y-86598889D01*
X124342245Y-86460195D01*
X124460195Y-86342245D01*
X124598889Y-86249573D01*
X124752997Y-86185739D01*
X124916597Y-86153197D01*
X125083403Y-86153197D01*
X125247003Y-86185739D01*
G37*
G36*
X45842228Y-85276948D02*
G01*
X45987117Y-85336963D01*
X46117515Y-85424092D01*
X46228408Y-85534985D01*
X46315537Y-85665383D01*
X46375552Y-85810272D01*
X46406148Y-85964086D01*
X46406148Y-86120914D01*
X46375552Y-86274728D01*
X46315537Y-86419617D01*
X46228408Y-86550015D01*
X46117515Y-86660908D01*
X45987117Y-86748037D01*
X45842228Y-86808052D01*
X45688414Y-86838648D01*
X45531586Y-86838648D01*
X45377772Y-86808052D01*
X45232883Y-86748037D01*
X45102485Y-86660908D01*
X44991592Y-86550015D01*
X44904463Y-86419617D01*
X44844448Y-86274728D01*
X44813852Y-86120914D01*
X44813852Y-85964086D01*
X44844448Y-85810272D01*
X44904463Y-85665383D01*
X44991592Y-85534985D01*
X45102485Y-85424092D01*
X45232883Y-85336963D01*
X45377772Y-85276948D01*
X45531586Y-85246352D01*
X45688414Y-85246352D01*
X45842228Y-85276948D01*
G37*
G36*
X63622228Y-85276948D02*
G01*
X63767117Y-85336963D01*
X63897515Y-85424092D01*
X64008408Y-85534985D01*
X64095537Y-85665383D01*
X64155552Y-85810272D01*
X64186148Y-85964086D01*
X64186148Y-86120914D01*
X64155552Y-86274728D01*
X64095537Y-86419617D01*
X64008408Y-86550015D01*
X63897515Y-86660908D01*
X63767117Y-86748037D01*
X63622228Y-86808052D01*
X63468414Y-86838648D01*
X63311586Y-86838648D01*
X63157772Y-86808052D01*
X63012883Y-86748037D01*
X62882485Y-86660908D01*
X62771592Y-86550015D01*
X62684463Y-86419617D01*
X62624448Y-86274728D01*
X62593852Y-86120914D01*
X62593852Y-85964086D01*
X62624448Y-85810272D01*
X62684463Y-85665383D01*
X62771592Y-85534985D01*
X62882485Y-85424092D01*
X63012883Y-85336963D01*
X63157772Y-85276948D01*
X63311586Y-85246352D01*
X63468414Y-85246352D01*
X63622228Y-85276948D01*
G37*
G36*
X116460168Y-83001445D02*
G01*
X116684025Y-83074181D01*
X116893748Y-83181040D01*
X117084172Y-83319391D01*
X117250609Y-83485828D01*
X117388960Y-83676252D01*
X117495819Y-83885975D01*
X117568555Y-84109832D01*
X117605376Y-84342311D01*
X117605376Y-84577689D01*
X117568555Y-84810168D01*
X117495819Y-85034025D01*
X117388960Y-85243748D01*
X117250609Y-85434172D01*
X117084172Y-85600609D01*
X116893748Y-85738960D01*
X116684025Y-85845819D01*
X116460168Y-85918555D01*
X116227689Y-85955376D01*
X115992311Y-85955376D01*
X115759832Y-85918555D01*
X115535975Y-85845819D01*
X115326252Y-85738960D01*
X115135828Y-85600609D01*
X114969391Y-85434172D01*
X114831040Y-85243748D01*
X114724181Y-85034025D01*
X114651445Y-84810168D01*
X114614624Y-84577689D01*
X114614624Y-84342311D01*
X114651445Y-84109832D01*
X114724181Y-83885975D01*
X114831040Y-83676252D01*
X114969391Y-83485828D01*
X115135828Y-83319391D01*
X115326252Y-83181040D01*
X115535975Y-83074181D01*
X115759832Y-83001445D01*
X115992311Y-82964624D01*
X116227689Y-82964624D01*
X116460168Y-83001445D01*
G37*
G36*
X45842228Y-82736948D02*
G01*
X45987117Y-82796963D01*
X46117515Y-82884092D01*
X46228408Y-82994985D01*
X46315537Y-83125383D01*
X46375552Y-83270272D01*
X46406148Y-83424086D01*
X46406148Y-83580914D01*
X46375552Y-83734728D01*
X46315537Y-83879617D01*
X46228408Y-84010015D01*
X46117515Y-84120908D01*
X45987117Y-84208037D01*
X45842228Y-84268052D01*
X45688414Y-84298648D01*
X45531586Y-84298648D01*
X45377772Y-84268052D01*
X45232883Y-84208037D01*
X45102485Y-84120908D01*
X44991592Y-84010015D01*
X44904463Y-83879617D01*
X44844448Y-83734728D01*
X44813852Y-83580914D01*
X44813852Y-83424086D01*
X44844448Y-83270272D01*
X44904463Y-83125383D01*
X44991592Y-82994985D01*
X45102485Y-82884092D01*
X45232883Y-82796963D01*
X45377772Y-82736948D01*
X45531586Y-82706352D01*
X45688414Y-82706352D01*
X45842228Y-82736948D01*
G37*
G36*
X63622228Y-82736948D02*
G01*
X63767117Y-82796963D01*
X63897515Y-82884092D01*
X64008408Y-82994985D01*
X64095537Y-83125383D01*
X64155552Y-83270272D01*
X64186148Y-83424086D01*
X64186148Y-83580914D01*
X64155552Y-83734728D01*
X64095537Y-83879617D01*
X64008408Y-84010015D01*
X63897515Y-84120908D01*
X63767117Y-84208037D01*
X63622228Y-84268052D01*
X63468414Y-84298648D01*
X63311586Y-84298648D01*
X63157772Y-84268052D01*
X63012883Y-84208037D01*
X62882485Y-84120908D01*
X62771592Y-84010015D01*
X62684463Y-83879617D01*
X62624448Y-83734728D01*
X62593852Y-83580914D01*
X62593852Y-83424086D01*
X62624448Y-83270272D01*
X62684463Y-83125383D01*
X62771592Y-82994985D01*
X62882485Y-82884092D01*
X63012883Y-82796963D01*
X63157772Y-82736948D01*
X63311586Y-82706352D01*
X63468414Y-82706352D01*
X63622228Y-82736948D01*
G37*
G36*
X122810168Y-80461445D02*
G01*
X123034025Y-80534181D01*
X123243748Y-80641040D01*
X123434172Y-80779391D01*
X123600609Y-80945828D01*
X123738960Y-81136252D01*
X123845819Y-81345975D01*
X123918555Y-81569832D01*
X123955376Y-81802311D01*
X123955376Y-82037689D01*
X123918555Y-82270168D01*
X123845819Y-82494025D01*
X123738960Y-82703748D01*
X123600609Y-82894172D01*
X123434172Y-83060609D01*
X123243748Y-83198960D01*
X123034025Y-83305819D01*
X122810168Y-83378555D01*
X122577689Y-83415376D01*
X122342311Y-83415376D01*
X122109832Y-83378555D01*
X121885975Y-83305819D01*
X121676252Y-83198960D01*
X121485828Y-83060609D01*
X121319391Y-82894172D01*
X121181040Y-82703748D01*
X121074181Y-82494025D01*
X121001445Y-82270168D01*
X120964624Y-82037689D01*
X120964624Y-81802311D01*
X121001445Y-81569832D01*
X121074181Y-81345975D01*
X121181040Y-81136252D01*
X121319391Y-80945828D01*
X121485828Y-80779391D01*
X121676252Y-80641040D01*
X121885975Y-80534181D01*
X122109832Y-80461445D01*
X122342311Y-80424624D01*
X122577689Y-80424624D01*
X122810168Y-80461445D01*
G37*
G36*
X84308991Y-79044412D02*
G01*
X84560918Y-79111916D01*
X84801879Y-79211725D01*
X85027751Y-79342133D01*
X85234670Y-79500907D01*
X85419093Y-79685330D01*
X85577867Y-79892249D01*
X85708275Y-80118121D01*
X85808084Y-80359082D01*
X85875588Y-80611009D01*
X85909631Y-80869593D01*
X85909631Y-81130407D01*
X85875588Y-81388991D01*
X85808084Y-81640918D01*
X85708275Y-81881879D01*
X85577867Y-82107751D01*
X85419093Y-82314670D01*
X85234670Y-82499093D01*
X85027751Y-82657867D01*
X84801879Y-82788275D01*
X84560918Y-82888084D01*
X84308991Y-82955588D01*
X84050407Y-82989631D01*
X83789593Y-82989631D01*
X83531009Y-82955588D01*
X83279082Y-82888084D01*
X83038121Y-82788275D01*
X82812249Y-82657867D01*
X82605330Y-82499093D01*
X82420907Y-82314670D01*
X82262133Y-82107751D01*
X82131725Y-81881879D01*
X82031916Y-81640918D01*
X81964412Y-81388991D01*
X81930369Y-81130407D01*
X81930369Y-80869593D01*
X81964412Y-80611009D01*
X82031916Y-80359082D01*
X82131725Y-80118121D01*
X82262133Y-79892249D01*
X82420907Y-79685330D01*
X82605330Y-79500907D01*
X82812249Y-79342133D01*
X83038121Y-79211725D01*
X83279082Y-79111916D01*
X83531009Y-79044412D01*
X83789593Y-79010369D01*
X84050407Y-79010369D01*
X84308991Y-79044412D01*
G37*
G36*
X156308991Y-79044412D02*
G01*
X156560918Y-79111916D01*
X156801879Y-79211725D01*
X157027751Y-79342133D01*
X157234670Y-79500907D01*
X157419093Y-79685330D01*
X157577867Y-79892249D01*
X157708275Y-80118121D01*
X157808084Y-80359082D01*
X157875588Y-80611009D01*
X157909631Y-80869593D01*
X157909631Y-81130407D01*
X157875588Y-81388991D01*
X157808084Y-81640918D01*
X157708275Y-81881879D01*
X157577867Y-82107751D01*
X157419093Y-82314670D01*
X157234670Y-82499093D01*
X157027751Y-82657867D01*
X156801879Y-82788275D01*
X156560918Y-82888084D01*
X156308991Y-82955588D01*
X156050407Y-82989631D01*
X155789593Y-82989631D01*
X155531009Y-82955588D01*
X155279082Y-82888084D01*
X155038121Y-82788275D01*
X154812249Y-82657867D01*
X154605330Y-82499093D01*
X154420907Y-82314670D01*
X154262133Y-82107751D01*
X154131725Y-81881879D01*
X154031916Y-81640918D01*
X153964412Y-81388991D01*
X153930369Y-81130407D01*
X153930369Y-80869593D01*
X153964412Y-80611009D01*
X154031916Y-80359082D01*
X154131725Y-80118121D01*
X154262133Y-79892249D01*
X154420907Y-79685330D01*
X154605330Y-79500907D01*
X154812249Y-79342133D01*
X155038121Y-79211725D01*
X155279082Y-79111916D01*
X155531009Y-79044412D01*
X155789593Y-79010369D01*
X156050407Y-79010369D01*
X156308991Y-79044412D01*
G37*
G36*
X174308991Y-79044412D02*
G01*
X174560918Y-79111916D01*
X174801879Y-79211725D01*
X175027751Y-79342133D01*
X175234670Y-79500907D01*
X175419093Y-79685330D01*
X175577867Y-79892249D01*
X175708275Y-80118121D01*
X175808084Y-80359082D01*
X175875588Y-80611009D01*
X175909631Y-80869593D01*
X175909631Y-81130407D01*
X175875588Y-81388991D01*
X175808084Y-81640918D01*
X175708275Y-81881879D01*
X175577867Y-82107751D01*
X175419093Y-82314670D01*
X175234670Y-82499093D01*
X175027751Y-82657867D01*
X174801879Y-82788275D01*
X174560918Y-82888084D01*
X174308991Y-82955588D01*
X174050407Y-82989631D01*
X173789593Y-82989631D01*
X173531009Y-82955588D01*
X173279082Y-82888084D01*
X173038121Y-82788275D01*
X172812249Y-82657867D01*
X172605330Y-82499093D01*
X172420907Y-82314670D01*
X172262133Y-82107751D01*
X172131725Y-81881879D01*
X172031916Y-81640918D01*
X171964412Y-81388991D01*
X171930369Y-81130407D01*
X171930369Y-80869593D01*
X171964412Y-80611009D01*
X172031916Y-80359082D01*
X172131725Y-80118121D01*
X172262133Y-79892249D01*
X172420907Y-79685330D01*
X172605330Y-79500907D01*
X172812249Y-79342133D01*
X173038121Y-79211725D01*
X173279082Y-79111916D01*
X173531009Y-79044412D01*
X173789593Y-79010369D01*
X174050407Y-79010369D01*
X174308991Y-79044412D01*
G37*
G36*
X79087003Y-80185739D02*
G01*
X79241111Y-80249573D01*
X79379805Y-80342245D01*
X79497755Y-80460195D01*
X79590427Y-80598889D01*
X79654261Y-80752997D01*
X79686803Y-80916597D01*
X79686803Y-81083403D01*
X79654261Y-81247003D01*
X79590427Y-81401111D01*
X79497755Y-81539805D01*
X79379805Y-81657755D01*
X79241111Y-81750427D01*
X79087003Y-81814261D01*
X78923403Y-81846803D01*
X78756597Y-81846803D01*
X78592997Y-81814261D01*
X78438889Y-81750427D01*
X78300195Y-81657755D01*
X78182245Y-81539805D01*
X78089573Y-81401111D01*
X78025739Y-81247003D01*
X77993197Y-81083403D01*
X77993197Y-80916597D01*
X78025739Y-80752997D01*
X78089573Y-80598889D01*
X78182245Y-80460195D01*
X78300195Y-80342245D01*
X78438889Y-80249573D01*
X78592997Y-80185739D01*
X78756597Y-80153197D01*
X78923403Y-80153197D01*
X79087003Y-80185739D01*
G37*
G36*
X89247003Y-80185739D02*
G01*
X89401111Y-80249573D01*
X89539805Y-80342245D01*
X89657755Y-80460195D01*
X89750427Y-80598889D01*
X89814261Y-80752997D01*
X89846803Y-80916597D01*
X89846803Y-81083403D01*
X89814261Y-81247003D01*
X89750427Y-81401111D01*
X89657755Y-81539805D01*
X89539805Y-81657755D01*
X89401111Y-81750427D01*
X89247003Y-81814261D01*
X89083403Y-81846803D01*
X88916597Y-81846803D01*
X88752997Y-81814261D01*
X88598889Y-81750427D01*
X88460195Y-81657755D01*
X88342245Y-81539805D01*
X88249573Y-81401111D01*
X88185739Y-81247003D01*
X88153197Y-81083403D01*
X88153197Y-80916597D01*
X88185739Y-80752997D01*
X88249573Y-80598889D01*
X88342245Y-80460195D01*
X88460195Y-80342245D01*
X88598889Y-80249573D01*
X88752997Y-80185739D01*
X88916597Y-80153197D01*
X89083403Y-80153197D01*
X89247003Y-80185739D01*
G37*
G36*
X151087003Y-80185739D02*
G01*
X151241111Y-80249573D01*
X151379805Y-80342245D01*
X151497755Y-80460195D01*
X151590427Y-80598889D01*
X151654261Y-80752997D01*
X151686803Y-80916597D01*
X151686803Y-81083403D01*
X151654261Y-81247003D01*
X151590427Y-81401111D01*
X151497755Y-81539805D01*
X151379805Y-81657755D01*
X151241111Y-81750427D01*
X151087003Y-81814261D01*
X150923403Y-81846803D01*
X150756597Y-81846803D01*
X150592997Y-81814261D01*
X150438889Y-81750427D01*
X150300195Y-81657755D01*
X150182245Y-81539805D01*
X150089573Y-81401111D01*
X150025739Y-81247003D01*
X149993197Y-81083403D01*
X149993197Y-80916597D01*
X150025739Y-80752997D01*
X150089573Y-80598889D01*
X150182245Y-80460195D01*
X150300195Y-80342245D01*
X150438889Y-80249573D01*
X150592997Y-80185739D01*
X150756597Y-80153197D01*
X150923403Y-80153197D01*
X151087003Y-80185739D01*
G37*
G36*
X161247003Y-80185739D02*
G01*
X161401111Y-80249573D01*
X161539805Y-80342245D01*
X161657755Y-80460195D01*
X161750427Y-80598889D01*
X161814261Y-80752997D01*
X161846803Y-80916597D01*
X161846803Y-81083403D01*
X161814261Y-81247003D01*
X161750427Y-81401111D01*
X161657755Y-81539805D01*
X161539805Y-81657755D01*
X161401111Y-81750427D01*
X161247003Y-81814261D01*
X161083403Y-81846803D01*
X160916597Y-81846803D01*
X160752997Y-81814261D01*
X160598889Y-81750427D01*
X160460195Y-81657755D01*
X160342245Y-81539805D01*
X160249573Y-81401111D01*
X160185739Y-81247003D01*
X160153197Y-81083403D01*
X160153197Y-80916597D01*
X160185739Y-80752997D01*
X160249573Y-80598889D01*
X160342245Y-80460195D01*
X160460195Y-80342245D01*
X160598889Y-80249573D01*
X160752997Y-80185739D01*
X160916597Y-80153197D01*
X161083403Y-80153197D01*
X161247003Y-80185739D01*
G37*
G36*
X169087003Y-80185739D02*
G01*
X169241111Y-80249573D01*
X169379805Y-80342245D01*
X169497755Y-80460195D01*
X169590427Y-80598889D01*
X169654261Y-80752997D01*
X169686803Y-80916597D01*
X169686803Y-81083403D01*
X169654261Y-81247003D01*
X169590427Y-81401111D01*
X169497755Y-81539805D01*
X169379805Y-81657755D01*
X169241111Y-81750427D01*
X169087003Y-81814261D01*
X168923403Y-81846803D01*
X168756597Y-81846803D01*
X168592997Y-81814261D01*
X168438889Y-81750427D01*
X168300195Y-81657755D01*
X168182245Y-81539805D01*
X168089573Y-81401111D01*
X168025739Y-81247003D01*
X167993197Y-81083403D01*
X167993197Y-80916597D01*
X168025739Y-80752997D01*
X168089573Y-80598889D01*
X168182245Y-80460195D01*
X168300195Y-80342245D01*
X168438889Y-80249573D01*
X168592997Y-80185739D01*
X168756597Y-80153197D01*
X168923403Y-80153197D01*
X169087003Y-80185739D01*
G37*
G36*
X179247003Y-80185739D02*
G01*
X179401111Y-80249573D01*
X179539805Y-80342245D01*
X179657755Y-80460195D01*
X179750427Y-80598889D01*
X179814261Y-80752997D01*
X179846803Y-80916597D01*
X179846803Y-81083403D01*
X179814261Y-81247003D01*
X179750427Y-81401111D01*
X179657755Y-81539805D01*
X179539805Y-81657755D01*
X179401111Y-81750427D01*
X179247003Y-81814261D01*
X179083403Y-81846803D01*
X178916597Y-81846803D01*
X178752997Y-81814261D01*
X178598889Y-81750427D01*
X178460195Y-81657755D01*
X178342245Y-81539805D01*
X178249573Y-81401111D01*
X178185739Y-81247003D01*
X178153197Y-81083403D01*
X178153197Y-80916597D01*
X178185739Y-80752997D01*
X178249573Y-80598889D01*
X178342245Y-80460195D01*
X178460195Y-80342245D01*
X178598889Y-80249573D01*
X178752997Y-80185739D01*
X178916597Y-80153197D01*
X179083403Y-80153197D01*
X179247003Y-80185739D01*
G37*
G36*
X46213536Y-80158964D02*
G01*
X46215915Y-80161343D01*
X46243108Y-80161343D01*
X46249018Y-80161343D01*
X46250931Y-80161724D01*
X46256385Y-80163983D01*
X46256389Y-80163984D01*
X46317569Y-80189326D01*
X46323027Y-80191587D01*
X46324650Y-80192670D01*
X46379830Y-80247850D01*
X46380913Y-80249473D01*
X46410776Y-80321569D01*
X46411157Y-80323482D01*
X46411157Y-80356585D01*
X46413536Y-80358964D01*
X46415000Y-80362500D01*
X46415000Y-81562500D01*
X46413536Y-81566036D01*
X46411157Y-81568415D01*
X46411157Y-81601518D01*
X46410776Y-81603431D01*
X46380913Y-81675527D01*
X46379830Y-81677150D01*
X46324650Y-81732330D01*
X46323027Y-81733413D01*
X46250931Y-81763276D01*
X46249018Y-81763657D01*
X46215915Y-81763657D01*
X46213536Y-81766036D01*
X46210000Y-81767500D01*
X46198066Y-81767500D01*
X45621935Y-81767500D01*
X45610000Y-81767500D01*
X45606464Y-81766036D01*
X45605475Y-81763648D01*
X45534533Y-81763648D01*
X45531586Y-81763648D01*
X45530611Y-81763552D01*
X45376797Y-81732956D01*
X45375859Y-81732671D01*
X45230970Y-81672656D01*
X45230105Y-81672194D01*
X45135362Y-81608889D01*
X45102159Y-81586704D01*
X45102154Y-81586700D01*
X45099707Y-81585065D01*
X45098949Y-81584444D01*
X44988056Y-81473551D01*
X44987435Y-81472793D01*
X44985800Y-81470346D01*
X44985795Y-81470340D01*
X44901943Y-81344845D01*
X44901942Y-81344844D01*
X44900306Y-81342395D01*
X44899844Y-81341530D01*
X44898720Y-81338817D01*
X44898717Y-81338811D01*
X44840955Y-81199360D01*
X44840954Y-81199357D01*
X44839829Y-81196641D01*
X44839544Y-81195703D01*
X44838970Y-81192818D01*
X44838968Y-81192811D01*
X44809523Y-81044781D01*
X44809522Y-81044778D01*
X44808948Y-81041889D01*
X44808852Y-81040914D01*
X44808852Y-80884086D01*
X44808948Y-80883111D01*
X44809523Y-80880218D01*
X44838968Y-80732188D01*
X44838970Y-80732179D01*
X44839544Y-80729297D01*
X44839829Y-80728359D01*
X44840953Y-80725644D01*
X44840955Y-80725639D01*
X44898717Y-80586188D01*
X44898722Y-80586178D01*
X44899844Y-80583470D01*
X44900306Y-80582605D01*
X44901940Y-80580159D01*
X44901943Y-80580154D01*
X44985795Y-80454659D01*
X44985803Y-80454648D01*
X44987435Y-80452207D01*
X44988056Y-80451449D01*
X45098949Y-80340556D01*
X45099707Y-80339935D01*
X45102148Y-80338303D01*
X45102159Y-80338295D01*
X45227654Y-80254443D01*
X45227659Y-80254440D01*
X45230105Y-80252806D01*
X45230970Y-80252344D01*
X45233678Y-80251222D01*
X45233688Y-80251217D01*
X45373139Y-80193455D01*
X45373144Y-80193453D01*
X45375859Y-80192329D01*
X45376797Y-80192044D01*
X45379679Y-80191470D01*
X45379688Y-80191468D01*
X45527718Y-80162023D01*
X45527722Y-80162022D01*
X45530611Y-80161448D01*
X45531586Y-80161352D01*
X45605475Y-80161352D01*
X45606464Y-80158964D01*
X45610000Y-80157500D01*
X46210000Y-80157500D01*
X46213536Y-80158964D01*
G37*
G36*
X63393536Y-80158964D02*
G01*
X63394525Y-80161352D01*
X63465467Y-80161352D01*
X63468414Y-80161352D01*
X63469389Y-80161448D01*
X63472278Y-80162022D01*
X63472281Y-80162023D01*
X63620311Y-80191468D01*
X63620318Y-80191470D01*
X63623203Y-80192044D01*
X63624141Y-80192329D01*
X63626857Y-80193454D01*
X63626860Y-80193455D01*
X63766311Y-80251217D01*
X63766317Y-80251220D01*
X63769030Y-80252344D01*
X63769895Y-80252806D01*
X63772344Y-80254442D01*
X63772345Y-80254443D01*
X63897840Y-80338295D01*
X63897846Y-80338300D01*
X63900293Y-80339935D01*
X63901051Y-80340556D01*
X64011944Y-80451449D01*
X64012565Y-80452207D01*
X64014200Y-80454654D01*
X64014204Y-80454659D01*
X64018027Y-80460381D01*
X64099694Y-80582605D01*
X64100156Y-80583470D01*
X64160171Y-80728359D01*
X64160456Y-80729297D01*
X64191052Y-80883111D01*
X64191148Y-80884086D01*
X64191148Y-81040914D01*
X64191052Y-81041889D01*
X64160456Y-81195703D01*
X64160171Y-81196641D01*
X64100156Y-81341530D01*
X64099694Y-81342395D01*
X64012565Y-81472793D01*
X64011944Y-81473551D01*
X63901051Y-81584444D01*
X63900293Y-81585065D01*
X63769895Y-81672194D01*
X63769030Y-81672656D01*
X63624141Y-81732671D01*
X63623203Y-81732956D01*
X63469389Y-81763552D01*
X63468414Y-81763648D01*
X63394525Y-81763648D01*
X63393536Y-81766036D01*
X63390000Y-81767500D01*
X63378065Y-81767500D01*
X62801934Y-81767500D01*
X62790000Y-81767500D01*
X62786464Y-81766036D01*
X62784085Y-81763657D01*
X62756892Y-81763657D01*
X62750982Y-81763657D01*
X62749069Y-81763276D01*
X62676973Y-81733413D01*
X62675350Y-81732330D01*
X62620170Y-81677150D01*
X62619087Y-81675527D01*
X62616826Y-81670069D01*
X62591484Y-81608889D01*
X62591483Y-81608885D01*
X62589224Y-81603431D01*
X62588843Y-81601518D01*
X62588843Y-81568415D01*
X62586464Y-81566036D01*
X62585000Y-81562500D01*
X62585000Y-80362500D01*
X62586464Y-80358964D01*
X62588843Y-80356585D01*
X62588843Y-80323482D01*
X62589224Y-80321569D01*
X62591482Y-80316115D01*
X62591484Y-80316110D01*
X62616826Y-80254930D01*
X62616827Y-80254927D01*
X62619087Y-80249473D01*
X62620170Y-80247850D01*
X62675350Y-80192670D01*
X62676973Y-80191587D01*
X62682427Y-80189327D01*
X62682430Y-80189326D01*
X62743610Y-80163984D01*
X62743615Y-80163982D01*
X62749069Y-80161724D01*
X62750982Y-80161343D01*
X62784085Y-80161343D01*
X62786464Y-80158964D01*
X62790000Y-80157500D01*
X63390000Y-80157500D01*
X63393536Y-80158964D01*
G37*
G36*
X80460168Y-77001445D02*
G01*
X80684025Y-77074181D01*
X80893748Y-77181040D01*
X81084172Y-77319391D01*
X81250609Y-77485828D01*
X81388960Y-77676252D01*
X81495819Y-77885975D01*
X81568555Y-78109832D01*
X81605376Y-78342311D01*
X81605376Y-78577689D01*
X81568555Y-78810168D01*
X81495819Y-79034025D01*
X81388960Y-79243748D01*
X81250609Y-79434172D01*
X81084172Y-79600609D01*
X80893748Y-79738960D01*
X80684025Y-79845819D01*
X80460168Y-79918555D01*
X80227689Y-79955376D01*
X79992311Y-79955376D01*
X79759832Y-79918555D01*
X79535975Y-79845819D01*
X79326252Y-79738960D01*
X79135828Y-79600609D01*
X78969391Y-79434172D01*
X78831040Y-79243748D01*
X78724181Y-79034025D01*
X78651445Y-78810168D01*
X78614624Y-78577689D01*
X78614624Y-78342311D01*
X78651445Y-78109832D01*
X78724181Y-77885975D01*
X78831040Y-77676252D01*
X78969391Y-77485828D01*
X79135828Y-77319391D01*
X79326252Y-77181040D01*
X79535975Y-77074181D01*
X79759832Y-77001445D01*
X79992311Y-76964624D01*
X80227689Y-76964624D01*
X80460168Y-77001445D01*
G37*
G36*
X152460168Y-77001445D02*
G01*
X152684025Y-77074181D01*
X152893748Y-77181040D01*
X153084172Y-77319391D01*
X153250609Y-77485828D01*
X153388960Y-77676252D01*
X153495819Y-77885975D01*
X153568555Y-78109832D01*
X153605376Y-78342311D01*
X153605376Y-78577689D01*
X153568555Y-78810168D01*
X153495819Y-79034025D01*
X153388960Y-79243748D01*
X153250609Y-79434172D01*
X153084172Y-79600609D01*
X152893748Y-79738960D01*
X152684025Y-79845819D01*
X152460168Y-79918555D01*
X152227689Y-79955376D01*
X151992311Y-79955376D01*
X151759832Y-79918555D01*
X151535975Y-79845819D01*
X151326252Y-79738960D01*
X151135828Y-79600609D01*
X150969391Y-79434172D01*
X150831040Y-79243748D01*
X150724181Y-79034025D01*
X150651445Y-78810168D01*
X150614624Y-78577689D01*
X150614624Y-78342311D01*
X150651445Y-78109832D01*
X150724181Y-77885975D01*
X150831040Y-77676252D01*
X150969391Y-77485828D01*
X151135828Y-77319391D01*
X151326252Y-77181040D01*
X151535975Y-77074181D01*
X151759832Y-77001445D01*
X151992311Y-76964624D01*
X152227689Y-76964624D01*
X152460168Y-77001445D01*
G37*
G36*
X170460168Y-77001445D02*
G01*
X170684025Y-77074181D01*
X170893748Y-77181040D01*
X171084172Y-77319391D01*
X171250609Y-77485828D01*
X171388960Y-77676252D01*
X171495819Y-77885975D01*
X171568555Y-78109832D01*
X171605376Y-78342311D01*
X171605376Y-78577689D01*
X171568555Y-78810168D01*
X171495819Y-79034025D01*
X171388960Y-79243748D01*
X171250609Y-79434172D01*
X171084172Y-79600609D01*
X170893748Y-79738960D01*
X170684025Y-79845819D01*
X170460168Y-79918555D01*
X170227689Y-79955376D01*
X169992311Y-79955376D01*
X169759832Y-79918555D01*
X169535975Y-79845819D01*
X169326252Y-79738960D01*
X169135828Y-79600609D01*
X168969391Y-79434172D01*
X168831040Y-79243748D01*
X168724181Y-79034025D01*
X168651445Y-78810168D01*
X168614624Y-78577689D01*
X168614624Y-78342311D01*
X168651445Y-78109832D01*
X168724181Y-77885975D01*
X168831040Y-77676252D01*
X168969391Y-77485828D01*
X169135828Y-77319391D01*
X169326252Y-77181040D01*
X169535975Y-77074181D01*
X169759832Y-77001445D01*
X169992311Y-76964624D01*
X170227689Y-76964624D01*
X170460168Y-77001445D01*
G37*
G36*
X45842228Y-77656948D02*
G01*
X45987117Y-77716963D01*
X46117515Y-77804092D01*
X46228408Y-77914985D01*
X46315537Y-78045383D01*
X46375552Y-78190272D01*
X46406148Y-78344086D01*
X46406148Y-78500914D01*
X46375552Y-78654728D01*
X46315537Y-78799617D01*
X46228408Y-78930015D01*
X46117515Y-79040908D01*
X45987117Y-79128037D01*
X45842228Y-79188052D01*
X45688414Y-79218648D01*
X45531586Y-79218648D01*
X45377772Y-79188052D01*
X45232883Y-79128037D01*
X45102485Y-79040908D01*
X44991592Y-78930015D01*
X44904463Y-78799617D01*
X44844448Y-78654728D01*
X44813852Y-78500914D01*
X44813852Y-78344086D01*
X44844448Y-78190272D01*
X44904463Y-78045383D01*
X44991592Y-77914985D01*
X45102485Y-77804092D01*
X45232883Y-77716963D01*
X45377772Y-77656948D01*
X45531586Y-77626352D01*
X45688414Y-77626352D01*
X45842228Y-77656948D01*
G37*
G36*
X63622228Y-77656948D02*
G01*
X63767117Y-77716963D01*
X63897515Y-77804092D01*
X64008408Y-77914985D01*
X64095537Y-78045383D01*
X64155552Y-78190272D01*
X64186148Y-78344086D01*
X64186148Y-78500914D01*
X64155552Y-78654728D01*
X64095537Y-78799617D01*
X64008408Y-78930015D01*
X63897515Y-79040908D01*
X63767117Y-79128037D01*
X63622228Y-79188052D01*
X63468414Y-79218648D01*
X63311586Y-79218648D01*
X63157772Y-79188052D01*
X63012883Y-79128037D01*
X62882485Y-79040908D01*
X62771592Y-78930015D01*
X62684463Y-78799617D01*
X62624448Y-78654728D01*
X62593852Y-78500914D01*
X62593852Y-78344086D01*
X62624448Y-78190272D01*
X62684463Y-78045383D01*
X62771592Y-77914985D01*
X62882485Y-77804092D01*
X63012883Y-77716963D01*
X63157772Y-77656948D01*
X63311586Y-77626352D01*
X63468414Y-77626352D01*
X63622228Y-77656948D01*
G37*
G36*
X86810168Y-74461445D02*
G01*
X87034025Y-74534181D01*
X87243748Y-74641040D01*
X87434172Y-74779391D01*
X87600609Y-74945828D01*
X87738960Y-75136252D01*
X87845819Y-75345975D01*
X87918555Y-75569832D01*
X87955376Y-75802311D01*
X87955376Y-76037689D01*
X87918555Y-76270168D01*
X87845819Y-76494025D01*
X87738960Y-76703748D01*
X87600609Y-76894172D01*
X87434172Y-77060609D01*
X87243748Y-77198960D01*
X87034025Y-77305819D01*
X86810168Y-77378555D01*
X86577689Y-77415376D01*
X86342311Y-77415376D01*
X86109832Y-77378555D01*
X85885975Y-77305819D01*
X85676252Y-77198960D01*
X85485828Y-77060609D01*
X85319391Y-76894172D01*
X85181040Y-76703748D01*
X85074181Y-76494025D01*
X85001445Y-76270168D01*
X84964624Y-76037689D01*
X84964624Y-75802311D01*
X85001445Y-75569832D01*
X85074181Y-75345975D01*
X85181040Y-75136252D01*
X85319391Y-74945828D01*
X85485828Y-74779391D01*
X85676252Y-74641040D01*
X85885975Y-74534181D01*
X86109832Y-74461445D01*
X86342311Y-74424624D01*
X86577689Y-74424624D01*
X86810168Y-74461445D01*
G37*
G36*
X158810168Y-74461445D02*
G01*
X159034025Y-74534181D01*
X159243748Y-74641040D01*
X159434172Y-74779391D01*
X159600609Y-74945828D01*
X159738960Y-75136252D01*
X159845819Y-75345975D01*
X159918555Y-75569832D01*
X159955376Y-75802311D01*
X159955376Y-76037689D01*
X159918555Y-76270168D01*
X159845819Y-76494025D01*
X159738960Y-76703748D01*
X159600609Y-76894172D01*
X159434172Y-77060609D01*
X159243748Y-77198960D01*
X159034025Y-77305819D01*
X158810168Y-77378555D01*
X158577689Y-77415376D01*
X158342311Y-77415376D01*
X158109832Y-77378555D01*
X157885975Y-77305819D01*
X157676252Y-77198960D01*
X157485828Y-77060609D01*
X157319391Y-76894172D01*
X157181040Y-76703748D01*
X157074181Y-76494025D01*
X157001445Y-76270168D01*
X156964624Y-76037689D01*
X156964624Y-75802311D01*
X157001445Y-75569832D01*
X157074181Y-75345975D01*
X157181040Y-75136252D01*
X157319391Y-74945828D01*
X157485828Y-74779391D01*
X157676252Y-74641040D01*
X157885975Y-74534181D01*
X158109832Y-74461445D01*
X158342311Y-74424624D01*
X158577689Y-74424624D01*
X158810168Y-74461445D01*
G37*
G36*
X176810168Y-74461445D02*
G01*
X177034025Y-74534181D01*
X177243748Y-74641040D01*
X177434172Y-74779391D01*
X177600609Y-74945828D01*
X177738960Y-75136252D01*
X177845819Y-75345975D01*
X177918555Y-75569832D01*
X177955376Y-75802311D01*
X177955376Y-76037689D01*
X177918555Y-76270168D01*
X177845819Y-76494025D01*
X177738960Y-76703748D01*
X177600609Y-76894172D01*
X177434172Y-77060609D01*
X177243748Y-77198960D01*
X177034025Y-77305819D01*
X176810168Y-77378555D01*
X176577689Y-77415376D01*
X176342311Y-77415376D01*
X176109832Y-77378555D01*
X175885975Y-77305819D01*
X175676252Y-77198960D01*
X175485828Y-77060609D01*
X175319391Y-76894172D01*
X175181040Y-76703748D01*
X175074181Y-76494025D01*
X175001445Y-76270168D01*
X174964624Y-76037689D01*
X174964624Y-75802311D01*
X175001445Y-75569832D01*
X175074181Y-75345975D01*
X175181040Y-75136252D01*
X175319391Y-74945828D01*
X175485828Y-74779391D01*
X175676252Y-74641040D01*
X175885975Y-74534181D01*
X176109832Y-74461445D01*
X176342311Y-74424624D01*
X176577689Y-74424624D01*
X176810168Y-74461445D01*
G37*
G36*
X102308991Y-73044412D02*
G01*
X102560918Y-73111916D01*
X102801879Y-73211725D01*
X103027751Y-73342133D01*
X103234670Y-73500907D01*
X103419093Y-73685330D01*
X103577867Y-73892249D01*
X103708275Y-74118121D01*
X103808084Y-74359082D01*
X103875588Y-74611009D01*
X103909631Y-74869593D01*
X103909631Y-75130407D01*
X103875588Y-75388991D01*
X103808084Y-75640918D01*
X103708275Y-75881879D01*
X103577867Y-76107751D01*
X103419093Y-76314670D01*
X103234670Y-76499093D01*
X103027751Y-76657867D01*
X102801879Y-76788275D01*
X102560918Y-76888084D01*
X102308991Y-76955588D01*
X102050407Y-76989631D01*
X101789593Y-76989631D01*
X101531009Y-76955588D01*
X101279082Y-76888084D01*
X101038121Y-76788275D01*
X100812249Y-76657867D01*
X100605330Y-76499093D01*
X100420907Y-76314670D01*
X100262133Y-76107751D01*
X100131725Y-75881879D01*
X100031916Y-75640918D01*
X99964412Y-75388991D01*
X99930369Y-75130407D01*
X99930369Y-74869593D01*
X99964412Y-74611009D01*
X100031916Y-74359082D01*
X100131725Y-74118121D01*
X100262133Y-73892249D01*
X100420907Y-73685330D01*
X100605330Y-73500907D01*
X100812249Y-73342133D01*
X101038121Y-73211725D01*
X101279082Y-73111916D01*
X101531009Y-73044412D01*
X101789593Y-73010369D01*
X102050407Y-73010369D01*
X102308991Y-73044412D01*
G37*
G36*
X138308991Y-73044412D02*
G01*
X138560918Y-73111916D01*
X138801879Y-73211725D01*
X139027751Y-73342133D01*
X139234670Y-73500907D01*
X139419093Y-73685330D01*
X139577867Y-73892249D01*
X139708275Y-74118121D01*
X139808084Y-74359082D01*
X139875588Y-74611009D01*
X139909631Y-74869593D01*
X139909631Y-75130407D01*
X139875588Y-75388991D01*
X139808084Y-75640918D01*
X139708275Y-75881879D01*
X139577867Y-76107751D01*
X139419093Y-76314670D01*
X139234670Y-76499093D01*
X139027751Y-76657867D01*
X138801879Y-76788275D01*
X138560918Y-76888084D01*
X138308991Y-76955588D01*
X138050407Y-76989631D01*
X137789593Y-76989631D01*
X137531009Y-76955588D01*
X137279082Y-76888084D01*
X137038121Y-76788275D01*
X136812249Y-76657867D01*
X136605330Y-76499093D01*
X136420907Y-76314670D01*
X136262133Y-76107751D01*
X136131725Y-75881879D01*
X136031916Y-75640918D01*
X135964412Y-75388991D01*
X135930369Y-75130407D01*
X135930369Y-74869593D01*
X135964412Y-74611009D01*
X136031916Y-74359082D01*
X136131725Y-74118121D01*
X136262133Y-73892249D01*
X136420907Y-73685330D01*
X136605330Y-73500907D01*
X136812249Y-73342133D01*
X137038121Y-73211725D01*
X137279082Y-73111916D01*
X137531009Y-73044412D01*
X137789593Y-73010369D01*
X138050407Y-73010369D01*
X138308991Y-73044412D01*
G37*
G36*
X45842228Y-75116948D02*
G01*
X45987117Y-75176963D01*
X46117515Y-75264092D01*
X46228408Y-75374985D01*
X46315537Y-75505383D01*
X46375552Y-75650272D01*
X46406148Y-75804086D01*
X46406148Y-75960914D01*
X46375552Y-76114728D01*
X46315537Y-76259617D01*
X46228408Y-76390015D01*
X46117515Y-76500908D01*
X45987117Y-76588037D01*
X45842228Y-76648052D01*
X45688414Y-76678648D01*
X45531586Y-76678648D01*
X45377772Y-76648052D01*
X45232883Y-76588037D01*
X45102485Y-76500908D01*
X44991592Y-76390015D01*
X44904463Y-76259617D01*
X44844448Y-76114728D01*
X44813852Y-75960914D01*
X44813852Y-75804086D01*
X44844448Y-75650272D01*
X44904463Y-75505383D01*
X44991592Y-75374985D01*
X45102485Y-75264092D01*
X45232883Y-75176963D01*
X45377772Y-75116948D01*
X45531586Y-75086352D01*
X45688414Y-75086352D01*
X45842228Y-75116948D01*
G37*
G36*
X63622228Y-75116948D02*
G01*
X63767117Y-75176963D01*
X63897515Y-75264092D01*
X64008408Y-75374985D01*
X64095537Y-75505383D01*
X64155552Y-75650272D01*
X64186148Y-75804086D01*
X64186148Y-75960914D01*
X64155552Y-76114728D01*
X64095537Y-76259617D01*
X64008408Y-76390015D01*
X63897515Y-76500908D01*
X63767117Y-76588037D01*
X63622228Y-76648052D01*
X63468414Y-76678648D01*
X63311586Y-76678648D01*
X63157772Y-76648052D01*
X63012883Y-76588037D01*
X62882485Y-76500908D01*
X62771592Y-76390015D01*
X62684463Y-76259617D01*
X62624448Y-76114728D01*
X62593852Y-75960914D01*
X62593852Y-75804086D01*
X62624448Y-75650272D01*
X62684463Y-75505383D01*
X62771592Y-75374985D01*
X62882485Y-75264092D01*
X63012883Y-75176963D01*
X63157772Y-75116948D01*
X63311586Y-75086352D01*
X63468414Y-75086352D01*
X63622228Y-75116948D01*
G37*
G36*
X97087003Y-74185739D02*
G01*
X97241111Y-74249573D01*
X97379805Y-74342245D01*
X97497755Y-74460195D01*
X97590427Y-74598889D01*
X97654261Y-74752997D01*
X97686803Y-74916597D01*
X97686803Y-75083403D01*
X97654261Y-75247003D01*
X97590427Y-75401111D01*
X97497755Y-75539805D01*
X97379805Y-75657755D01*
X97241111Y-75750427D01*
X97087003Y-75814261D01*
X96923403Y-75846803D01*
X96756597Y-75846803D01*
X96592997Y-75814261D01*
X96438889Y-75750427D01*
X96300195Y-75657755D01*
X96182245Y-75539805D01*
X96089573Y-75401111D01*
X96025739Y-75247003D01*
X95993197Y-75083403D01*
X95993197Y-74916597D01*
X96025739Y-74752997D01*
X96089573Y-74598889D01*
X96182245Y-74460195D01*
X96300195Y-74342245D01*
X96438889Y-74249573D01*
X96592997Y-74185739D01*
X96756597Y-74153197D01*
X96923403Y-74153197D01*
X97087003Y-74185739D01*
G37*
G36*
X107247003Y-74185739D02*
G01*
X107401111Y-74249573D01*
X107539805Y-74342245D01*
X107657755Y-74460195D01*
X107750427Y-74598889D01*
X107814261Y-74752997D01*
X107846803Y-74916597D01*
X107846803Y-75083403D01*
X107814261Y-75247003D01*
X107750427Y-75401111D01*
X107657755Y-75539805D01*
X107539805Y-75657755D01*
X107401111Y-75750427D01*
X107247003Y-75814261D01*
X107083403Y-75846803D01*
X106916597Y-75846803D01*
X106752997Y-75814261D01*
X106598889Y-75750427D01*
X106460195Y-75657755D01*
X106342245Y-75539805D01*
X106249573Y-75401111D01*
X106185739Y-75247003D01*
X106153197Y-75083403D01*
X106153197Y-74916597D01*
X106185739Y-74752997D01*
X106249573Y-74598889D01*
X106342245Y-74460195D01*
X106460195Y-74342245D01*
X106598889Y-74249573D01*
X106752997Y-74185739D01*
X106916597Y-74153197D01*
X107083403Y-74153197D01*
X107247003Y-74185739D01*
G37*
G36*
X133087003Y-74185739D02*
G01*
X133241111Y-74249573D01*
X133379805Y-74342245D01*
X133497755Y-74460195D01*
X133590427Y-74598889D01*
X133654261Y-74752997D01*
X133686803Y-74916597D01*
X133686803Y-75083403D01*
X133654261Y-75247003D01*
X133590427Y-75401111D01*
X133497755Y-75539805D01*
X133379805Y-75657755D01*
X133241111Y-75750427D01*
X133087003Y-75814261D01*
X132923403Y-75846803D01*
X132756597Y-75846803D01*
X132592997Y-75814261D01*
X132438889Y-75750427D01*
X132300195Y-75657755D01*
X132182245Y-75539805D01*
X132089573Y-75401111D01*
X132025739Y-75247003D01*
X131993197Y-75083403D01*
X131993197Y-74916597D01*
X132025739Y-74752997D01*
X132089573Y-74598889D01*
X132182245Y-74460195D01*
X132300195Y-74342245D01*
X132438889Y-74249573D01*
X132592997Y-74185739D01*
X132756597Y-74153197D01*
X132923403Y-74153197D01*
X133087003Y-74185739D01*
G37*
G36*
X143247003Y-74185739D02*
G01*
X143401111Y-74249573D01*
X143539805Y-74342245D01*
X143657755Y-74460195D01*
X143750427Y-74598889D01*
X143814261Y-74752997D01*
X143846803Y-74916597D01*
X143846803Y-75083403D01*
X143814261Y-75247003D01*
X143750427Y-75401111D01*
X143657755Y-75539805D01*
X143539805Y-75657755D01*
X143401111Y-75750427D01*
X143247003Y-75814261D01*
X143083403Y-75846803D01*
X142916597Y-75846803D01*
X142752997Y-75814261D01*
X142598889Y-75750427D01*
X142460195Y-75657755D01*
X142342245Y-75539805D01*
X142249573Y-75401111D01*
X142185739Y-75247003D01*
X142153197Y-75083403D01*
X142153197Y-74916597D01*
X142185739Y-74752997D01*
X142249573Y-74598889D01*
X142342245Y-74460195D01*
X142460195Y-74342245D01*
X142598889Y-74249573D01*
X142752997Y-74185739D01*
X142916597Y-74153197D01*
X143083403Y-74153197D01*
X143247003Y-74185739D01*
G37*
G36*
X45842228Y-72576948D02*
G01*
X45987117Y-72636963D01*
X46117515Y-72724092D01*
X46228408Y-72834985D01*
X46315537Y-72965383D01*
X46375552Y-73110272D01*
X46406148Y-73264086D01*
X46406148Y-73420914D01*
X46375552Y-73574728D01*
X46315537Y-73719617D01*
X46228408Y-73850015D01*
X46117515Y-73960908D01*
X45987117Y-74048037D01*
X45842228Y-74108052D01*
X45688414Y-74138648D01*
X45531586Y-74138648D01*
X45377772Y-74108052D01*
X45232883Y-74048037D01*
X45102485Y-73960908D01*
X44991592Y-73850015D01*
X44904463Y-73719617D01*
X44844448Y-73574728D01*
X44813852Y-73420914D01*
X44813852Y-73264086D01*
X44844448Y-73110272D01*
X44904463Y-72965383D01*
X44991592Y-72834985D01*
X45102485Y-72724092D01*
X45232883Y-72636963D01*
X45377772Y-72576948D01*
X45531586Y-72546352D01*
X45688414Y-72546352D01*
X45842228Y-72576948D01*
G37*
G36*
X63622228Y-72576948D02*
G01*
X63767117Y-72636963D01*
X63897515Y-72724092D01*
X64008408Y-72834985D01*
X64095537Y-72965383D01*
X64155552Y-73110272D01*
X64186148Y-73264086D01*
X64186148Y-73420914D01*
X64155552Y-73574728D01*
X64095537Y-73719617D01*
X64008408Y-73850015D01*
X63897515Y-73960908D01*
X63767117Y-74048037D01*
X63622228Y-74108052D01*
X63468414Y-74138648D01*
X63311586Y-74138648D01*
X63157772Y-74108052D01*
X63012883Y-74048037D01*
X62882485Y-73960908D01*
X62771592Y-73850015D01*
X62684463Y-73719617D01*
X62624448Y-73574728D01*
X62593852Y-73420914D01*
X62593852Y-73264086D01*
X62624448Y-73110272D01*
X62684463Y-72965383D01*
X62771592Y-72834985D01*
X62882485Y-72724092D01*
X63012883Y-72636963D01*
X63157772Y-72576948D01*
X63311586Y-72546352D01*
X63468414Y-72546352D01*
X63622228Y-72576948D01*
G37*
G36*
X98460168Y-71001445D02*
G01*
X98684025Y-71074181D01*
X98893748Y-71181040D01*
X99084172Y-71319391D01*
X99250609Y-71485828D01*
X99388960Y-71676252D01*
X99495819Y-71885975D01*
X99568555Y-72109832D01*
X99605376Y-72342311D01*
X99605376Y-72577689D01*
X99568555Y-72810168D01*
X99495819Y-73034025D01*
X99388960Y-73243748D01*
X99250609Y-73434172D01*
X99084172Y-73600609D01*
X98893748Y-73738960D01*
X98684025Y-73845819D01*
X98460168Y-73918555D01*
X98227689Y-73955376D01*
X97992311Y-73955376D01*
X97759832Y-73918555D01*
X97535975Y-73845819D01*
X97326252Y-73738960D01*
X97135828Y-73600609D01*
X96969391Y-73434172D01*
X96831040Y-73243748D01*
X96724181Y-73034025D01*
X96651445Y-72810168D01*
X96614624Y-72577689D01*
X96614624Y-72342311D01*
X96651445Y-72109832D01*
X96724181Y-71885975D01*
X96831040Y-71676252D01*
X96969391Y-71485828D01*
X97135828Y-71319391D01*
X97326252Y-71181040D01*
X97535975Y-71074181D01*
X97759832Y-71001445D01*
X97992311Y-70964624D01*
X98227689Y-70964624D01*
X98460168Y-71001445D01*
G37*
G36*
X134460168Y-71001445D02*
G01*
X134684025Y-71074181D01*
X134893748Y-71181040D01*
X135084172Y-71319391D01*
X135250609Y-71485828D01*
X135388960Y-71676252D01*
X135495819Y-71885975D01*
X135568555Y-72109832D01*
X135605376Y-72342311D01*
X135605376Y-72577689D01*
X135568555Y-72810168D01*
X135495819Y-73034025D01*
X135388960Y-73243748D01*
X135250609Y-73434172D01*
X135084172Y-73600609D01*
X134893748Y-73738960D01*
X134684025Y-73845819D01*
X134460168Y-73918555D01*
X134227689Y-73955376D01*
X133992311Y-73955376D01*
X133759832Y-73918555D01*
X133535975Y-73845819D01*
X133326252Y-73738960D01*
X133135828Y-73600609D01*
X132969391Y-73434172D01*
X132831040Y-73243748D01*
X132724181Y-73034025D01*
X132651445Y-72810168D01*
X132614624Y-72577689D01*
X132614624Y-72342311D01*
X132651445Y-72109832D01*
X132724181Y-71885975D01*
X132831040Y-71676252D01*
X132969391Y-71485828D01*
X133135828Y-71319391D01*
X133326252Y-71181040D01*
X133535975Y-71074181D01*
X133759832Y-71001445D01*
X133992311Y-70964624D01*
X134227689Y-70964624D01*
X134460168Y-71001445D01*
G37*
G36*
X45842228Y-70036948D02*
G01*
X45987117Y-70096963D01*
X46117515Y-70184092D01*
X46228408Y-70294985D01*
X46315537Y-70425383D01*
X46375552Y-70570272D01*
X46406148Y-70724086D01*
X46406148Y-70880914D01*
X46375552Y-71034728D01*
X46315537Y-71179617D01*
X46228408Y-71310015D01*
X46117515Y-71420908D01*
X45987117Y-71508037D01*
X45842228Y-71568052D01*
X45688414Y-71598648D01*
X45531586Y-71598648D01*
X45377772Y-71568052D01*
X45232883Y-71508037D01*
X45102485Y-71420908D01*
X44991592Y-71310015D01*
X44904463Y-71179617D01*
X44844448Y-71034728D01*
X44813852Y-70880914D01*
X44813852Y-70724086D01*
X44844448Y-70570272D01*
X44904463Y-70425383D01*
X44991592Y-70294985D01*
X45102485Y-70184092D01*
X45232883Y-70096963D01*
X45377772Y-70036948D01*
X45531586Y-70006352D01*
X45688414Y-70006352D01*
X45842228Y-70036948D01*
G37*
G36*
X63622228Y-70036948D02*
G01*
X63767117Y-70096963D01*
X63897515Y-70184092D01*
X64008408Y-70294985D01*
X64095537Y-70425383D01*
X64155552Y-70570272D01*
X64186148Y-70724086D01*
X64186148Y-70880914D01*
X64155552Y-71034728D01*
X64095537Y-71179617D01*
X64008408Y-71310015D01*
X63897515Y-71420908D01*
X63767117Y-71508037D01*
X63622228Y-71568052D01*
X63468414Y-71598648D01*
X63311586Y-71598648D01*
X63157772Y-71568052D01*
X63012883Y-71508037D01*
X62882485Y-71420908D01*
X62771592Y-71310015D01*
X62684463Y-71179617D01*
X62624448Y-71034728D01*
X62593852Y-70880914D01*
X62593852Y-70724086D01*
X62624448Y-70570272D01*
X62684463Y-70425383D01*
X62771592Y-70294985D01*
X62882485Y-70184092D01*
X63012883Y-70096963D01*
X63157772Y-70036948D01*
X63311586Y-70006352D01*
X63468414Y-70006352D01*
X63622228Y-70036948D01*
G37*
G36*
X104810168Y-68461445D02*
G01*
X105034025Y-68534181D01*
X105243748Y-68641040D01*
X105434172Y-68779391D01*
X105600609Y-68945828D01*
X105738960Y-69136252D01*
X105845819Y-69345975D01*
X105918555Y-69569832D01*
X105955376Y-69802311D01*
X105955376Y-70037689D01*
X105918555Y-70270168D01*
X105845819Y-70494025D01*
X105738960Y-70703748D01*
X105600609Y-70894172D01*
X105434172Y-71060609D01*
X105243748Y-71198960D01*
X105034025Y-71305819D01*
X104810168Y-71378555D01*
X104577689Y-71415376D01*
X104342311Y-71415376D01*
X104109832Y-71378555D01*
X103885975Y-71305819D01*
X103676252Y-71198960D01*
X103485828Y-71060609D01*
X103319391Y-70894172D01*
X103181040Y-70703748D01*
X103074181Y-70494025D01*
X103001445Y-70270168D01*
X102964624Y-70037689D01*
X102964624Y-69802311D01*
X103001445Y-69569832D01*
X103074181Y-69345975D01*
X103181040Y-69136252D01*
X103319391Y-68945828D01*
X103485828Y-68779391D01*
X103676252Y-68641040D01*
X103885975Y-68534181D01*
X104109832Y-68461445D01*
X104342311Y-68424624D01*
X104577689Y-68424624D01*
X104810168Y-68461445D01*
G37*
G36*
X140810168Y-68461445D02*
G01*
X141034025Y-68534181D01*
X141243748Y-68641040D01*
X141434172Y-68779391D01*
X141600609Y-68945828D01*
X141738960Y-69136252D01*
X141845819Y-69345975D01*
X141918555Y-69569832D01*
X141955376Y-69802311D01*
X141955376Y-70037689D01*
X141918555Y-70270168D01*
X141845819Y-70494025D01*
X141738960Y-70703748D01*
X141600609Y-70894172D01*
X141434172Y-71060609D01*
X141243748Y-71198960D01*
X141034025Y-71305819D01*
X140810168Y-71378555D01*
X140577689Y-71415376D01*
X140342311Y-71415376D01*
X140109832Y-71378555D01*
X139885975Y-71305819D01*
X139676252Y-71198960D01*
X139485828Y-71060609D01*
X139319391Y-70894172D01*
X139181040Y-70703748D01*
X139074181Y-70494025D01*
X139001445Y-70270168D01*
X138964624Y-70037689D01*
X138964624Y-69802311D01*
X139001445Y-69569832D01*
X139074181Y-69345975D01*
X139181040Y-69136252D01*
X139319391Y-68945828D01*
X139485828Y-68779391D01*
X139676252Y-68641040D01*
X139885975Y-68534181D01*
X140109832Y-68461445D01*
X140342311Y-68424624D01*
X140577689Y-68424624D01*
X140810168Y-68461445D01*
G37*
G36*
X120308991Y-67044412D02*
G01*
X120560918Y-67111916D01*
X120801879Y-67211725D01*
X121027751Y-67342133D01*
X121234670Y-67500907D01*
X121419093Y-67685330D01*
X121577867Y-67892249D01*
X121708275Y-68118121D01*
X121808084Y-68359082D01*
X121875588Y-68611009D01*
X121909631Y-68869593D01*
X121909631Y-69130407D01*
X121875588Y-69388991D01*
X121808084Y-69640918D01*
X121708275Y-69881879D01*
X121577867Y-70107751D01*
X121419093Y-70314670D01*
X121234670Y-70499093D01*
X121027751Y-70657867D01*
X120801879Y-70788275D01*
X120560918Y-70888084D01*
X120308991Y-70955588D01*
X120050407Y-70989631D01*
X119789593Y-70989631D01*
X119531009Y-70955588D01*
X119279082Y-70888084D01*
X119038121Y-70788275D01*
X118812249Y-70657867D01*
X118605330Y-70499093D01*
X118420907Y-70314670D01*
X118262133Y-70107751D01*
X118131725Y-69881879D01*
X118031916Y-69640918D01*
X117964412Y-69388991D01*
X117930369Y-69130407D01*
X117930369Y-68869593D01*
X117964412Y-68611009D01*
X118031916Y-68359082D01*
X118131725Y-68118121D01*
X118262133Y-67892249D01*
X118420907Y-67685330D01*
X118605330Y-67500907D01*
X118812249Y-67342133D01*
X119038121Y-67211725D01*
X119279082Y-67111916D01*
X119531009Y-67044412D01*
X119789593Y-67010369D01*
X120050407Y-67010369D01*
X120308991Y-67044412D01*
G37*
G36*
X115087003Y-68185739D02*
G01*
X115241111Y-68249573D01*
X115379805Y-68342245D01*
X115497755Y-68460195D01*
X115590427Y-68598889D01*
X115654261Y-68752997D01*
X115686803Y-68916597D01*
X115686803Y-69083403D01*
X115654261Y-69247003D01*
X115590427Y-69401111D01*
X115497755Y-69539805D01*
X115379805Y-69657755D01*
X115241111Y-69750427D01*
X115087003Y-69814261D01*
X114923403Y-69846803D01*
X114756597Y-69846803D01*
X114592997Y-69814261D01*
X114438889Y-69750427D01*
X114300195Y-69657755D01*
X114182245Y-69539805D01*
X114089573Y-69401111D01*
X114025739Y-69247003D01*
X113993197Y-69083403D01*
X113993197Y-68916597D01*
X114025739Y-68752997D01*
X114089573Y-68598889D01*
X114182245Y-68460195D01*
X114300195Y-68342245D01*
X114438889Y-68249573D01*
X114592997Y-68185739D01*
X114756597Y-68153197D01*
X114923403Y-68153197D01*
X115087003Y-68185739D01*
G37*
G36*
X125247003Y-68185739D02*
G01*
X125401111Y-68249573D01*
X125539805Y-68342245D01*
X125657755Y-68460195D01*
X125750427Y-68598889D01*
X125814261Y-68752997D01*
X125846803Y-68916597D01*
X125846803Y-69083403D01*
X125814261Y-69247003D01*
X125750427Y-69401111D01*
X125657755Y-69539805D01*
X125539805Y-69657755D01*
X125401111Y-69750427D01*
X125247003Y-69814261D01*
X125083403Y-69846803D01*
X124916597Y-69846803D01*
X124752997Y-69814261D01*
X124598889Y-69750427D01*
X124460195Y-69657755D01*
X124342245Y-69539805D01*
X124249573Y-69401111D01*
X124185739Y-69247003D01*
X124153197Y-69083403D01*
X124153197Y-68916597D01*
X124185739Y-68752997D01*
X124249573Y-68598889D01*
X124342245Y-68460195D01*
X124460195Y-68342245D01*
X124598889Y-68249573D01*
X124752997Y-68185739D01*
X124916597Y-68153197D01*
X125083403Y-68153197D01*
X125247003Y-68185739D01*
G37*
G36*
X46213536Y-67458964D02*
G01*
X46215915Y-67461343D01*
X46243108Y-67461343D01*
X46249018Y-67461343D01*
X46250931Y-67461724D01*
X46256385Y-67463983D01*
X46256389Y-67463984D01*
X46317569Y-67489326D01*
X46323027Y-67491587D01*
X46324650Y-67492670D01*
X46379830Y-67547850D01*
X46380913Y-67549473D01*
X46410776Y-67621569D01*
X46411157Y-67623482D01*
X46411157Y-67656585D01*
X46413536Y-67658964D01*
X46415000Y-67662500D01*
X46415000Y-68862500D01*
X46413536Y-68866036D01*
X46411157Y-68868415D01*
X46411157Y-68901518D01*
X46410776Y-68903431D01*
X46380913Y-68975527D01*
X46379830Y-68977150D01*
X46324650Y-69032330D01*
X46323027Y-69033413D01*
X46250931Y-69063276D01*
X46249018Y-69063657D01*
X46215915Y-69063657D01*
X46213536Y-69066036D01*
X46210000Y-69067500D01*
X46198066Y-69067500D01*
X45621935Y-69067500D01*
X45610000Y-69067500D01*
X45606464Y-69066036D01*
X45605475Y-69063648D01*
X45534533Y-69063648D01*
X45531586Y-69063648D01*
X45530611Y-69063552D01*
X45376797Y-69032956D01*
X45375859Y-69032671D01*
X45230970Y-68972656D01*
X45230105Y-68972194D01*
X45135362Y-68908889D01*
X45102159Y-68886704D01*
X45102154Y-68886700D01*
X45099707Y-68885065D01*
X45098949Y-68884444D01*
X44988056Y-68773551D01*
X44987435Y-68772793D01*
X44985800Y-68770346D01*
X44985795Y-68770340D01*
X44901943Y-68644845D01*
X44901942Y-68644844D01*
X44900306Y-68642395D01*
X44899844Y-68641530D01*
X44898720Y-68638817D01*
X44898717Y-68638811D01*
X44840955Y-68499360D01*
X44840954Y-68499357D01*
X44839829Y-68496641D01*
X44839544Y-68495703D01*
X44838970Y-68492818D01*
X44838968Y-68492811D01*
X44809523Y-68344781D01*
X44809522Y-68344778D01*
X44808948Y-68341889D01*
X44808852Y-68340914D01*
X44808852Y-68184086D01*
X44808948Y-68183111D01*
X44809523Y-68180218D01*
X44838968Y-68032188D01*
X44838970Y-68032179D01*
X44839544Y-68029297D01*
X44839829Y-68028359D01*
X44840953Y-68025644D01*
X44840955Y-68025639D01*
X44898717Y-67886188D01*
X44898722Y-67886178D01*
X44899844Y-67883470D01*
X44900306Y-67882605D01*
X44901940Y-67880159D01*
X44901943Y-67880154D01*
X44985795Y-67754659D01*
X44985803Y-67754648D01*
X44987435Y-67752207D01*
X44988056Y-67751449D01*
X45098949Y-67640556D01*
X45099707Y-67639935D01*
X45102148Y-67638303D01*
X45102159Y-67638295D01*
X45227654Y-67554443D01*
X45227659Y-67554440D01*
X45230105Y-67552806D01*
X45230970Y-67552344D01*
X45233678Y-67551222D01*
X45233688Y-67551217D01*
X45373139Y-67493455D01*
X45373144Y-67493453D01*
X45375859Y-67492329D01*
X45376797Y-67492044D01*
X45379679Y-67491470D01*
X45379688Y-67491468D01*
X45527718Y-67462023D01*
X45527722Y-67462022D01*
X45530611Y-67461448D01*
X45531586Y-67461352D01*
X45605475Y-67461352D01*
X45606464Y-67458964D01*
X45610000Y-67457500D01*
X46210000Y-67457500D01*
X46213536Y-67458964D01*
G37*
G36*
X63393536Y-67458964D02*
G01*
X63394525Y-67461352D01*
X63465467Y-67461352D01*
X63468414Y-67461352D01*
X63469389Y-67461448D01*
X63472278Y-67462022D01*
X63472281Y-67462023D01*
X63620311Y-67491468D01*
X63620318Y-67491470D01*
X63623203Y-67492044D01*
X63624141Y-67492329D01*
X63626857Y-67493454D01*
X63626860Y-67493455D01*
X63766311Y-67551217D01*
X63766317Y-67551220D01*
X63769030Y-67552344D01*
X63769895Y-67552806D01*
X63772344Y-67554442D01*
X63772345Y-67554443D01*
X63897840Y-67638295D01*
X63897846Y-67638300D01*
X63900293Y-67639935D01*
X63901051Y-67640556D01*
X64011944Y-67751449D01*
X64012565Y-67752207D01*
X64014200Y-67754654D01*
X64014204Y-67754659D01*
X64071152Y-67839889D01*
X64099694Y-67882605D01*
X64100156Y-67883470D01*
X64101281Y-67886186D01*
X64101282Y-67886188D01*
X64103821Y-67892317D01*
X64160171Y-68028359D01*
X64160456Y-68029297D01*
X64191052Y-68183111D01*
X64191148Y-68184086D01*
X64191148Y-68340914D01*
X64191052Y-68341889D01*
X64160456Y-68495703D01*
X64160171Y-68496641D01*
X64100156Y-68641530D01*
X64099694Y-68642395D01*
X64012565Y-68772793D01*
X64011944Y-68773551D01*
X63901051Y-68884444D01*
X63900293Y-68885065D01*
X63769895Y-68972194D01*
X63769030Y-68972656D01*
X63624141Y-69032671D01*
X63623203Y-69032956D01*
X63469389Y-69063552D01*
X63468414Y-69063648D01*
X63394525Y-69063648D01*
X63393536Y-69066036D01*
X63390000Y-69067500D01*
X63378065Y-69067500D01*
X62801934Y-69067500D01*
X62790000Y-69067500D01*
X62786464Y-69066036D01*
X62784085Y-69063657D01*
X62756892Y-69063657D01*
X62750982Y-69063657D01*
X62749069Y-69063276D01*
X62676973Y-69033413D01*
X62675350Y-69032330D01*
X62620170Y-68977150D01*
X62619087Y-68975527D01*
X62606785Y-68945828D01*
X62591484Y-68908889D01*
X62591483Y-68908885D01*
X62589224Y-68903431D01*
X62588843Y-68901518D01*
X62588843Y-68868415D01*
X62586464Y-68866036D01*
X62585000Y-68862500D01*
X62585000Y-67662500D01*
X62586464Y-67658964D01*
X62588843Y-67656585D01*
X62588843Y-67623482D01*
X62589224Y-67621569D01*
X62591482Y-67616115D01*
X62591484Y-67616110D01*
X62616826Y-67554930D01*
X62616827Y-67554927D01*
X62619087Y-67549473D01*
X62620170Y-67547850D01*
X62675350Y-67492670D01*
X62676973Y-67491587D01*
X62682427Y-67489327D01*
X62682430Y-67489326D01*
X62743610Y-67463984D01*
X62743615Y-67463982D01*
X62749069Y-67461724D01*
X62750982Y-67461343D01*
X62784085Y-67461343D01*
X62786464Y-67458964D01*
X62790000Y-67457500D01*
X63390000Y-67457500D01*
X63393536Y-67458964D01*
G37*
G36*
X181418766Y-63535322D02*
G01*
X181692089Y-63597707D01*
X181956709Y-63690301D01*
X182209297Y-63811941D01*
X182446678Y-63961098D01*
X182665866Y-64135895D01*
X182864105Y-64334134D01*
X183038902Y-64553322D01*
X183188059Y-64790703D01*
X183309699Y-65043291D01*
X183402293Y-65307911D01*
X183464678Y-65581234D01*
X183496067Y-65859824D01*
X183496067Y-66140176D01*
X183464678Y-66418766D01*
X183402293Y-66692089D01*
X183309699Y-66956709D01*
X183188059Y-67209297D01*
X183038902Y-67446678D01*
X182864105Y-67665866D01*
X182665866Y-67864105D01*
X182446678Y-68038902D01*
X182209297Y-68188059D01*
X181956709Y-68309699D01*
X181692089Y-68402293D01*
X181418766Y-68464678D01*
X181140176Y-68496067D01*
X180859824Y-68496067D01*
X180581234Y-68464678D01*
X180307911Y-68402293D01*
X180043291Y-68309699D01*
X179790703Y-68188059D01*
X179553322Y-68038902D01*
X179334134Y-67864105D01*
X179135895Y-67665866D01*
X178961098Y-67446678D01*
X178811941Y-67209297D01*
X178690301Y-66956709D01*
X178597707Y-66692089D01*
X178535322Y-66418766D01*
X178503933Y-66140176D01*
X178503933Y-65859824D01*
X178535322Y-65581234D01*
X178597707Y-65307911D01*
X178690301Y-65043291D01*
X178811941Y-64790703D01*
X178961098Y-64553322D01*
X179135895Y-64334134D01*
X179334134Y-64135895D01*
X179553322Y-63961098D01*
X179790703Y-63811941D01*
X180043291Y-63690301D01*
X180307911Y-63597707D01*
X180581234Y-63535322D01*
X180859824Y-63503933D01*
X181140176Y-63503933D01*
X181418766Y-63535322D01*
G37*
G36*
X116460168Y-65001445D02*
G01*
X116684025Y-65074181D01*
X116893748Y-65181040D01*
X117084172Y-65319391D01*
X117250609Y-65485828D01*
X117388960Y-65676252D01*
X117495819Y-65885975D01*
X117568555Y-66109832D01*
X117605376Y-66342311D01*
X117605376Y-66577689D01*
X117568555Y-66810168D01*
X117495819Y-67034025D01*
X117388960Y-67243748D01*
X117250609Y-67434172D01*
X117084172Y-67600609D01*
X116893748Y-67738960D01*
X116684025Y-67845819D01*
X116460168Y-67918555D01*
X116227689Y-67955376D01*
X115992311Y-67955376D01*
X115759832Y-67918555D01*
X115535975Y-67845819D01*
X115326252Y-67738960D01*
X115135828Y-67600609D01*
X114969391Y-67434172D01*
X114831040Y-67243748D01*
X114724181Y-67034025D01*
X114651445Y-66810168D01*
X114614624Y-66577689D01*
X114614624Y-66342311D01*
X114651445Y-66109832D01*
X114724181Y-65885975D01*
X114831040Y-65676252D01*
X114969391Y-65485828D01*
X115135828Y-65319391D01*
X115326252Y-65181040D01*
X115535975Y-65074181D01*
X115759832Y-65001445D01*
X115992311Y-64964624D01*
X116227689Y-64964624D01*
X116460168Y-65001445D01*
G37*
G36*
X45842228Y-64956948D02*
G01*
X45987117Y-65016963D01*
X46117515Y-65104092D01*
X46228408Y-65214985D01*
X46315537Y-65345383D01*
X46375552Y-65490272D01*
X46406148Y-65644086D01*
X46406148Y-65800914D01*
X46375552Y-65954728D01*
X46315537Y-66099617D01*
X46228408Y-66230015D01*
X46117515Y-66340908D01*
X45987117Y-66428037D01*
X45842228Y-66488052D01*
X45688414Y-66518648D01*
X45531586Y-66518648D01*
X45377772Y-66488052D01*
X45232883Y-66428037D01*
X45102485Y-66340908D01*
X44991592Y-66230015D01*
X44904463Y-66099617D01*
X44844448Y-65954728D01*
X44813852Y-65800914D01*
X44813852Y-65644086D01*
X44844448Y-65490272D01*
X44904463Y-65345383D01*
X44991592Y-65214985D01*
X45102485Y-65104092D01*
X45232883Y-65016963D01*
X45377772Y-64956948D01*
X45531586Y-64926352D01*
X45688414Y-64926352D01*
X45842228Y-64956948D01*
G37*
G36*
X63622228Y-64956948D02*
G01*
X63767117Y-65016963D01*
X63897515Y-65104092D01*
X64008408Y-65214985D01*
X64095537Y-65345383D01*
X64155552Y-65490272D01*
X64186148Y-65644086D01*
X64186148Y-65800914D01*
X64155552Y-65954728D01*
X64095537Y-66099617D01*
X64008408Y-66230015D01*
X63897515Y-66340908D01*
X63767117Y-66428037D01*
X63622228Y-66488052D01*
X63468414Y-66518648D01*
X63311586Y-66518648D01*
X63157772Y-66488052D01*
X63012883Y-66428037D01*
X62882485Y-66340908D01*
X62771592Y-66230015D01*
X62684463Y-66099617D01*
X62624448Y-65954728D01*
X62593852Y-65800914D01*
X62593852Y-65644086D01*
X62624448Y-65490272D01*
X62684463Y-65345383D01*
X62771592Y-65214985D01*
X62882485Y-65104092D01*
X63012883Y-65016963D01*
X63157772Y-64956948D01*
X63311586Y-64926352D01*
X63468414Y-64926352D01*
X63622228Y-64956948D01*
G37*
G36*
X122810168Y-62461445D02*
G01*
X123034025Y-62534181D01*
X123243748Y-62641040D01*
X123434172Y-62779391D01*
X123600609Y-62945828D01*
X123738960Y-63136252D01*
X123845819Y-63345975D01*
X123918555Y-63569832D01*
X123955376Y-63802311D01*
X123955376Y-64037689D01*
X123918555Y-64270168D01*
X123845819Y-64494025D01*
X123738960Y-64703748D01*
X123600609Y-64894172D01*
X123434172Y-65060609D01*
X123243748Y-65198960D01*
X123034025Y-65305819D01*
X122810168Y-65378555D01*
X122577689Y-65415376D01*
X122342311Y-65415376D01*
X122109832Y-65378555D01*
X121885975Y-65305819D01*
X121676252Y-65198960D01*
X121485828Y-65060609D01*
X121319391Y-64894172D01*
X121181040Y-64703748D01*
X121074181Y-64494025D01*
X121001445Y-64270168D01*
X120964624Y-64037689D01*
X120964624Y-63802311D01*
X121001445Y-63569832D01*
X121074181Y-63345975D01*
X121181040Y-63136252D01*
X121319391Y-62945828D01*
X121485828Y-62779391D01*
X121676252Y-62641040D01*
X121885975Y-62534181D01*
X122109832Y-62461445D01*
X122342311Y-62424624D01*
X122577689Y-62424624D01*
X122810168Y-62461445D01*
G37*
G36*
X46286537Y-62397724D02*
G01*
X46351421Y-62441079D01*
X46394776Y-62505963D01*
X46410000Y-62582500D01*
X46410000Y-63782500D01*
X46394776Y-63859037D01*
X46351421Y-63923921D01*
X46286537Y-63967276D01*
X46210000Y-63982500D01*
X45010000Y-63982500D01*
X44933463Y-63967276D01*
X44868579Y-63923921D01*
X44825224Y-63859037D01*
X44810000Y-63782500D01*
X44810000Y-62582500D01*
X44825224Y-62505963D01*
X44868579Y-62441079D01*
X44933463Y-62397724D01*
X45010000Y-62382500D01*
X46210000Y-62382500D01*
X46286537Y-62397724D01*
G37*
G36*
X63622228Y-62416948D02*
G01*
X63767117Y-62476963D01*
X63897515Y-62564092D01*
X64008408Y-62674985D01*
X64095537Y-62805383D01*
X64155552Y-62950272D01*
X64186148Y-63104086D01*
X64186148Y-63260914D01*
X64155552Y-63414728D01*
X64095537Y-63559617D01*
X64008408Y-63690015D01*
X63897515Y-63800908D01*
X63767117Y-63888037D01*
X63622228Y-63948052D01*
X63468414Y-63978648D01*
X63311586Y-63978648D01*
X63157772Y-63948052D01*
X63012883Y-63888037D01*
X62882485Y-63800908D01*
X62771592Y-63690015D01*
X62684463Y-63559617D01*
X62624448Y-63414728D01*
X62593852Y-63260914D01*
X62593852Y-63104086D01*
X62624448Y-62950272D01*
X62684463Y-62805383D01*
X62771592Y-62674985D01*
X62882485Y-62564092D01*
X63012883Y-62476963D01*
X63157772Y-62416948D01*
X63311586Y-62386352D01*
X63468414Y-62386352D01*
X63622228Y-62416948D01*
G37*
M02*
