M48
; DRILL file {KiCad 9.0.4} date 2025-11-01T07:57:31+0100
; FORMAT={-:-/ absolute / metric / decimal}
; #@! TF.CreationDate,2025-11-01T07:57:31+01:00
; #@! TF.GenerationSoftware,Kicad,Pcbnew,9.0.4
; #@! TF.FileFunction,NonPlated,1,2,NPTH
FMAT,2
METRIC
; #@! TA.AperFunction,NonPlated,NPTH,ComponentDrill
T1C1.702
; #@! TA.AperFunction,NonPlated,NPTH,ComponentDrill
T2C3.000
; #@! TA.AperFunction,NonPlated,NPTH,ComponentDrill
T3C3.988
%
G90
G05
T1
X78.72Y-154.799
X78.84Y-81.0
X78.84Y-99.0
X78.84Y-117.0
X83.8Y-146.0
X89.0Y-81.0
X89.0Y-99.0
X89.0Y-117.0
X91.841Y-136.99
X96.84Y-75.0
X96.84Y-93.0
X96.84Y-111.0
X100.64Y-131.91
X107.0Y-75.0
X107.0Y-93.0
X107.0Y-111.0
X111.84Y-129.0
X114.84Y-69.0
X114.84Y-87.0
X114.84Y-105.0
X122.0Y-129.0
X125.0Y-69.0
X125.0Y-87.0
X125.0Y-105.0
X132.84Y-75.0
X132.84Y-111.0
X132.92Y-93.0
X143.0Y-75.0
X143.0Y-111.0
X143.08Y-93.0
X150.84Y-81.0
X150.84Y-99.0
X150.84Y-117.0
X161.0Y-81.0
X161.0Y-99.0
X161.0Y-117.0
X168.84Y-81.0
X168.84Y-99.0
X168.84Y-117.0
X179.0Y-81.0
X179.0Y-99.0
X179.0Y-117.0
T2
X77.155Y-152.429
X78.131Y-145.66
X80.11Y-78.46
X80.11Y-96.46
X80.11Y-114.46
X86.46Y-75.92
X86.46Y-93.92
X86.46Y-111.92
X91.671Y-134.155
X95.9Y-128.781
X98.11Y-72.46
X98.11Y-90.46
X98.11Y-108.46
X104.46Y-69.92
X104.46Y-87.92
X104.46Y-105.92
X113.11Y-126.46
X116.11Y-66.46
X116.11Y-84.46
X116.11Y-102.46
X119.46Y-123.92
X122.46Y-63.92
X122.46Y-81.92
X122.46Y-99.92
X134.11Y-72.46
X134.11Y-108.46
X134.19Y-90.46
X140.46Y-69.92
X140.46Y-105.92
X140.54Y-87.92
X152.11Y-78.46
X152.11Y-96.46
X152.11Y-114.46
X158.46Y-75.92
X158.46Y-93.92
X158.46Y-111.92
X170.11Y-78.46
X170.11Y-96.46
X170.11Y-114.46
X176.46Y-75.92
X176.46Y-93.92
X176.46Y-111.92
T3
X81.26Y-150.399
X83.92Y-81.0
X83.92Y-99.0
X83.92Y-117.0
X96.241Y-134.45
X101.92Y-75.0
X101.92Y-93.0
X101.92Y-111.0
X116.92Y-129.0
X119.92Y-69.0
X119.92Y-87.0
X119.92Y-105.0
X137.92Y-75.0
X137.92Y-111.0
X138.0Y-93.0
X155.92Y-81.0
X155.92Y-99.0
X155.92Y-117.0
X173.92Y-81.0
X173.92Y-99.0
X173.92Y-117.0
M30
