%TF.GenerationSoftware,KiCad,Pcbnew,9.0.4*%
%TF.CreationDate,2025-11-01T07:57:15+01:00*%
%TF.ProjectId,kbv3-right,6b627633-2d72-4696-9768-742e6b696361,rev?*%
%TF.SameCoordinates,Original*%
%TF.FileFunction,Legend,Bot*%
%TF.FilePolarity,Positive*%
%FSLAX46Y46*%
G04 Gerber Fmt 4.6, Leading zero omitted, Abs format (unit mm)*
G04 Created by KiCad (PCBNEW 9.0.4) date 2025-11-01 07:57:15*
%MOMM*%
%LPD*%
G01*
G04 APERTURE LIST*
%ADD10C,0.150000*%
G04 APERTURE END LIST*
D10*
X121729523Y-97152200D02*
X121586666Y-97199819D01*
X121586666Y-97199819D02*
X121348571Y-97199819D01*
X121348571Y-97199819D02*
X121253333Y-97152200D01*
X121253333Y-97152200D02*
X121205714Y-97104580D01*
X121205714Y-97104580D02*
X121158095Y-97009342D01*
X121158095Y-97009342D02*
X121158095Y-96914104D01*
X121158095Y-96914104D02*
X121205714Y-96818866D01*
X121205714Y-96818866D02*
X121253333Y-96771247D01*
X121253333Y-96771247D02*
X121348571Y-96723628D01*
X121348571Y-96723628D02*
X121539047Y-96676009D01*
X121539047Y-96676009D02*
X121634285Y-96628390D01*
X121634285Y-96628390D02*
X121681904Y-96580771D01*
X121681904Y-96580771D02*
X121729523Y-96485533D01*
X121729523Y-96485533D02*
X121729523Y-96390295D01*
X121729523Y-96390295D02*
X121681904Y-96295057D01*
X121681904Y-96295057D02*
X121634285Y-96247438D01*
X121634285Y-96247438D02*
X121539047Y-96199819D01*
X121539047Y-96199819D02*
X121300952Y-96199819D01*
X121300952Y-96199819D02*
X121158095Y-96247438D01*
X120824761Y-96199819D02*
X120586666Y-97199819D01*
X120586666Y-97199819D02*
X120396190Y-96485533D01*
X120396190Y-96485533D02*
X120205714Y-97199819D01*
X120205714Y-97199819D02*
X119967619Y-96199819D01*
X119062857Y-97199819D02*
X119634285Y-97199819D01*
X119348571Y-97199819D02*
X119348571Y-96199819D01*
X119348571Y-96199819D02*
X119443809Y-96342676D01*
X119443809Y-96342676D02*
X119539047Y-96437914D01*
X119539047Y-96437914D02*
X119634285Y-96485533D01*
X118491428Y-96628390D02*
X118586666Y-96580771D01*
X118586666Y-96580771D02*
X118634285Y-96533152D01*
X118634285Y-96533152D02*
X118681904Y-96437914D01*
X118681904Y-96437914D02*
X118681904Y-96390295D01*
X118681904Y-96390295D02*
X118634285Y-96295057D01*
X118634285Y-96295057D02*
X118586666Y-96247438D01*
X118586666Y-96247438D02*
X118491428Y-96199819D01*
X118491428Y-96199819D02*
X118300952Y-96199819D01*
X118300952Y-96199819D02*
X118205714Y-96247438D01*
X118205714Y-96247438D02*
X118158095Y-96295057D01*
X118158095Y-96295057D02*
X118110476Y-96390295D01*
X118110476Y-96390295D02*
X118110476Y-96437914D01*
X118110476Y-96437914D02*
X118158095Y-96533152D01*
X118158095Y-96533152D02*
X118205714Y-96580771D01*
X118205714Y-96580771D02*
X118300952Y-96628390D01*
X118300952Y-96628390D02*
X118491428Y-96628390D01*
X118491428Y-96628390D02*
X118586666Y-96676009D01*
X118586666Y-96676009D02*
X118634285Y-96723628D01*
X118634285Y-96723628D02*
X118681904Y-96818866D01*
X118681904Y-96818866D02*
X118681904Y-97009342D01*
X118681904Y-97009342D02*
X118634285Y-97104580D01*
X118634285Y-97104580D02*
X118586666Y-97152200D01*
X118586666Y-97152200D02*
X118491428Y-97199819D01*
X118491428Y-97199819D02*
X118300952Y-97199819D01*
X118300952Y-97199819D02*
X118205714Y-97152200D01*
X118205714Y-97152200D02*
X118158095Y-97104580D01*
X118158095Y-97104580D02*
X118110476Y-97009342D01*
X118110476Y-97009342D02*
X118110476Y-96818866D01*
X118110476Y-96818866D02*
X118158095Y-96723628D01*
X118158095Y-96723628D02*
X118205714Y-96676009D01*
X118205714Y-96676009D02*
X118300952Y-96628390D01*
X121253332Y-61152200D02*
X121110475Y-61199819D01*
X121110475Y-61199819D02*
X120872380Y-61199819D01*
X120872380Y-61199819D02*
X120777142Y-61152200D01*
X120777142Y-61152200D02*
X120729523Y-61104580D01*
X120729523Y-61104580D02*
X120681904Y-61009342D01*
X120681904Y-61009342D02*
X120681904Y-60914104D01*
X120681904Y-60914104D02*
X120729523Y-60818866D01*
X120729523Y-60818866D02*
X120777142Y-60771247D01*
X120777142Y-60771247D02*
X120872380Y-60723628D01*
X120872380Y-60723628D02*
X121062856Y-60676009D01*
X121062856Y-60676009D02*
X121158094Y-60628390D01*
X121158094Y-60628390D02*
X121205713Y-60580771D01*
X121205713Y-60580771D02*
X121253332Y-60485533D01*
X121253332Y-60485533D02*
X121253332Y-60390295D01*
X121253332Y-60390295D02*
X121205713Y-60295057D01*
X121205713Y-60295057D02*
X121158094Y-60247438D01*
X121158094Y-60247438D02*
X121062856Y-60199819D01*
X121062856Y-60199819D02*
X120824761Y-60199819D01*
X120824761Y-60199819D02*
X120681904Y-60247438D01*
X120348570Y-60199819D02*
X120110475Y-61199819D01*
X120110475Y-61199819D02*
X119919999Y-60485533D01*
X119919999Y-60485533D02*
X119729523Y-61199819D01*
X119729523Y-61199819D02*
X119491428Y-60199819D01*
X118681904Y-60533152D02*
X118681904Y-61199819D01*
X118919999Y-60152200D02*
X119158094Y-60866485D01*
X119158094Y-60866485D02*
X118539047Y-60866485D01*
X175253332Y-91152200D02*
X175110475Y-91199819D01*
X175110475Y-91199819D02*
X174872380Y-91199819D01*
X174872380Y-91199819D02*
X174777142Y-91152200D01*
X174777142Y-91152200D02*
X174729523Y-91104580D01*
X174729523Y-91104580D02*
X174681904Y-91009342D01*
X174681904Y-91009342D02*
X174681904Y-90914104D01*
X174681904Y-90914104D02*
X174729523Y-90818866D01*
X174729523Y-90818866D02*
X174777142Y-90771247D01*
X174777142Y-90771247D02*
X174872380Y-90723628D01*
X174872380Y-90723628D02*
X175062856Y-90676009D01*
X175062856Y-90676009D02*
X175158094Y-90628390D01*
X175158094Y-90628390D02*
X175205713Y-90580771D01*
X175205713Y-90580771D02*
X175253332Y-90485533D01*
X175253332Y-90485533D02*
X175253332Y-90390295D01*
X175253332Y-90390295D02*
X175205713Y-90295057D01*
X175205713Y-90295057D02*
X175158094Y-90247438D01*
X175158094Y-90247438D02*
X175062856Y-90199819D01*
X175062856Y-90199819D02*
X174824761Y-90199819D01*
X174824761Y-90199819D02*
X174681904Y-90247438D01*
X174348570Y-90199819D02*
X174110475Y-91199819D01*
X174110475Y-91199819D02*
X173919999Y-90485533D01*
X173919999Y-90485533D02*
X173729523Y-91199819D01*
X173729523Y-91199819D02*
X173491428Y-90199819D01*
X173205713Y-90199819D02*
X172539047Y-90199819D01*
X172539047Y-90199819D02*
X172967618Y-91199819D01*
X139729523Y-103152200D02*
X139586666Y-103199819D01*
X139586666Y-103199819D02*
X139348571Y-103199819D01*
X139348571Y-103199819D02*
X139253333Y-103152200D01*
X139253333Y-103152200D02*
X139205714Y-103104580D01*
X139205714Y-103104580D02*
X139158095Y-103009342D01*
X139158095Y-103009342D02*
X139158095Y-102914104D01*
X139158095Y-102914104D02*
X139205714Y-102818866D01*
X139205714Y-102818866D02*
X139253333Y-102771247D01*
X139253333Y-102771247D02*
X139348571Y-102723628D01*
X139348571Y-102723628D02*
X139539047Y-102676009D01*
X139539047Y-102676009D02*
X139634285Y-102628390D01*
X139634285Y-102628390D02*
X139681904Y-102580771D01*
X139681904Y-102580771D02*
X139729523Y-102485533D01*
X139729523Y-102485533D02*
X139729523Y-102390295D01*
X139729523Y-102390295D02*
X139681904Y-102295057D01*
X139681904Y-102295057D02*
X139634285Y-102247438D01*
X139634285Y-102247438D02*
X139539047Y-102199819D01*
X139539047Y-102199819D02*
X139300952Y-102199819D01*
X139300952Y-102199819D02*
X139158095Y-102247438D01*
X138824761Y-102199819D02*
X138586666Y-103199819D01*
X138586666Y-103199819D02*
X138396190Y-102485533D01*
X138396190Y-102485533D02*
X138205714Y-103199819D01*
X138205714Y-103199819D02*
X137967619Y-102199819D01*
X137062857Y-103199819D02*
X137634285Y-103199819D01*
X137348571Y-103199819D02*
X137348571Y-102199819D01*
X137348571Y-102199819D02*
X137443809Y-102342676D01*
X137443809Y-102342676D02*
X137539047Y-102437914D01*
X137539047Y-102437914D02*
X137634285Y-102485533D01*
X136586666Y-103199819D02*
X136396190Y-103199819D01*
X136396190Y-103199819D02*
X136300952Y-103152200D01*
X136300952Y-103152200D02*
X136253333Y-103104580D01*
X136253333Y-103104580D02*
X136158095Y-102961723D01*
X136158095Y-102961723D02*
X136110476Y-102771247D01*
X136110476Y-102771247D02*
X136110476Y-102390295D01*
X136110476Y-102390295D02*
X136158095Y-102295057D01*
X136158095Y-102295057D02*
X136205714Y-102247438D01*
X136205714Y-102247438D02*
X136300952Y-102199819D01*
X136300952Y-102199819D02*
X136491428Y-102199819D01*
X136491428Y-102199819D02*
X136586666Y-102247438D01*
X136586666Y-102247438D02*
X136634285Y-102295057D01*
X136634285Y-102295057D02*
X136681904Y-102390295D01*
X136681904Y-102390295D02*
X136681904Y-102628390D01*
X136681904Y-102628390D02*
X136634285Y-102723628D01*
X136634285Y-102723628D02*
X136586666Y-102771247D01*
X136586666Y-102771247D02*
X136491428Y-102818866D01*
X136491428Y-102818866D02*
X136300952Y-102818866D01*
X136300952Y-102818866D02*
X136205714Y-102771247D01*
X136205714Y-102771247D02*
X136158095Y-102723628D01*
X136158095Y-102723628D02*
X136110476Y-102628390D01*
X139333332Y-85152200D02*
X139190475Y-85199819D01*
X139190475Y-85199819D02*
X138952380Y-85199819D01*
X138952380Y-85199819D02*
X138857142Y-85152200D01*
X138857142Y-85152200D02*
X138809523Y-85104580D01*
X138809523Y-85104580D02*
X138761904Y-85009342D01*
X138761904Y-85009342D02*
X138761904Y-84914104D01*
X138761904Y-84914104D02*
X138809523Y-84818866D01*
X138809523Y-84818866D02*
X138857142Y-84771247D01*
X138857142Y-84771247D02*
X138952380Y-84723628D01*
X138952380Y-84723628D02*
X139142856Y-84676009D01*
X139142856Y-84676009D02*
X139238094Y-84628390D01*
X139238094Y-84628390D02*
X139285713Y-84580771D01*
X139285713Y-84580771D02*
X139333332Y-84485533D01*
X139333332Y-84485533D02*
X139333332Y-84390295D01*
X139333332Y-84390295D02*
X139285713Y-84295057D01*
X139285713Y-84295057D02*
X139238094Y-84247438D01*
X139238094Y-84247438D02*
X139142856Y-84199819D01*
X139142856Y-84199819D02*
X138904761Y-84199819D01*
X138904761Y-84199819D02*
X138761904Y-84247438D01*
X138428570Y-84199819D02*
X138190475Y-85199819D01*
X138190475Y-85199819D02*
X137999999Y-84485533D01*
X137999999Y-84485533D02*
X137809523Y-85199819D01*
X137809523Y-85199819D02*
X137571428Y-84199819D01*
X137142856Y-85199819D02*
X136952380Y-85199819D01*
X136952380Y-85199819D02*
X136857142Y-85152200D01*
X136857142Y-85152200D02*
X136809523Y-85104580D01*
X136809523Y-85104580D02*
X136714285Y-84961723D01*
X136714285Y-84961723D02*
X136666666Y-84771247D01*
X136666666Y-84771247D02*
X136666666Y-84390295D01*
X136666666Y-84390295D02*
X136714285Y-84295057D01*
X136714285Y-84295057D02*
X136761904Y-84247438D01*
X136761904Y-84247438D02*
X136857142Y-84199819D01*
X136857142Y-84199819D02*
X137047618Y-84199819D01*
X137047618Y-84199819D02*
X137142856Y-84247438D01*
X137142856Y-84247438D02*
X137190475Y-84295057D01*
X137190475Y-84295057D02*
X137238094Y-84390295D01*
X137238094Y-84390295D02*
X137238094Y-84628390D01*
X137238094Y-84628390D02*
X137190475Y-84723628D01*
X137190475Y-84723628D02*
X137142856Y-84771247D01*
X137142856Y-84771247D02*
X137047618Y-84818866D01*
X137047618Y-84818866D02*
X136857142Y-84818866D01*
X136857142Y-84818866D02*
X136761904Y-84771247D01*
X136761904Y-84771247D02*
X136714285Y-84723628D01*
X136714285Y-84723628D02*
X136666666Y-84628390D01*
X85253332Y-73152200D02*
X85110475Y-73199819D01*
X85110475Y-73199819D02*
X84872380Y-73199819D01*
X84872380Y-73199819D02*
X84777142Y-73152200D01*
X84777142Y-73152200D02*
X84729523Y-73104580D01*
X84729523Y-73104580D02*
X84681904Y-73009342D01*
X84681904Y-73009342D02*
X84681904Y-72914104D01*
X84681904Y-72914104D02*
X84729523Y-72818866D01*
X84729523Y-72818866D02*
X84777142Y-72771247D01*
X84777142Y-72771247D02*
X84872380Y-72723628D01*
X84872380Y-72723628D02*
X85062856Y-72676009D01*
X85062856Y-72676009D02*
X85158094Y-72628390D01*
X85158094Y-72628390D02*
X85205713Y-72580771D01*
X85205713Y-72580771D02*
X85253332Y-72485533D01*
X85253332Y-72485533D02*
X85253332Y-72390295D01*
X85253332Y-72390295D02*
X85205713Y-72295057D01*
X85205713Y-72295057D02*
X85158094Y-72247438D01*
X85158094Y-72247438D02*
X85062856Y-72199819D01*
X85062856Y-72199819D02*
X84824761Y-72199819D01*
X84824761Y-72199819D02*
X84681904Y-72247438D01*
X84348570Y-72199819D02*
X84110475Y-73199819D01*
X84110475Y-73199819D02*
X83919999Y-72485533D01*
X83919999Y-72485533D02*
X83729523Y-73199819D01*
X83729523Y-73199819D02*
X83491428Y-72199819D01*
X82681904Y-72199819D02*
X82872380Y-72199819D01*
X82872380Y-72199819D02*
X82967618Y-72247438D01*
X82967618Y-72247438D02*
X83015237Y-72295057D01*
X83015237Y-72295057D02*
X83110475Y-72437914D01*
X83110475Y-72437914D02*
X83158094Y-72628390D01*
X83158094Y-72628390D02*
X83158094Y-73009342D01*
X83158094Y-73009342D02*
X83110475Y-73104580D01*
X83110475Y-73104580D02*
X83062856Y-73152200D01*
X83062856Y-73152200D02*
X82967618Y-73199819D01*
X82967618Y-73199819D02*
X82777142Y-73199819D01*
X82777142Y-73199819D02*
X82681904Y-73152200D01*
X82681904Y-73152200D02*
X82634285Y-73104580D01*
X82634285Y-73104580D02*
X82586666Y-73009342D01*
X82586666Y-73009342D02*
X82586666Y-72771247D01*
X82586666Y-72771247D02*
X82634285Y-72676009D01*
X82634285Y-72676009D02*
X82681904Y-72628390D01*
X82681904Y-72628390D02*
X82777142Y-72580771D01*
X82777142Y-72580771D02*
X82967618Y-72580771D01*
X82967618Y-72580771D02*
X83062856Y-72628390D01*
X83062856Y-72628390D02*
X83110475Y-72676009D01*
X83110475Y-72676009D02*
X83158094Y-72771247D01*
X139253332Y-67152200D02*
X139110475Y-67199819D01*
X139110475Y-67199819D02*
X138872380Y-67199819D01*
X138872380Y-67199819D02*
X138777142Y-67152200D01*
X138777142Y-67152200D02*
X138729523Y-67104580D01*
X138729523Y-67104580D02*
X138681904Y-67009342D01*
X138681904Y-67009342D02*
X138681904Y-66914104D01*
X138681904Y-66914104D02*
X138729523Y-66818866D01*
X138729523Y-66818866D02*
X138777142Y-66771247D01*
X138777142Y-66771247D02*
X138872380Y-66723628D01*
X138872380Y-66723628D02*
X139062856Y-66676009D01*
X139062856Y-66676009D02*
X139158094Y-66628390D01*
X139158094Y-66628390D02*
X139205713Y-66580771D01*
X139205713Y-66580771D02*
X139253332Y-66485533D01*
X139253332Y-66485533D02*
X139253332Y-66390295D01*
X139253332Y-66390295D02*
X139205713Y-66295057D01*
X139205713Y-66295057D02*
X139158094Y-66247438D01*
X139158094Y-66247438D02*
X139062856Y-66199819D01*
X139062856Y-66199819D02*
X138824761Y-66199819D01*
X138824761Y-66199819D02*
X138681904Y-66247438D01*
X138348570Y-66199819D02*
X138110475Y-67199819D01*
X138110475Y-67199819D02*
X137919999Y-66485533D01*
X137919999Y-66485533D02*
X137729523Y-67199819D01*
X137729523Y-67199819D02*
X137491428Y-66199819D01*
X137205713Y-66199819D02*
X136586666Y-66199819D01*
X136586666Y-66199819D02*
X136919999Y-66580771D01*
X136919999Y-66580771D02*
X136777142Y-66580771D01*
X136777142Y-66580771D02*
X136681904Y-66628390D01*
X136681904Y-66628390D02*
X136634285Y-66676009D01*
X136634285Y-66676009D02*
X136586666Y-66771247D01*
X136586666Y-66771247D02*
X136586666Y-67009342D01*
X136586666Y-67009342D02*
X136634285Y-67104580D01*
X136634285Y-67104580D02*
X136681904Y-67152200D01*
X136681904Y-67152200D02*
X136777142Y-67199819D01*
X136777142Y-67199819D02*
X137062856Y-67199819D01*
X137062856Y-67199819D02*
X137158094Y-67152200D01*
X137158094Y-67152200D02*
X137205713Y-67104580D01*
X175253332Y-73152200D02*
X175110475Y-73199819D01*
X175110475Y-73199819D02*
X174872380Y-73199819D01*
X174872380Y-73199819D02*
X174777142Y-73152200D01*
X174777142Y-73152200D02*
X174729523Y-73104580D01*
X174729523Y-73104580D02*
X174681904Y-73009342D01*
X174681904Y-73009342D02*
X174681904Y-72914104D01*
X174681904Y-72914104D02*
X174729523Y-72818866D01*
X174729523Y-72818866D02*
X174777142Y-72771247D01*
X174777142Y-72771247D02*
X174872380Y-72723628D01*
X174872380Y-72723628D02*
X175062856Y-72676009D01*
X175062856Y-72676009D02*
X175158094Y-72628390D01*
X175158094Y-72628390D02*
X175205713Y-72580771D01*
X175205713Y-72580771D02*
X175253332Y-72485533D01*
X175253332Y-72485533D02*
X175253332Y-72390295D01*
X175253332Y-72390295D02*
X175205713Y-72295057D01*
X175205713Y-72295057D02*
X175158094Y-72247438D01*
X175158094Y-72247438D02*
X175062856Y-72199819D01*
X175062856Y-72199819D02*
X174824761Y-72199819D01*
X174824761Y-72199819D02*
X174681904Y-72247438D01*
X174348570Y-72199819D02*
X174110475Y-73199819D01*
X174110475Y-73199819D02*
X173919999Y-72485533D01*
X173919999Y-72485533D02*
X173729523Y-73199819D01*
X173729523Y-73199819D02*
X173491428Y-72199819D01*
X172586666Y-73199819D02*
X173158094Y-73199819D01*
X172872380Y-73199819D02*
X172872380Y-72199819D01*
X172872380Y-72199819D02*
X172967618Y-72342676D01*
X172967618Y-72342676D02*
X173062856Y-72437914D01*
X173062856Y-72437914D02*
X173158094Y-72485533D01*
X118729523Y-121152200D02*
X118586666Y-121199819D01*
X118586666Y-121199819D02*
X118348571Y-121199819D01*
X118348571Y-121199819D02*
X118253333Y-121152200D01*
X118253333Y-121152200D02*
X118205714Y-121104580D01*
X118205714Y-121104580D02*
X118158095Y-121009342D01*
X118158095Y-121009342D02*
X118158095Y-120914104D01*
X118158095Y-120914104D02*
X118205714Y-120818866D01*
X118205714Y-120818866D02*
X118253333Y-120771247D01*
X118253333Y-120771247D02*
X118348571Y-120723628D01*
X118348571Y-120723628D02*
X118539047Y-120676009D01*
X118539047Y-120676009D02*
X118634285Y-120628390D01*
X118634285Y-120628390D02*
X118681904Y-120580771D01*
X118681904Y-120580771D02*
X118729523Y-120485533D01*
X118729523Y-120485533D02*
X118729523Y-120390295D01*
X118729523Y-120390295D02*
X118681904Y-120295057D01*
X118681904Y-120295057D02*
X118634285Y-120247438D01*
X118634285Y-120247438D02*
X118539047Y-120199819D01*
X118539047Y-120199819D02*
X118300952Y-120199819D01*
X118300952Y-120199819D02*
X118158095Y-120247438D01*
X117824761Y-120199819D02*
X117586666Y-121199819D01*
X117586666Y-121199819D02*
X117396190Y-120485533D01*
X117396190Y-120485533D02*
X117205714Y-121199819D01*
X117205714Y-121199819D02*
X116967619Y-120199819D01*
X116062857Y-121199819D02*
X116634285Y-121199819D01*
X116348571Y-121199819D02*
X116348571Y-120199819D01*
X116348571Y-120199819D02*
X116443809Y-120342676D01*
X116443809Y-120342676D02*
X116539047Y-120437914D01*
X116539047Y-120437914D02*
X116634285Y-120485533D01*
X115158095Y-120199819D02*
X115634285Y-120199819D01*
X115634285Y-120199819D02*
X115681904Y-120676009D01*
X115681904Y-120676009D02*
X115634285Y-120628390D01*
X115634285Y-120628390D02*
X115539047Y-120580771D01*
X115539047Y-120580771D02*
X115300952Y-120580771D01*
X115300952Y-120580771D02*
X115205714Y-120628390D01*
X115205714Y-120628390D02*
X115158095Y-120676009D01*
X115158095Y-120676009D02*
X115110476Y-120771247D01*
X115110476Y-120771247D02*
X115110476Y-121009342D01*
X115110476Y-121009342D02*
X115158095Y-121104580D01*
X115158095Y-121104580D02*
X115205714Y-121152200D01*
X115205714Y-121152200D02*
X115300952Y-121199819D01*
X115300952Y-121199819D02*
X115539047Y-121199819D01*
X115539047Y-121199819D02*
X115634285Y-121152200D01*
X115634285Y-121152200D02*
X115681904Y-121104580D01*
X121729523Y-79152200D02*
X121586666Y-79199819D01*
X121586666Y-79199819D02*
X121348571Y-79199819D01*
X121348571Y-79199819D02*
X121253333Y-79152200D01*
X121253333Y-79152200D02*
X121205714Y-79104580D01*
X121205714Y-79104580D02*
X121158095Y-79009342D01*
X121158095Y-79009342D02*
X121158095Y-78914104D01*
X121158095Y-78914104D02*
X121205714Y-78818866D01*
X121205714Y-78818866D02*
X121253333Y-78771247D01*
X121253333Y-78771247D02*
X121348571Y-78723628D01*
X121348571Y-78723628D02*
X121539047Y-78676009D01*
X121539047Y-78676009D02*
X121634285Y-78628390D01*
X121634285Y-78628390D02*
X121681904Y-78580771D01*
X121681904Y-78580771D02*
X121729523Y-78485533D01*
X121729523Y-78485533D02*
X121729523Y-78390295D01*
X121729523Y-78390295D02*
X121681904Y-78295057D01*
X121681904Y-78295057D02*
X121634285Y-78247438D01*
X121634285Y-78247438D02*
X121539047Y-78199819D01*
X121539047Y-78199819D02*
X121300952Y-78199819D01*
X121300952Y-78199819D02*
X121158095Y-78247438D01*
X120824761Y-78199819D02*
X120586666Y-79199819D01*
X120586666Y-79199819D02*
X120396190Y-78485533D01*
X120396190Y-78485533D02*
X120205714Y-79199819D01*
X120205714Y-79199819D02*
X119967619Y-78199819D01*
X119062857Y-79199819D02*
X119634285Y-79199819D01*
X119348571Y-79199819D02*
X119348571Y-78199819D01*
X119348571Y-78199819D02*
X119443809Y-78342676D01*
X119443809Y-78342676D02*
X119539047Y-78437914D01*
X119539047Y-78437914D02*
X119634285Y-78485533D01*
X118443809Y-78199819D02*
X118348571Y-78199819D01*
X118348571Y-78199819D02*
X118253333Y-78247438D01*
X118253333Y-78247438D02*
X118205714Y-78295057D01*
X118205714Y-78295057D02*
X118158095Y-78390295D01*
X118158095Y-78390295D02*
X118110476Y-78580771D01*
X118110476Y-78580771D02*
X118110476Y-78818866D01*
X118110476Y-78818866D02*
X118158095Y-79009342D01*
X118158095Y-79009342D02*
X118205714Y-79104580D01*
X118205714Y-79104580D02*
X118253333Y-79152200D01*
X118253333Y-79152200D02*
X118348571Y-79199819D01*
X118348571Y-79199819D02*
X118443809Y-79199819D01*
X118443809Y-79199819D02*
X118539047Y-79152200D01*
X118539047Y-79152200D02*
X118586666Y-79104580D01*
X118586666Y-79104580D02*
X118634285Y-79009342D01*
X118634285Y-79009342D02*
X118681904Y-78818866D01*
X118681904Y-78818866D02*
X118681904Y-78580771D01*
X118681904Y-78580771D02*
X118634285Y-78390295D01*
X118634285Y-78390295D02*
X118586666Y-78295057D01*
X118586666Y-78295057D02*
X118539047Y-78247438D01*
X118539047Y-78247438D02*
X118443809Y-78199819D01*
X175729523Y-109152200D02*
X175586666Y-109199819D01*
X175586666Y-109199819D02*
X175348571Y-109199819D01*
X175348571Y-109199819D02*
X175253333Y-109152200D01*
X175253333Y-109152200D02*
X175205714Y-109104580D01*
X175205714Y-109104580D02*
X175158095Y-109009342D01*
X175158095Y-109009342D02*
X175158095Y-108914104D01*
X175158095Y-108914104D02*
X175205714Y-108818866D01*
X175205714Y-108818866D02*
X175253333Y-108771247D01*
X175253333Y-108771247D02*
X175348571Y-108723628D01*
X175348571Y-108723628D02*
X175539047Y-108676009D01*
X175539047Y-108676009D02*
X175634285Y-108628390D01*
X175634285Y-108628390D02*
X175681904Y-108580771D01*
X175681904Y-108580771D02*
X175729523Y-108485533D01*
X175729523Y-108485533D02*
X175729523Y-108390295D01*
X175729523Y-108390295D02*
X175681904Y-108295057D01*
X175681904Y-108295057D02*
X175634285Y-108247438D01*
X175634285Y-108247438D02*
X175539047Y-108199819D01*
X175539047Y-108199819D02*
X175300952Y-108199819D01*
X175300952Y-108199819D02*
X175158095Y-108247438D01*
X174824761Y-108199819D02*
X174586666Y-109199819D01*
X174586666Y-109199819D02*
X174396190Y-108485533D01*
X174396190Y-108485533D02*
X174205714Y-109199819D01*
X174205714Y-109199819D02*
X173967619Y-108199819D01*
X173634285Y-108295057D02*
X173586666Y-108247438D01*
X173586666Y-108247438D02*
X173491428Y-108199819D01*
X173491428Y-108199819D02*
X173253333Y-108199819D01*
X173253333Y-108199819D02*
X173158095Y-108247438D01*
X173158095Y-108247438D02*
X173110476Y-108295057D01*
X173110476Y-108295057D02*
X173062857Y-108390295D01*
X173062857Y-108390295D02*
X173062857Y-108485533D01*
X173062857Y-108485533D02*
X173110476Y-108628390D01*
X173110476Y-108628390D02*
X173681904Y-109199819D01*
X173681904Y-109199819D02*
X173062857Y-109199819D01*
X172110476Y-109199819D02*
X172681904Y-109199819D01*
X172396190Y-109199819D02*
X172396190Y-108199819D01*
X172396190Y-108199819D02*
X172491428Y-108342676D01*
X172491428Y-108342676D02*
X172586666Y-108437914D01*
X172586666Y-108437914D02*
X172681904Y-108485533D01*
X157253332Y-73152200D02*
X157110475Y-73199819D01*
X157110475Y-73199819D02*
X156872380Y-73199819D01*
X156872380Y-73199819D02*
X156777142Y-73152200D01*
X156777142Y-73152200D02*
X156729523Y-73104580D01*
X156729523Y-73104580D02*
X156681904Y-73009342D01*
X156681904Y-73009342D02*
X156681904Y-72914104D01*
X156681904Y-72914104D02*
X156729523Y-72818866D01*
X156729523Y-72818866D02*
X156777142Y-72771247D01*
X156777142Y-72771247D02*
X156872380Y-72723628D01*
X156872380Y-72723628D02*
X157062856Y-72676009D01*
X157062856Y-72676009D02*
X157158094Y-72628390D01*
X157158094Y-72628390D02*
X157205713Y-72580771D01*
X157205713Y-72580771D02*
X157253332Y-72485533D01*
X157253332Y-72485533D02*
X157253332Y-72390295D01*
X157253332Y-72390295D02*
X157205713Y-72295057D01*
X157205713Y-72295057D02*
X157158094Y-72247438D01*
X157158094Y-72247438D02*
X157062856Y-72199819D01*
X157062856Y-72199819D02*
X156824761Y-72199819D01*
X156824761Y-72199819D02*
X156681904Y-72247438D01*
X156348570Y-72199819D02*
X156110475Y-73199819D01*
X156110475Y-73199819D02*
X155919999Y-72485533D01*
X155919999Y-72485533D02*
X155729523Y-73199819D01*
X155729523Y-73199819D02*
X155491428Y-72199819D01*
X155158094Y-72295057D02*
X155110475Y-72247438D01*
X155110475Y-72247438D02*
X155015237Y-72199819D01*
X155015237Y-72199819D02*
X154777142Y-72199819D01*
X154777142Y-72199819D02*
X154681904Y-72247438D01*
X154681904Y-72247438D02*
X154634285Y-72295057D01*
X154634285Y-72295057D02*
X154586666Y-72390295D01*
X154586666Y-72390295D02*
X154586666Y-72485533D01*
X154586666Y-72485533D02*
X154634285Y-72628390D01*
X154634285Y-72628390D02*
X155205713Y-73199819D01*
X155205713Y-73199819D02*
X154586666Y-73199819D01*
X85729523Y-91152200D02*
X85586666Y-91199819D01*
X85586666Y-91199819D02*
X85348571Y-91199819D01*
X85348571Y-91199819D02*
X85253333Y-91152200D01*
X85253333Y-91152200D02*
X85205714Y-91104580D01*
X85205714Y-91104580D02*
X85158095Y-91009342D01*
X85158095Y-91009342D02*
X85158095Y-90914104D01*
X85158095Y-90914104D02*
X85205714Y-90818866D01*
X85205714Y-90818866D02*
X85253333Y-90771247D01*
X85253333Y-90771247D02*
X85348571Y-90723628D01*
X85348571Y-90723628D02*
X85539047Y-90676009D01*
X85539047Y-90676009D02*
X85634285Y-90628390D01*
X85634285Y-90628390D02*
X85681904Y-90580771D01*
X85681904Y-90580771D02*
X85729523Y-90485533D01*
X85729523Y-90485533D02*
X85729523Y-90390295D01*
X85729523Y-90390295D02*
X85681904Y-90295057D01*
X85681904Y-90295057D02*
X85634285Y-90247438D01*
X85634285Y-90247438D02*
X85539047Y-90199819D01*
X85539047Y-90199819D02*
X85300952Y-90199819D01*
X85300952Y-90199819D02*
X85158095Y-90247438D01*
X84824761Y-90199819D02*
X84586666Y-91199819D01*
X84586666Y-91199819D02*
X84396190Y-90485533D01*
X84396190Y-90485533D02*
X84205714Y-91199819D01*
X84205714Y-91199819D02*
X83967619Y-90199819D01*
X83062857Y-91199819D02*
X83634285Y-91199819D01*
X83348571Y-91199819D02*
X83348571Y-90199819D01*
X83348571Y-90199819D02*
X83443809Y-90342676D01*
X83443809Y-90342676D02*
X83539047Y-90437914D01*
X83539047Y-90437914D02*
X83634285Y-90485533D01*
X82681904Y-90295057D02*
X82634285Y-90247438D01*
X82634285Y-90247438D02*
X82539047Y-90199819D01*
X82539047Y-90199819D02*
X82300952Y-90199819D01*
X82300952Y-90199819D02*
X82205714Y-90247438D01*
X82205714Y-90247438D02*
X82158095Y-90295057D01*
X82158095Y-90295057D02*
X82110476Y-90390295D01*
X82110476Y-90390295D02*
X82110476Y-90485533D01*
X82110476Y-90485533D02*
X82158095Y-90628390D01*
X82158095Y-90628390D02*
X82729523Y-91199819D01*
X82729523Y-91199819D02*
X82110476Y-91199819D01*
X85729523Y-109152200D02*
X85586666Y-109199819D01*
X85586666Y-109199819D02*
X85348571Y-109199819D01*
X85348571Y-109199819D02*
X85253333Y-109152200D01*
X85253333Y-109152200D02*
X85205714Y-109104580D01*
X85205714Y-109104580D02*
X85158095Y-109009342D01*
X85158095Y-109009342D02*
X85158095Y-108914104D01*
X85158095Y-108914104D02*
X85205714Y-108818866D01*
X85205714Y-108818866D02*
X85253333Y-108771247D01*
X85253333Y-108771247D02*
X85348571Y-108723628D01*
X85348571Y-108723628D02*
X85539047Y-108676009D01*
X85539047Y-108676009D02*
X85634285Y-108628390D01*
X85634285Y-108628390D02*
X85681904Y-108580771D01*
X85681904Y-108580771D02*
X85729523Y-108485533D01*
X85729523Y-108485533D02*
X85729523Y-108390295D01*
X85729523Y-108390295D02*
X85681904Y-108295057D01*
X85681904Y-108295057D02*
X85634285Y-108247438D01*
X85634285Y-108247438D02*
X85539047Y-108199819D01*
X85539047Y-108199819D02*
X85300952Y-108199819D01*
X85300952Y-108199819D02*
X85158095Y-108247438D01*
X84824761Y-108199819D02*
X84586666Y-109199819D01*
X84586666Y-109199819D02*
X84396190Y-108485533D01*
X84396190Y-108485533D02*
X84205714Y-109199819D01*
X84205714Y-109199819D02*
X83967619Y-108199819D01*
X83062857Y-109199819D02*
X83634285Y-109199819D01*
X83348571Y-109199819D02*
X83348571Y-108199819D01*
X83348571Y-108199819D02*
X83443809Y-108342676D01*
X83443809Y-108342676D02*
X83539047Y-108437914D01*
X83539047Y-108437914D02*
X83634285Y-108485533D01*
X82205714Y-108199819D02*
X82396190Y-108199819D01*
X82396190Y-108199819D02*
X82491428Y-108247438D01*
X82491428Y-108247438D02*
X82539047Y-108295057D01*
X82539047Y-108295057D02*
X82634285Y-108437914D01*
X82634285Y-108437914D02*
X82681904Y-108628390D01*
X82681904Y-108628390D02*
X82681904Y-109009342D01*
X82681904Y-109009342D02*
X82634285Y-109104580D01*
X82634285Y-109104580D02*
X82586666Y-109152200D01*
X82586666Y-109152200D02*
X82491428Y-109199819D01*
X82491428Y-109199819D02*
X82300952Y-109199819D01*
X82300952Y-109199819D02*
X82205714Y-109152200D01*
X82205714Y-109152200D02*
X82158095Y-109104580D01*
X82158095Y-109104580D02*
X82110476Y-109009342D01*
X82110476Y-109009342D02*
X82110476Y-108771247D01*
X82110476Y-108771247D02*
X82158095Y-108676009D01*
X82158095Y-108676009D02*
X82205714Y-108628390D01*
X82205714Y-108628390D02*
X82300952Y-108580771D01*
X82300952Y-108580771D02*
X82491428Y-108580771D01*
X82491428Y-108580771D02*
X82586666Y-108628390D01*
X82586666Y-108628390D02*
X82634285Y-108676009D01*
X82634285Y-108676009D02*
X82681904Y-108771247D01*
X157729523Y-109152200D02*
X157586666Y-109199819D01*
X157586666Y-109199819D02*
X157348571Y-109199819D01*
X157348571Y-109199819D02*
X157253333Y-109152200D01*
X157253333Y-109152200D02*
X157205714Y-109104580D01*
X157205714Y-109104580D02*
X157158095Y-109009342D01*
X157158095Y-109009342D02*
X157158095Y-108914104D01*
X157158095Y-108914104D02*
X157205714Y-108818866D01*
X157205714Y-108818866D02*
X157253333Y-108771247D01*
X157253333Y-108771247D02*
X157348571Y-108723628D01*
X157348571Y-108723628D02*
X157539047Y-108676009D01*
X157539047Y-108676009D02*
X157634285Y-108628390D01*
X157634285Y-108628390D02*
X157681904Y-108580771D01*
X157681904Y-108580771D02*
X157729523Y-108485533D01*
X157729523Y-108485533D02*
X157729523Y-108390295D01*
X157729523Y-108390295D02*
X157681904Y-108295057D01*
X157681904Y-108295057D02*
X157634285Y-108247438D01*
X157634285Y-108247438D02*
X157539047Y-108199819D01*
X157539047Y-108199819D02*
X157300952Y-108199819D01*
X157300952Y-108199819D02*
X157158095Y-108247438D01*
X156824761Y-108199819D02*
X156586666Y-109199819D01*
X156586666Y-109199819D02*
X156396190Y-108485533D01*
X156396190Y-108485533D02*
X156205714Y-109199819D01*
X156205714Y-109199819D02*
X155967619Y-108199819D01*
X155634285Y-108295057D02*
X155586666Y-108247438D01*
X155586666Y-108247438D02*
X155491428Y-108199819D01*
X155491428Y-108199819D02*
X155253333Y-108199819D01*
X155253333Y-108199819D02*
X155158095Y-108247438D01*
X155158095Y-108247438D02*
X155110476Y-108295057D01*
X155110476Y-108295057D02*
X155062857Y-108390295D01*
X155062857Y-108390295D02*
X155062857Y-108485533D01*
X155062857Y-108485533D02*
X155110476Y-108628390D01*
X155110476Y-108628390D02*
X155681904Y-109199819D01*
X155681904Y-109199819D02*
X155062857Y-109199819D01*
X154443809Y-108199819D02*
X154348571Y-108199819D01*
X154348571Y-108199819D02*
X154253333Y-108247438D01*
X154253333Y-108247438D02*
X154205714Y-108295057D01*
X154205714Y-108295057D02*
X154158095Y-108390295D01*
X154158095Y-108390295D02*
X154110476Y-108580771D01*
X154110476Y-108580771D02*
X154110476Y-108818866D01*
X154110476Y-108818866D02*
X154158095Y-109009342D01*
X154158095Y-109009342D02*
X154205714Y-109104580D01*
X154205714Y-109104580D02*
X154253333Y-109152200D01*
X154253333Y-109152200D02*
X154348571Y-109199819D01*
X154348571Y-109199819D02*
X154443809Y-109199819D01*
X154443809Y-109199819D02*
X154539047Y-109152200D01*
X154539047Y-109152200D02*
X154586666Y-109104580D01*
X154586666Y-109104580D02*
X154634285Y-109009342D01*
X154634285Y-109009342D02*
X154681904Y-108818866D01*
X154681904Y-108818866D02*
X154681904Y-108580771D01*
X154681904Y-108580771D02*
X154634285Y-108390295D01*
X154634285Y-108390295D02*
X154586666Y-108295057D01*
X154586666Y-108295057D02*
X154539047Y-108247438D01*
X154539047Y-108247438D02*
X154443809Y-108199819D01*
X93883784Y-126748843D02*
X93783876Y-126861511D01*
X93783876Y-126861511D02*
X93577679Y-126980559D01*
X93577679Y-126980559D02*
X93471391Y-126986938D01*
X93471391Y-126986938D02*
X93406342Y-126969509D01*
X93406342Y-126969509D02*
X93317484Y-126910840D01*
X93317484Y-126910840D02*
X93269865Y-126828361D01*
X93269865Y-126828361D02*
X93263485Y-126722073D01*
X93263485Y-126722073D02*
X93280915Y-126657024D01*
X93280915Y-126657024D02*
X93339584Y-126568166D01*
X93339584Y-126568166D02*
X93480732Y-126431688D01*
X93480732Y-126431688D02*
X93539401Y-126342830D01*
X93539401Y-126342830D02*
X93556830Y-126277781D01*
X93556830Y-126277781D02*
X93550451Y-126171493D01*
X93550451Y-126171493D02*
X93502832Y-126089014D01*
X93502832Y-126089014D02*
X93413973Y-126030345D01*
X93413973Y-126030345D02*
X93348925Y-126012915D01*
X93348925Y-126012915D02*
X93242636Y-126019295D01*
X93242636Y-126019295D02*
X93036440Y-126138343D01*
X93036440Y-126138343D02*
X92936531Y-126251011D01*
X92624047Y-126376438D02*
X92917850Y-127361511D01*
X92917850Y-127361511D02*
X92395750Y-126838160D01*
X92395750Y-126838160D02*
X92587936Y-127551987D01*
X92587936Y-127551987D02*
X91881739Y-126805009D01*
X91598193Y-128123416D02*
X92093064Y-127837701D01*
X91845628Y-127980559D02*
X91345628Y-127114533D01*
X91345628Y-127114533D02*
X91499536Y-127190632D01*
X91499536Y-127190632D02*
X91629633Y-127225492D01*
X91629633Y-127225492D02*
X91735921Y-127219112D01*
X90522552Y-127974637D02*
X90855885Y-128551987D01*
X90538272Y-127525675D02*
X91101611Y-128025217D01*
X91101611Y-128025217D02*
X90565501Y-128334741D01*
X103253332Y-67152200D02*
X103110475Y-67199819D01*
X103110475Y-67199819D02*
X102872380Y-67199819D01*
X102872380Y-67199819D02*
X102777142Y-67152200D01*
X102777142Y-67152200D02*
X102729523Y-67104580D01*
X102729523Y-67104580D02*
X102681904Y-67009342D01*
X102681904Y-67009342D02*
X102681904Y-66914104D01*
X102681904Y-66914104D02*
X102729523Y-66818866D01*
X102729523Y-66818866D02*
X102777142Y-66771247D01*
X102777142Y-66771247D02*
X102872380Y-66723628D01*
X102872380Y-66723628D02*
X103062856Y-66676009D01*
X103062856Y-66676009D02*
X103158094Y-66628390D01*
X103158094Y-66628390D02*
X103205713Y-66580771D01*
X103205713Y-66580771D02*
X103253332Y-66485533D01*
X103253332Y-66485533D02*
X103253332Y-66390295D01*
X103253332Y-66390295D02*
X103205713Y-66295057D01*
X103205713Y-66295057D02*
X103158094Y-66247438D01*
X103158094Y-66247438D02*
X103062856Y-66199819D01*
X103062856Y-66199819D02*
X102824761Y-66199819D01*
X102824761Y-66199819D02*
X102681904Y-66247438D01*
X102348570Y-66199819D02*
X102110475Y-67199819D01*
X102110475Y-67199819D02*
X101919999Y-66485533D01*
X101919999Y-66485533D02*
X101729523Y-67199819D01*
X101729523Y-67199819D02*
X101491428Y-66199819D01*
X100634285Y-66199819D02*
X101110475Y-66199819D01*
X101110475Y-66199819D02*
X101158094Y-66676009D01*
X101158094Y-66676009D02*
X101110475Y-66628390D01*
X101110475Y-66628390D02*
X101015237Y-66580771D01*
X101015237Y-66580771D02*
X100777142Y-66580771D01*
X100777142Y-66580771D02*
X100681904Y-66628390D01*
X100681904Y-66628390D02*
X100634285Y-66676009D01*
X100634285Y-66676009D02*
X100586666Y-66771247D01*
X100586666Y-66771247D02*
X100586666Y-67009342D01*
X100586666Y-67009342D02*
X100634285Y-67104580D01*
X100634285Y-67104580D02*
X100681904Y-67152200D01*
X100681904Y-67152200D02*
X100777142Y-67199819D01*
X100777142Y-67199819D02*
X101015237Y-67199819D01*
X101015237Y-67199819D02*
X101110475Y-67152200D01*
X101110475Y-67152200D02*
X101158094Y-67104580D01*
X103729523Y-103152200D02*
X103586666Y-103199819D01*
X103586666Y-103199819D02*
X103348571Y-103199819D01*
X103348571Y-103199819D02*
X103253333Y-103152200D01*
X103253333Y-103152200D02*
X103205714Y-103104580D01*
X103205714Y-103104580D02*
X103158095Y-103009342D01*
X103158095Y-103009342D02*
X103158095Y-102914104D01*
X103158095Y-102914104D02*
X103205714Y-102818866D01*
X103205714Y-102818866D02*
X103253333Y-102771247D01*
X103253333Y-102771247D02*
X103348571Y-102723628D01*
X103348571Y-102723628D02*
X103539047Y-102676009D01*
X103539047Y-102676009D02*
X103634285Y-102628390D01*
X103634285Y-102628390D02*
X103681904Y-102580771D01*
X103681904Y-102580771D02*
X103729523Y-102485533D01*
X103729523Y-102485533D02*
X103729523Y-102390295D01*
X103729523Y-102390295D02*
X103681904Y-102295057D01*
X103681904Y-102295057D02*
X103634285Y-102247438D01*
X103634285Y-102247438D02*
X103539047Y-102199819D01*
X103539047Y-102199819D02*
X103300952Y-102199819D01*
X103300952Y-102199819D02*
X103158095Y-102247438D01*
X102824761Y-102199819D02*
X102586666Y-103199819D01*
X102586666Y-103199819D02*
X102396190Y-102485533D01*
X102396190Y-102485533D02*
X102205714Y-103199819D01*
X102205714Y-103199819D02*
X101967619Y-102199819D01*
X101062857Y-103199819D02*
X101634285Y-103199819D01*
X101348571Y-103199819D02*
X101348571Y-102199819D01*
X101348571Y-102199819D02*
X101443809Y-102342676D01*
X101443809Y-102342676D02*
X101539047Y-102437914D01*
X101539047Y-102437914D02*
X101634285Y-102485533D01*
X100729523Y-102199819D02*
X100062857Y-102199819D01*
X100062857Y-102199819D02*
X100491428Y-103199819D01*
X75368367Y-144908415D02*
X75338178Y-145055942D01*
X75338178Y-145055942D02*
X75219130Y-145262139D01*
X75219130Y-145262139D02*
X75130272Y-145320808D01*
X75130272Y-145320808D02*
X75065223Y-145338238D01*
X75065223Y-145338238D02*
X74958935Y-145331858D01*
X74958935Y-145331858D02*
X74876456Y-145284239D01*
X74876456Y-145284239D02*
X74817787Y-145195381D01*
X74817787Y-145195381D02*
X74800357Y-145130332D01*
X74800357Y-145130332D02*
X74806737Y-145024044D01*
X74806737Y-145024044D02*
X74860736Y-144835277D01*
X74860736Y-144835277D02*
X74867116Y-144728989D01*
X74867116Y-144728989D02*
X74849686Y-144663940D01*
X74849686Y-144663940D02*
X74791017Y-144575082D01*
X74791017Y-144575082D02*
X74708538Y-144527463D01*
X74708538Y-144527463D02*
X74602250Y-144521083D01*
X74602250Y-144521083D02*
X74537201Y-144538513D01*
X74537201Y-144538513D02*
X74448343Y-144597182D01*
X74448343Y-144597182D02*
X74329295Y-144803378D01*
X74329295Y-144803378D02*
X74299106Y-144950906D01*
X74091200Y-145215771D02*
X74838178Y-145921968D01*
X74838178Y-145921968D02*
X74124350Y-145729782D01*
X74124350Y-145729782D02*
X74647701Y-146251882D01*
X74647701Y-146251882D02*
X73662628Y-145958079D01*
X74076273Y-147241625D02*
X74361987Y-146746754D01*
X74219130Y-146994190D02*
X73353105Y-146494190D01*
X73353105Y-146494190D02*
X73524442Y-146483140D01*
X73524442Y-146483140D02*
X73654539Y-146448280D01*
X73654539Y-146448280D02*
X73743398Y-146389611D01*
X73043581Y-147030301D02*
X72734057Y-147566412D01*
X72734057Y-147566412D02*
X73230638Y-147468213D01*
X73230638Y-147468213D02*
X73159210Y-147591931D01*
X73159210Y-147591931D02*
X73152830Y-147698219D01*
X73152830Y-147698219D02*
X73170260Y-147763268D01*
X73170260Y-147763268D02*
X73228929Y-147852126D01*
X73228929Y-147852126D02*
X73435125Y-147971173D01*
X73435125Y-147971173D02*
X73541413Y-147977553D01*
X73541413Y-147977553D02*
X73606462Y-147960123D01*
X73606462Y-147960123D02*
X73695321Y-147901454D01*
X73695321Y-147901454D02*
X73838178Y-147654019D01*
X73838178Y-147654019D02*
X73844557Y-147547730D01*
X73844557Y-147547730D02*
X73827128Y-147482682D01*
X157253332Y-91152200D02*
X157110475Y-91199819D01*
X157110475Y-91199819D02*
X156872380Y-91199819D01*
X156872380Y-91199819D02*
X156777142Y-91152200D01*
X156777142Y-91152200D02*
X156729523Y-91104580D01*
X156729523Y-91104580D02*
X156681904Y-91009342D01*
X156681904Y-91009342D02*
X156681904Y-90914104D01*
X156681904Y-90914104D02*
X156729523Y-90818866D01*
X156729523Y-90818866D02*
X156777142Y-90771247D01*
X156777142Y-90771247D02*
X156872380Y-90723628D01*
X156872380Y-90723628D02*
X157062856Y-90676009D01*
X157062856Y-90676009D02*
X157158094Y-90628390D01*
X157158094Y-90628390D02*
X157205713Y-90580771D01*
X157205713Y-90580771D02*
X157253332Y-90485533D01*
X157253332Y-90485533D02*
X157253332Y-90390295D01*
X157253332Y-90390295D02*
X157205713Y-90295057D01*
X157205713Y-90295057D02*
X157158094Y-90247438D01*
X157158094Y-90247438D02*
X157062856Y-90199819D01*
X157062856Y-90199819D02*
X156824761Y-90199819D01*
X156824761Y-90199819D02*
X156681904Y-90247438D01*
X156348570Y-90199819D02*
X156110475Y-91199819D01*
X156110475Y-91199819D02*
X155919999Y-90485533D01*
X155919999Y-90485533D02*
X155729523Y-91199819D01*
X155729523Y-91199819D02*
X155491428Y-90199819D01*
X154967618Y-90628390D02*
X155062856Y-90580771D01*
X155062856Y-90580771D02*
X155110475Y-90533152D01*
X155110475Y-90533152D02*
X155158094Y-90437914D01*
X155158094Y-90437914D02*
X155158094Y-90390295D01*
X155158094Y-90390295D02*
X155110475Y-90295057D01*
X155110475Y-90295057D02*
X155062856Y-90247438D01*
X155062856Y-90247438D02*
X154967618Y-90199819D01*
X154967618Y-90199819D02*
X154777142Y-90199819D01*
X154777142Y-90199819D02*
X154681904Y-90247438D01*
X154681904Y-90247438D02*
X154634285Y-90295057D01*
X154634285Y-90295057D02*
X154586666Y-90390295D01*
X154586666Y-90390295D02*
X154586666Y-90437914D01*
X154586666Y-90437914D02*
X154634285Y-90533152D01*
X154634285Y-90533152D02*
X154681904Y-90580771D01*
X154681904Y-90580771D02*
X154777142Y-90628390D01*
X154777142Y-90628390D02*
X154967618Y-90628390D01*
X154967618Y-90628390D02*
X155062856Y-90676009D01*
X155062856Y-90676009D02*
X155110475Y-90723628D01*
X155110475Y-90723628D02*
X155158094Y-90818866D01*
X155158094Y-90818866D02*
X155158094Y-91009342D01*
X155158094Y-91009342D02*
X155110475Y-91104580D01*
X155110475Y-91104580D02*
X155062856Y-91152200D01*
X155062856Y-91152200D02*
X154967618Y-91199819D01*
X154967618Y-91199819D02*
X154777142Y-91199819D01*
X154777142Y-91199819D02*
X154681904Y-91152200D01*
X154681904Y-91152200D02*
X154634285Y-91104580D01*
X154634285Y-91104580D02*
X154586666Y-91009342D01*
X154586666Y-91009342D02*
X154586666Y-90818866D01*
X154586666Y-90818866D02*
X154634285Y-90723628D01*
X154634285Y-90723628D02*
X154681904Y-90676009D01*
X154681904Y-90676009D02*
X154777142Y-90628390D01*
X103729523Y-85152200D02*
X103586666Y-85199819D01*
X103586666Y-85199819D02*
X103348571Y-85199819D01*
X103348571Y-85199819D02*
X103253333Y-85152200D01*
X103253333Y-85152200D02*
X103205714Y-85104580D01*
X103205714Y-85104580D02*
X103158095Y-85009342D01*
X103158095Y-85009342D02*
X103158095Y-84914104D01*
X103158095Y-84914104D02*
X103205714Y-84818866D01*
X103205714Y-84818866D02*
X103253333Y-84771247D01*
X103253333Y-84771247D02*
X103348571Y-84723628D01*
X103348571Y-84723628D02*
X103539047Y-84676009D01*
X103539047Y-84676009D02*
X103634285Y-84628390D01*
X103634285Y-84628390D02*
X103681904Y-84580771D01*
X103681904Y-84580771D02*
X103729523Y-84485533D01*
X103729523Y-84485533D02*
X103729523Y-84390295D01*
X103729523Y-84390295D02*
X103681904Y-84295057D01*
X103681904Y-84295057D02*
X103634285Y-84247438D01*
X103634285Y-84247438D02*
X103539047Y-84199819D01*
X103539047Y-84199819D02*
X103300952Y-84199819D01*
X103300952Y-84199819D02*
X103158095Y-84247438D01*
X102824761Y-84199819D02*
X102586666Y-85199819D01*
X102586666Y-85199819D02*
X102396190Y-84485533D01*
X102396190Y-84485533D02*
X102205714Y-85199819D01*
X102205714Y-85199819D02*
X101967619Y-84199819D01*
X101062857Y-85199819D02*
X101634285Y-85199819D01*
X101348571Y-85199819D02*
X101348571Y-84199819D01*
X101348571Y-84199819D02*
X101443809Y-84342676D01*
X101443809Y-84342676D02*
X101539047Y-84437914D01*
X101539047Y-84437914D02*
X101634285Y-84485533D01*
X100110476Y-85199819D02*
X100681904Y-85199819D01*
X100396190Y-85199819D02*
X100396190Y-84199819D01*
X100396190Y-84199819D02*
X100491428Y-84342676D01*
X100491428Y-84342676D02*
X100586666Y-84437914D01*
X100586666Y-84437914D02*
X100681904Y-84485533D01*
%TO.C,SW18*%
X113570000Y-100555000D02*
X113570000Y-100936000D01*
X113570000Y-103984000D02*
X113570000Y-104365000D01*
X113951000Y-104365000D02*
X113570000Y-104365000D01*
X116110000Y-98015000D02*
X125000000Y-98015000D01*
X117455838Y-104365000D02*
X115729000Y-104365000D01*
X125000000Y-98015000D02*
X125000000Y-98396000D01*
X125000000Y-101444000D02*
X125000000Y-102460000D01*
X125000000Y-102460000D02*
X119920000Y-102460000D01*
X113570000Y-100555000D02*
G75*
G02*
X116110000Y-98015000I2540001J-1D01*
G01*
X117455838Y-104383960D02*
G75*
G02*
X119920000Y-102459999I2464162J-616039D01*
G01*
%TO.C,SW4*%
X113570000Y-64555000D02*
X113570000Y-64936000D01*
X113570000Y-67984000D02*
X113570000Y-68365000D01*
X113951000Y-68365000D02*
X113570000Y-68365000D01*
X116110000Y-62015000D02*
X125000000Y-62015000D01*
X117455838Y-68365000D02*
X115729000Y-68365000D01*
X125000000Y-62015000D02*
X125000000Y-62396000D01*
X125000000Y-65444000D02*
X125000000Y-66460000D01*
X125000000Y-66460000D02*
X119920000Y-66460000D01*
X113570000Y-64555000D02*
G75*
G02*
X116110000Y-62015000I2540001J-1D01*
G01*
X117455838Y-68383960D02*
G75*
G02*
X119920000Y-66459999I2464162J-616039D01*
G01*
%TO.C,SW7*%
X167570000Y-94555000D02*
X167570000Y-94936000D01*
X167570000Y-97984000D02*
X167570000Y-98365000D01*
X167951000Y-98365000D02*
X167570000Y-98365000D01*
X170110000Y-92015000D02*
X179000000Y-92015000D01*
X171455838Y-98365000D02*
X169729000Y-98365000D01*
X179000000Y-92015000D02*
X179000000Y-92396000D01*
X179000000Y-95444000D02*
X179000000Y-96460000D01*
X179000000Y-96460000D02*
X173920000Y-96460000D01*
X167570000Y-94555000D02*
G75*
G02*
X170110000Y-92015000I2540001J-1D01*
G01*
X171455838Y-98383960D02*
G75*
G02*
X173920000Y-96459999I2464162J-616039D01*
G01*
%TO.C,SW19*%
X131570000Y-106555000D02*
X131570000Y-106936000D01*
X131570000Y-109984000D02*
X131570000Y-110365000D01*
X131951000Y-110365000D02*
X131570000Y-110365000D01*
X134110000Y-104015000D02*
X143000000Y-104015000D01*
X135455838Y-110365000D02*
X133729000Y-110365000D01*
X143000000Y-104015000D02*
X143000000Y-104396000D01*
X143000000Y-107444000D02*
X143000000Y-108460000D01*
X143000000Y-108460000D02*
X137920000Y-108460000D01*
X131570000Y-106555000D02*
G75*
G02*
X134110000Y-104015000I2540001J-1D01*
G01*
X135455838Y-110383960D02*
G75*
G02*
X137920000Y-108459999I2464162J-616039D01*
G01*
%TO.C,SW9*%
X131650000Y-88555000D02*
X131650000Y-88936000D01*
X131650000Y-91984000D02*
X131650000Y-92365000D01*
X132031000Y-92365000D02*
X131650000Y-92365000D01*
X134190000Y-86015000D02*
X143080000Y-86015000D01*
X135535838Y-92365000D02*
X133809000Y-92365000D01*
X143080000Y-86015000D02*
X143080000Y-86396000D01*
X143080000Y-89444000D02*
X143080000Y-90460000D01*
X143080000Y-90460000D02*
X138000000Y-90460000D01*
X131650000Y-88555000D02*
G75*
G02*
X134190000Y-86015000I2540001J-1D01*
G01*
X135535838Y-92383960D02*
G75*
G02*
X138000000Y-90459999I2464162J-616039D01*
G01*
%TO.C,SW6*%
X77570000Y-76555000D02*
X77570000Y-76936000D01*
X77570000Y-79984000D02*
X77570000Y-80365000D01*
X77951000Y-80365000D02*
X77570000Y-80365000D01*
X80110000Y-74015000D02*
X89000000Y-74015000D01*
X81455838Y-80365000D02*
X79729000Y-80365000D01*
X89000000Y-74015000D02*
X89000000Y-74396000D01*
X89000000Y-77444000D02*
X89000000Y-78460000D01*
X89000000Y-78460000D02*
X83920000Y-78460000D01*
X77570000Y-76555000D02*
G75*
G02*
X80110000Y-74015000I2540001J-1D01*
G01*
X81455838Y-80383960D02*
G75*
G02*
X83920000Y-78459999I2464162J-616039D01*
G01*
%TO.C,SW3*%
X131570000Y-70555000D02*
X131570000Y-70936000D01*
X131570000Y-73984000D02*
X131570000Y-74365000D01*
X131951000Y-74365000D02*
X131570000Y-74365000D01*
X134110000Y-68015000D02*
X143000000Y-68015000D01*
X135455838Y-74365000D02*
X133729000Y-74365000D01*
X143000000Y-68015000D02*
X143000000Y-68396000D01*
X143000000Y-71444000D02*
X143000000Y-72460000D01*
X143000000Y-72460000D02*
X137920000Y-72460000D01*
X131570000Y-70555000D02*
G75*
G02*
X134110000Y-68015000I2540001J-1D01*
G01*
X135455838Y-74383960D02*
G75*
G02*
X137920000Y-72459999I2464162J-616039D01*
G01*
%TO.C,SW1*%
X167570000Y-76555000D02*
X167570000Y-76936000D01*
X167570000Y-79984000D02*
X167570000Y-80365000D01*
X167951000Y-80365000D02*
X167570000Y-80365000D01*
X170110000Y-74015000D02*
X179000000Y-74015000D01*
X171455838Y-80365000D02*
X169729000Y-80365000D01*
X179000000Y-74015000D02*
X179000000Y-74396000D01*
X179000000Y-77444000D02*
X179000000Y-78460000D01*
X179000000Y-78460000D02*
X173920000Y-78460000D01*
X167570000Y-76555000D02*
G75*
G02*
X170110000Y-74015000I2540001J-1D01*
G01*
X171455838Y-80383960D02*
G75*
G02*
X173920000Y-78459999I2464162J-616039D01*
G01*
%TO.C,SW15*%
X110570000Y-124555000D02*
X110570000Y-124936000D01*
X110570000Y-127984000D02*
X110570000Y-128365000D01*
X110951000Y-128365000D02*
X110570000Y-128365000D01*
X113110000Y-122015000D02*
X122000000Y-122015000D01*
X114455838Y-128365000D02*
X112729000Y-128365000D01*
X122000000Y-122015000D02*
X122000000Y-122396000D01*
X122000000Y-125444000D02*
X122000000Y-126460000D01*
X122000000Y-126460000D02*
X116920000Y-126460000D01*
X110570000Y-124555000D02*
G75*
G02*
X113110000Y-122015000I2540001J-1D01*
G01*
X114455838Y-128383960D02*
G75*
G02*
X116920000Y-126459999I2464162J-616039D01*
G01*
%TO.C,SW10*%
X113570000Y-82555000D02*
X113570000Y-82936000D01*
X113570000Y-85984000D02*
X113570000Y-86365000D01*
X113951000Y-86365000D02*
X113570000Y-86365000D01*
X116110000Y-80015000D02*
X125000000Y-80015000D01*
X117455838Y-86365000D02*
X115729000Y-86365000D01*
X125000000Y-80015000D02*
X125000000Y-80396000D01*
X125000000Y-83444000D02*
X125000000Y-84460000D01*
X125000000Y-84460000D02*
X119920000Y-84460000D01*
X113570000Y-82555000D02*
G75*
G02*
X116110000Y-80015000I2540001J-1D01*
G01*
X117455838Y-86383960D02*
G75*
G02*
X119920000Y-84459999I2464162J-616039D01*
G01*
%TO.C,SW21*%
X167570000Y-112555000D02*
X167570000Y-112936000D01*
X167570000Y-115984000D02*
X167570000Y-116365000D01*
X167951000Y-116365000D02*
X167570000Y-116365000D01*
X170110000Y-110015000D02*
X179000000Y-110015000D01*
X171455838Y-116365000D02*
X169729000Y-116365000D01*
X179000000Y-110015000D02*
X179000000Y-110396000D01*
X179000000Y-113444000D02*
X179000000Y-114460000D01*
X179000000Y-114460000D02*
X173920000Y-114460000D01*
X167570000Y-112555000D02*
G75*
G02*
X170110000Y-110015000I2540001J-1D01*
G01*
X171455838Y-116383960D02*
G75*
G02*
X173920000Y-114459999I2464162J-616039D01*
G01*
%TO.C,SW2*%
X149570000Y-76555000D02*
X149570000Y-76936000D01*
X149570000Y-79984000D02*
X149570000Y-80365000D01*
X149951000Y-80365000D02*
X149570000Y-80365000D01*
X152110000Y-74015000D02*
X161000000Y-74015000D01*
X153455838Y-80365000D02*
X151729000Y-80365000D01*
X161000000Y-74015000D02*
X161000000Y-74396000D01*
X161000000Y-77444000D02*
X161000000Y-78460000D01*
X161000000Y-78460000D02*
X155920000Y-78460000D01*
X149570000Y-76555000D02*
G75*
G02*
X152110000Y-74015000I2540001J-1D01*
G01*
X153455838Y-80383960D02*
G75*
G02*
X155920000Y-78459999I2464162J-616039D01*
G01*
%TO.C,SW12*%
X77570000Y-94555000D02*
X77570000Y-94936000D01*
X77570000Y-97984000D02*
X77570000Y-98365000D01*
X77951000Y-98365000D02*
X77570000Y-98365000D01*
X80110000Y-92015000D02*
X89000000Y-92015000D01*
X81455838Y-98365000D02*
X79729000Y-98365000D01*
X89000000Y-92015000D02*
X89000000Y-92396000D01*
X89000000Y-95444000D02*
X89000000Y-96460000D01*
X89000000Y-96460000D02*
X83920000Y-96460000D01*
X77570000Y-94555000D02*
G75*
G02*
X80110000Y-92015000I2540001J-1D01*
G01*
X81455838Y-98383960D02*
G75*
G02*
X83920000Y-96459999I2464162J-616039D01*
G01*
%TO.C,SW16*%
X77570000Y-112555000D02*
X77570000Y-112936000D01*
X77570000Y-115984000D02*
X77570000Y-116365000D01*
X77951000Y-116365000D02*
X77570000Y-116365000D01*
X80110000Y-110015000D02*
X89000000Y-110015000D01*
X81455838Y-116365000D02*
X79729000Y-116365000D01*
X89000000Y-110015000D02*
X89000000Y-110396000D01*
X89000000Y-113444000D02*
X89000000Y-114460000D01*
X89000000Y-114460000D02*
X83920000Y-114460000D01*
X77570000Y-112555000D02*
G75*
G02*
X80110000Y-110015000I2540001J-1D01*
G01*
X81455838Y-116383960D02*
G75*
G02*
X83920000Y-114459999I2464162J-616039D01*
G01*
%TO.C,SW20*%
X149570000Y-112555000D02*
X149570000Y-112936000D01*
X149570000Y-115984000D02*
X149570000Y-116365000D01*
X149951000Y-116365000D02*
X149570000Y-116365000D01*
X152110000Y-110015000D02*
X161000000Y-110015000D01*
X153455838Y-116365000D02*
X151729000Y-116365000D01*
X161000000Y-110015000D02*
X161000000Y-110396000D01*
X161000000Y-113444000D02*
X161000000Y-114460000D01*
X161000000Y-114460000D02*
X155920000Y-114460000D01*
X149570000Y-112555000D02*
G75*
G02*
X152110000Y-110015000I2540001J-1D01*
G01*
X153455838Y-116383960D02*
G75*
G02*
X155920000Y-114459999I2464162J-616039D01*
G01*
%TO.C,SW14*%
X88518830Y-133775517D02*
X88709330Y-134105473D01*
X89448534Y-130305813D02*
X97147500Y-125860813D01*
X90233330Y-136745118D02*
X90423830Y-137075074D01*
X90753785Y-136884574D02*
X90423830Y-137075074D01*
X93789064Y-135132155D02*
X92293579Y-135995574D01*
X97147500Y-125860813D02*
X97338000Y-126190768D01*
X98862000Y-128830414D02*
X99370000Y-129710295D01*
X99370000Y-129710295D02*
X94970591Y-132250295D01*
X88518830Y-133775517D02*
G75*
G02*
X89448534Y-130305812I2199706J1270000D01*
G01*
X93798544Y-135148575D02*
G75*
G02*
X94970591Y-132250295I2442046J698576D01*
G01*
%TO.C,SW5*%
X95570000Y-70555000D02*
X95570000Y-70936000D01*
X95570000Y-73984000D02*
X95570000Y-74365000D01*
X95951000Y-74365000D02*
X95570000Y-74365000D01*
X98110000Y-68015000D02*
X107000000Y-68015000D01*
X99455838Y-74365000D02*
X97729000Y-74365000D01*
X107000000Y-68015000D02*
X107000000Y-68396000D01*
X107000000Y-71444000D02*
X107000000Y-72460000D01*
X107000000Y-72460000D02*
X101920000Y-72460000D01*
X95570000Y-70555000D02*
G75*
G02*
X98110000Y-68015000I2540001J-1D01*
G01*
X99455838Y-74383960D02*
G75*
G02*
X101920000Y-72459999I2464162J-616039D01*
G01*
%TO.C,SW17*%
X95570000Y-106555000D02*
X95570000Y-106936000D01*
X95570000Y-109984000D02*
X95570000Y-110365000D01*
X95951000Y-110365000D02*
X95570000Y-110365000D01*
X98110000Y-104015000D02*
X107000000Y-104015000D01*
X99455838Y-110365000D02*
X97729000Y-110365000D01*
X107000000Y-104015000D02*
X107000000Y-104396000D01*
X107000000Y-107444000D02*
X107000000Y-108460000D01*
X107000000Y-108460000D02*
X101920000Y-108460000D01*
X95570000Y-106555000D02*
G75*
G02*
X98110000Y-104015000I2540001J-1D01*
G01*
X99455838Y-110383960D02*
G75*
G02*
X101920000Y-108459999I2464162J-616039D01*
G01*
%TO.C,SW13*%
X73305813Y-150206466D02*
X77750813Y-142507500D01*
X74235517Y-153676170D02*
X74565473Y-153866670D01*
X77205118Y-155390670D02*
X77535074Y-155581170D01*
X77725574Y-155251215D02*
X77535074Y-155581170D01*
X77750813Y-142507500D02*
X78080768Y-142698000D01*
X79477993Y-152215936D02*
X78614574Y-153711421D01*
X80720414Y-144222000D02*
X81600295Y-144730000D01*
X81600295Y-144730000D02*
X79060295Y-149129409D01*
X74235517Y-153676170D02*
G75*
G02*
X73305812Y-150206466I1270001J2199705D01*
G01*
X79494413Y-152225416D02*
G75*
G02*
X79060294Y-149129409I1765586J1826008D01*
G01*
%TO.C,SW8*%
X149570000Y-94555000D02*
X149570000Y-94936000D01*
X149570000Y-97984000D02*
X149570000Y-98365000D01*
X149951000Y-98365000D02*
X149570000Y-98365000D01*
X152110000Y-92015000D02*
X161000000Y-92015000D01*
X153455838Y-98365000D02*
X151729000Y-98365000D01*
X161000000Y-92015000D02*
X161000000Y-92396000D01*
X161000000Y-95444000D02*
X161000000Y-96460000D01*
X161000000Y-96460000D02*
X155920000Y-96460000D01*
X149570000Y-94555000D02*
G75*
G02*
X152110000Y-92015000I2540001J-1D01*
G01*
X153455838Y-98383960D02*
G75*
G02*
X155920000Y-96459999I2464162J-616039D01*
G01*
%TO.C,SW11*%
X95570000Y-88555000D02*
X95570000Y-88936000D01*
X95570000Y-91984000D02*
X95570000Y-92365000D01*
X95951000Y-92365000D02*
X95570000Y-92365000D01*
X98110000Y-86015000D02*
X107000000Y-86015000D01*
X99455838Y-92365000D02*
X97729000Y-92365000D01*
X107000000Y-86015000D02*
X107000000Y-86396000D01*
X107000000Y-89444000D02*
X107000000Y-90460000D01*
X107000000Y-90460000D02*
X101920000Y-90460000D01*
X95570000Y-88555000D02*
G75*
G02*
X98110000Y-86015000I2540001J-1D01*
G01*
X99455838Y-92383960D02*
G75*
G02*
X101920000Y-90459999I2464162J-616039D01*
G01*
%TD*%
M02*
