%TF.GenerationSoftware,KiCad,Pcbnew,9.0.4*%
%TF.CreationDate,2025-11-01T07:51:32+01:00*%
%TF.ProjectId,kbv3-left,6b627633-2d6c-4656-9674-2e6b69636164,rev?*%
%TF.SameCoordinates,Original*%
%TF.FileFunction,Legend,Bot*%
%TF.FilePolarity,Positive*%
%FSLAX46Y46*%
G04 Gerber Fmt 4.6, Leading zero omitted, Abs format (unit mm)*
G04 Created by KiCad (PCBNEW 9.0.4) date 2025-11-01 07:51:32*
%MOMM*%
%LPD*%
G01*
G04 APERTURE LIST*
%ADD10C,0.150000*%
G04 APERTURE END LIST*
D10*
X169491584Y-118888367D02*
X169344057Y-118858178D01*
X169344057Y-118858178D02*
X169137860Y-118739130D01*
X169137860Y-118739130D02*
X169079191Y-118650272D01*
X169079191Y-118650272D02*
X169061761Y-118585223D01*
X169061761Y-118585223D02*
X169068141Y-118478935D01*
X169068141Y-118478935D02*
X169115760Y-118396456D01*
X169115760Y-118396456D02*
X169204618Y-118337787D01*
X169204618Y-118337787D02*
X169269667Y-118320357D01*
X169269667Y-118320357D02*
X169375955Y-118326737D01*
X169375955Y-118326737D02*
X169564722Y-118380736D01*
X169564722Y-118380736D02*
X169671010Y-118387116D01*
X169671010Y-118387116D02*
X169736059Y-118369686D01*
X169736059Y-118369686D02*
X169824917Y-118311017D01*
X169824917Y-118311017D02*
X169872536Y-118228538D01*
X169872536Y-118228538D02*
X169878916Y-118122250D01*
X169878916Y-118122250D02*
X169861486Y-118057201D01*
X169861486Y-118057201D02*
X169802817Y-117968343D01*
X169802817Y-117968343D02*
X169596621Y-117849295D01*
X169596621Y-117849295D02*
X169449093Y-117819106D01*
X169184228Y-117611200D02*
X168478031Y-118358178D01*
X168478031Y-118358178D02*
X168670217Y-117644350D01*
X168670217Y-117644350D02*
X168148117Y-118167701D01*
X168148117Y-118167701D02*
X168441920Y-117182628D01*
X168105626Y-117098440D02*
X168088196Y-117033392D01*
X168088196Y-117033392D02*
X168029527Y-116944533D01*
X168029527Y-116944533D02*
X167823331Y-116825486D01*
X167823331Y-116825486D02*
X167717043Y-116819106D01*
X167717043Y-116819106D02*
X167651994Y-116836536D01*
X167651994Y-116836536D02*
X167563135Y-116895205D01*
X167563135Y-116895205D02*
X167515516Y-116977683D01*
X167515516Y-116977683D02*
X167485327Y-117125211D01*
X167485327Y-117125211D02*
X167694485Y-117905797D01*
X167694485Y-117905797D02*
X167158374Y-117596273D01*
X167122263Y-116420724D02*
X167039784Y-116373105D01*
X167039784Y-116373105D02*
X166933496Y-116366725D01*
X166933496Y-116366725D02*
X166868447Y-116384155D01*
X166868447Y-116384155D02*
X166779589Y-116442824D01*
X166779589Y-116442824D02*
X166643111Y-116583972D01*
X166643111Y-116583972D02*
X166524064Y-116790168D01*
X166524064Y-116790168D02*
X166470065Y-116978935D01*
X166470065Y-116978935D02*
X166463685Y-117085223D01*
X166463685Y-117085223D02*
X166481115Y-117150272D01*
X166481115Y-117150272D02*
X166539784Y-117239130D01*
X166539784Y-117239130D02*
X166622263Y-117286749D01*
X166622263Y-117286749D02*
X166728551Y-117293129D01*
X166728551Y-117293129D02*
X166793600Y-117275699D01*
X166793600Y-117275699D02*
X166882458Y-117217030D01*
X166882458Y-117217030D02*
X167018935Y-117075882D01*
X167018935Y-117075882D02*
X167137983Y-116869686D01*
X167137983Y-116869686D02*
X167191982Y-116680919D01*
X167191982Y-116680919D02*
X167198361Y-116574631D01*
X167198361Y-116574631D02*
X167180932Y-116509582D01*
X167180932Y-116509582D02*
X167122263Y-116420724D01*
X186641156Y-138362602D02*
X186528488Y-138262694D01*
X186528488Y-138262694D02*
X186409440Y-138056497D01*
X186409440Y-138056497D02*
X186403061Y-137950209D01*
X186403061Y-137950209D02*
X186420490Y-137885160D01*
X186420490Y-137885160D02*
X186479159Y-137796302D01*
X186479159Y-137796302D02*
X186561638Y-137748683D01*
X186561638Y-137748683D02*
X186667926Y-137742303D01*
X186667926Y-137742303D02*
X186732975Y-137759733D01*
X186732975Y-137759733D02*
X186821833Y-137818402D01*
X186821833Y-137818402D02*
X186958311Y-137959550D01*
X186958311Y-137959550D02*
X187047169Y-138018219D01*
X187047169Y-138018219D02*
X187112218Y-138035648D01*
X187112218Y-138035648D02*
X187218506Y-138029269D01*
X187218506Y-138029269D02*
X187300985Y-137981650D01*
X187300985Y-137981650D02*
X187359654Y-137892791D01*
X187359654Y-137892791D02*
X187377084Y-137827743D01*
X187377084Y-137827743D02*
X187370704Y-137721454D01*
X187370704Y-137721454D02*
X187251656Y-137515258D01*
X187251656Y-137515258D02*
X187138988Y-137415349D01*
X187013561Y-137102865D02*
X186028488Y-137396668D01*
X186028488Y-137396668D02*
X186551839Y-136874568D01*
X186551839Y-136874568D02*
X185838012Y-137066754D01*
X185838012Y-137066754D02*
X186584990Y-136360557D01*
X186335844Y-136119501D02*
X186353274Y-136054452D01*
X186353274Y-136054452D02*
X186346894Y-135948164D01*
X186346894Y-135948164D02*
X186227847Y-135741968D01*
X186227847Y-135741968D02*
X186138988Y-135683299D01*
X186138988Y-135683299D02*
X186073940Y-135665869D01*
X186073940Y-135665869D02*
X185967651Y-135672249D01*
X185967651Y-135672249D02*
X185885173Y-135719868D01*
X185885173Y-135719868D02*
X185785264Y-135832536D01*
X185785264Y-135832536D02*
X185576107Y-136613122D01*
X185576107Y-136613122D02*
X185266583Y-136077011D01*
X184790393Y-135252224D02*
X185076107Y-135747096D01*
X184933250Y-135499660D02*
X185799275Y-134999660D01*
X185799275Y-134999660D02*
X185723176Y-135153567D01*
X185723176Y-135153567D02*
X185688317Y-135283665D01*
X185688317Y-135283665D02*
X185694697Y-135389953D01*
X123653332Y-57472200D02*
X123510475Y-57519819D01*
X123510475Y-57519819D02*
X123272380Y-57519819D01*
X123272380Y-57519819D02*
X123177142Y-57472200D01*
X123177142Y-57472200D02*
X123129523Y-57424580D01*
X123129523Y-57424580D02*
X123081904Y-57329342D01*
X123081904Y-57329342D02*
X123081904Y-57234104D01*
X123081904Y-57234104D02*
X123129523Y-57138866D01*
X123129523Y-57138866D02*
X123177142Y-57091247D01*
X123177142Y-57091247D02*
X123272380Y-57043628D01*
X123272380Y-57043628D02*
X123462856Y-56996009D01*
X123462856Y-56996009D02*
X123558094Y-56948390D01*
X123558094Y-56948390D02*
X123605713Y-56900771D01*
X123605713Y-56900771D02*
X123653332Y-56805533D01*
X123653332Y-56805533D02*
X123653332Y-56710295D01*
X123653332Y-56710295D02*
X123605713Y-56615057D01*
X123605713Y-56615057D02*
X123558094Y-56567438D01*
X123558094Y-56567438D02*
X123462856Y-56519819D01*
X123462856Y-56519819D02*
X123224761Y-56519819D01*
X123224761Y-56519819D02*
X123081904Y-56567438D01*
X122748570Y-56519819D02*
X122510475Y-57519819D01*
X122510475Y-57519819D02*
X122319999Y-56805533D01*
X122319999Y-56805533D02*
X122129523Y-57519819D01*
X122129523Y-57519819D02*
X121891428Y-56519819D01*
X121605713Y-56519819D02*
X120986666Y-56519819D01*
X120986666Y-56519819D02*
X121319999Y-56900771D01*
X121319999Y-56900771D02*
X121177142Y-56900771D01*
X121177142Y-56900771D02*
X121081904Y-56948390D01*
X121081904Y-56948390D02*
X121034285Y-56996009D01*
X121034285Y-56996009D02*
X120986666Y-57091247D01*
X120986666Y-57091247D02*
X120986666Y-57329342D01*
X120986666Y-57329342D02*
X121034285Y-57424580D01*
X121034285Y-57424580D02*
X121081904Y-57472200D01*
X121081904Y-57472200D02*
X121177142Y-57519819D01*
X121177142Y-57519819D02*
X121462856Y-57519819D01*
X121462856Y-57519819D02*
X121558094Y-57472200D01*
X121558094Y-57472200D02*
X121605713Y-57424580D01*
X177653332Y-63472200D02*
X177510475Y-63519819D01*
X177510475Y-63519819D02*
X177272380Y-63519819D01*
X177272380Y-63519819D02*
X177177142Y-63472200D01*
X177177142Y-63472200D02*
X177129523Y-63424580D01*
X177129523Y-63424580D02*
X177081904Y-63329342D01*
X177081904Y-63329342D02*
X177081904Y-63234104D01*
X177081904Y-63234104D02*
X177129523Y-63138866D01*
X177129523Y-63138866D02*
X177177142Y-63091247D01*
X177177142Y-63091247D02*
X177272380Y-63043628D01*
X177272380Y-63043628D02*
X177462856Y-62996009D01*
X177462856Y-62996009D02*
X177558094Y-62948390D01*
X177558094Y-62948390D02*
X177605713Y-62900771D01*
X177605713Y-62900771D02*
X177653332Y-62805533D01*
X177653332Y-62805533D02*
X177653332Y-62710295D01*
X177653332Y-62710295D02*
X177605713Y-62615057D01*
X177605713Y-62615057D02*
X177558094Y-62567438D01*
X177558094Y-62567438D02*
X177462856Y-62519819D01*
X177462856Y-62519819D02*
X177224761Y-62519819D01*
X177224761Y-62519819D02*
X177081904Y-62567438D01*
X176748570Y-62519819D02*
X176510475Y-63519819D01*
X176510475Y-63519819D02*
X176319999Y-62805533D01*
X176319999Y-62805533D02*
X176129523Y-63519819D01*
X176129523Y-63519819D02*
X175891428Y-62519819D01*
X175081904Y-62519819D02*
X175272380Y-62519819D01*
X175272380Y-62519819D02*
X175367618Y-62567438D01*
X175367618Y-62567438D02*
X175415237Y-62615057D01*
X175415237Y-62615057D02*
X175510475Y-62757914D01*
X175510475Y-62757914D02*
X175558094Y-62948390D01*
X175558094Y-62948390D02*
X175558094Y-63329342D01*
X175558094Y-63329342D02*
X175510475Y-63424580D01*
X175510475Y-63424580D02*
X175462856Y-63472200D01*
X175462856Y-63472200D02*
X175367618Y-63519819D01*
X175367618Y-63519819D02*
X175177142Y-63519819D01*
X175177142Y-63519819D02*
X175081904Y-63472200D01*
X175081904Y-63472200D02*
X175034285Y-63424580D01*
X175034285Y-63424580D02*
X174986666Y-63329342D01*
X174986666Y-63329342D02*
X174986666Y-63091247D01*
X174986666Y-63091247D02*
X175034285Y-62996009D01*
X175034285Y-62996009D02*
X175081904Y-62948390D01*
X175081904Y-62948390D02*
X175177142Y-62900771D01*
X175177142Y-62900771D02*
X175367618Y-62900771D01*
X175367618Y-62900771D02*
X175462856Y-62948390D01*
X175462856Y-62948390D02*
X175510475Y-62996009D01*
X175510475Y-62996009D02*
X175558094Y-63091247D01*
X142289523Y-87472200D02*
X142146666Y-87519819D01*
X142146666Y-87519819D02*
X141908571Y-87519819D01*
X141908571Y-87519819D02*
X141813333Y-87472200D01*
X141813333Y-87472200D02*
X141765714Y-87424580D01*
X141765714Y-87424580D02*
X141718095Y-87329342D01*
X141718095Y-87329342D02*
X141718095Y-87234104D01*
X141718095Y-87234104D02*
X141765714Y-87138866D01*
X141765714Y-87138866D02*
X141813333Y-87091247D01*
X141813333Y-87091247D02*
X141908571Y-87043628D01*
X141908571Y-87043628D02*
X142099047Y-86996009D01*
X142099047Y-86996009D02*
X142194285Y-86948390D01*
X142194285Y-86948390D02*
X142241904Y-86900771D01*
X142241904Y-86900771D02*
X142289523Y-86805533D01*
X142289523Y-86805533D02*
X142289523Y-86710295D01*
X142289523Y-86710295D02*
X142241904Y-86615057D01*
X142241904Y-86615057D02*
X142194285Y-86567438D01*
X142194285Y-86567438D02*
X142099047Y-86519819D01*
X142099047Y-86519819D02*
X141860952Y-86519819D01*
X141860952Y-86519819D02*
X141718095Y-86567438D01*
X141384761Y-86519819D02*
X141146666Y-87519819D01*
X141146666Y-87519819D02*
X140956190Y-86805533D01*
X140956190Y-86805533D02*
X140765714Y-87519819D01*
X140765714Y-87519819D02*
X140527619Y-86519819D01*
X139622857Y-87519819D02*
X140194285Y-87519819D01*
X139908571Y-87519819D02*
X139908571Y-86519819D01*
X139908571Y-86519819D02*
X140003809Y-86662676D01*
X140003809Y-86662676D02*
X140099047Y-86757914D01*
X140099047Y-86757914D02*
X140194285Y-86805533D01*
X138765714Y-86519819D02*
X138956190Y-86519819D01*
X138956190Y-86519819D02*
X139051428Y-86567438D01*
X139051428Y-86567438D02*
X139099047Y-86615057D01*
X139099047Y-86615057D02*
X139194285Y-86757914D01*
X139194285Y-86757914D02*
X139241904Y-86948390D01*
X139241904Y-86948390D02*
X139241904Y-87329342D01*
X139241904Y-87329342D02*
X139194285Y-87424580D01*
X139194285Y-87424580D02*
X139146666Y-87472200D01*
X139146666Y-87472200D02*
X139051428Y-87519819D01*
X139051428Y-87519819D02*
X138860952Y-87519819D01*
X138860952Y-87519819D02*
X138765714Y-87472200D01*
X138765714Y-87472200D02*
X138718095Y-87424580D01*
X138718095Y-87424580D02*
X138670476Y-87329342D01*
X138670476Y-87329342D02*
X138670476Y-87091247D01*
X138670476Y-87091247D02*
X138718095Y-86996009D01*
X138718095Y-86996009D02*
X138765714Y-86948390D01*
X138765714Y-86948390D02*
X138860952Y-86900771D01*
X138860952Y-86900771D02*
X139051428Y-86900771D01*
X139051428Y-86900771D02*
X139146666Y-86948390D01*
X139146666Y-86948390D02*
X139194285Y-86996009D01*
X139194285Y-86996009D02*
X139241904Y-87091247D01*
X87653332Y-81472200D02*
X87510475Y-81519819D01*
X87510475Y-81519819D02*
X87272380Y-81519819D01*
X87272380Y-81519819D02*
X87177142Y-81472200D01*
X87177142Y-81472200D02*
X87129523Y-81424580D01*
X87129523Y-81424580D02*
X87081904Y-81329342D01*
X87081904Y-81329342D02*
X87081904Y-81234104D01*
X87081904Y-81234104D02*
X87129523Y-81138866D01*
X87129523Y-81138866D02*
X87177142Y-81091247D01*
X87177142Y-81091247D02*
X87272380Y-81043628D01*
X87272380Y-81043628D02*
X87462856Y-80996009D01*
X87462856Y-80996009D02*
X87558094Y-80948390D01*
X87558094Y-80948390D02*
X87605713Y-80900771D01*
X87605713Y-80900771D02*
X87653332Y-80805533D01*
X87653332Y-80805533D02*
X87653332Y-80710295D01*
X87653332Y-80710295D02*
X87605713Y-80615057D01*
X87605713Y-80615057D02*
X87558094Y-80567438D01*
X87558094Y-80567438D02*
X87462856Y-80519819D01*
X87462856Y-80519819D02*
X87224761Y-80519819D01*
X87224761Y-80519819D02*
X87081904Y-80567438D01*
X86748570Y-80519819D02*
X86510475Y-81519819D01*
X86510475Y-81519819D02*
X86319999Y-80805533D01*
X86319999Y-80805533D02*
X86129523Y-81519819D01*
X86129523Y-81519819D02*
X85891428Y-80519819D01*
X85605713Y-80519819D02*
X84939047Y-80519819D01*
X84939047Y-80519819D02*
X85367618Y-81519819D01*
X142129523Y-69472200D02*
X141986666Y-69519819D01*
X141986666Y-69519819D02*
X141748571Y-69519819D01*
X141748571Y-69519819D02*
X141653333Y-69472200D01*
X141653333Y-69472200D02*
X141605714Y-69424580D01*
X141605714Y-69424580D02*
X141558095Y-69329342D01*
X141558095Y-69329342D02*
X141558095Y-69234104D01*
X141558095Y-69234104D02*
X141605714Y-69138866D01*
X141605714Y-69138866D02*
X141653333Y-69091247D01*
X141653333Y-69091247D02*
X141748571Y-69043628D01*
X141748571Y-69043628D02*
X141939047Y-68996009D01*
X141939047Y-68996009D02*
X142034285Y-68948390D01*
X142034285Y-68948390D02*
X142081904Y-68900771D01*
X142081904Y-68900771D02*
X142129523Y-68805533D01*
X142129523Y-68805533D02*
X142129523Y-68710295D01*
X142129523Y-68710295D02*
X142081904Y-68615057D01*
X142081904Y-68615057D02*
X142034285Y-68567438D01*
X142034285Y-68567438D02*
X141939047Y-68519819D01*
X141939047Y-68519819D02*
X141700952Y-68519819D01*
X141700952Y-68519819D02*
X141558095Y-68567438D01*
X141224761Y-68519819D02*
X140986666Y-69519819D01*
X140986666Y-69519819D02*
X140796190Y-68805533D01*
X140796190Y-68805533D02*
X140605714Y-69519819D01*
X140605714Y-69519819D02*
X140367619Y-68519819D01*
X139462857Y-69519819D02*
X140034285Y-69519819D01*
X139748571Y-69519819D02*
X139748571Y-68519819D01*
X139748571Y-68519819D02*
X139843809Y-68662676D01*
X139843809Y-68662676D02*
X139939047Y-68757914D01*
X139939047Y-68757914D02*
X140034285Y-68805533D01*
X138843809Y-68519819D02*
X138748571Y-68519819D01*
X138748571Y-68519819D02*
X138653333Y-68567438D01*
X138653333Y-68567438D02*
X138605714Y-68615057D01*
X138605714Y-68615057D02*
X138558095Y-68710295D01*
X138558095Y-68710295D02*
X138510476Y-68900771D01*
X138510476Y-68900771D02*
X138510476Y-69138866D01*
X138510476Y-69138866D02*
X138558095Y-69329342D01*
X138558095Y-69329342D02*
X138605714Y-69424580D01*
X138605714Y-69424580D02*
X138653333Y-69472200D01*
X138653333Y-69472200D02*
X138748571Y-69519819D01*
X138748571Y-69519819D02*
X138843809Y-69519819D01*
X138843809Y-69519819D02*
X138939047Y-69472200D01*
X138939047Y-69472200D02*
X138986666Y-69424580D01*
X138986666Y-69424580D02*
X139034285Y-69329342D01*
X139034285Y-69329342D02*
X139081904Y-69138866D01*
X139081904Y-69138866D02*
X139081904Y-68900771D01*
X139081904Y-68900771D02*
X139034285Y-68710295D01*
X139034285Y-68710295D02*
X138986666Y-68615057D01*
X138986666Y-68615057D02*
X138939047Y-68567438D01*
X138939047Y-68567438D02*
X138843809Y-68519819D01*
X87653332Y-63472200D02*
X87510475Y-63519819D01*
X87510475Y-63519819D02*
X87272380Y-63519819D01*
X87272380Y-63519819D02*
X87177142Y-63472200D01*
X87177142Y-63472200D02*
X87129523Y-63424580D01*
X87129523Y-63424580D02*
X87081904Y-63329342D01*
X87081904Y-63329342D02*
X87081904Y-63234104D01*
X87081904Y-63234104D02*
X87129523Y-63138866D01*
X87129523Y-63138866D02*
X87177142Y-63091247D01*
X87177142Y-63091247D02*
X87272380Y-63043628D01*
X87272380Y-63043628D02*
X87462856Y-62996009D01*
X87462856Y-62996009D02*
X87558094Y-62948390D01*
X87558094Y-62948390D02*
X87605713Y-62900771D01*
X87605713Y-62900771D02*
X87653332Y-62805533D01*
X87653332Y-62805533D02*
X87653332Y-62710295D01*
X87653332Y-62710295D02*
X87605713Y-62615057D01*
X87605713Y-62615057D02*
X87558094Y-62567438D01*
X87558094Y-62567438D02*
X87462856Y-62519819D01*
X87462856Y-62519819D02*
X87224761Y-62519819D01*
X87224761Y-62519819D02*
X87081904Y-62567438D01*
X86748570Y-62519819D02*
X86510475Y-63519819D01*
X86510475Y-63519819D02*
X86319999Y-62805533D01*
X86319999Y-62805533D02*
X86129523Y-63519819D01*
X86129523Y-63519819D02*
X85891428Y-62519819D01*
X84986666Y-63519819D02*
X85558094Y-63519819D01*
X85272380Y-63519819D02*
X85272380Y-62519819D01*
X85272380Y-62519819D02*
X85367618Y-62662676D01*
X85367618Y-62662676D02*
X85462856Y-62757914D01*
X85462856Y-62757914D02*
X85558094Y-62805533D01*
X123653332Y-75472200D02*
X123510475Y-75519819D01*
X123510475Y-75519819D02*
X123272380Y-75519819D01*
X123272380Y-75519819D02*
X123177142Y-75472200D01*
X123177142Y-75472200D02*
X123129523Y-75424580D01*
X123129523Y-75424580D02*
X123081904Y-75329342D01*
X123081904Y-75329342D02*
X123081904Y-75234104D01*
X123081904Y-75234104D02*
X123129523Y-75138866D01*
X123129523Y-75138866D02*
X123177142Y-75091247D01*
X123177142Y-75091247D02*
X123272380Y-75043628D01*
X123272380Y-75043628D02*
X123462856Y-74996009D01*
X123462856Y-74996009D02*
X123558094Y-74948390D01*
X123558094Y-74948390D02*
X123605713Y-74900771D01*
X123605713Y-74900771D02*
X123653332Y-74805533D01*
X123653332Y-74805533D02*
X123653332Y-74710295D01*
X123653332Y-74710295D02*
X123605713Y-74615057D01*
X123605713Y-74615057D02*
X123558094Y-74567438D01*
X123558094Y-74567438D02*
X123462856Y-74519819D01*
X123462856Y-74519819D02*
X123224761Y-74519819D01*
X123224761Y-74519819D02*
X123081904Y-74567438D01*
X122748570Y-74519819D02*
X122510475Y-75519819D01*
X122510475Y-75519819D02*
X122319999Y-74805533D01*
X122319999Y-74805533D02*
X122129523Y-75519819D01*
X122129523Y-75519819D02*
X121891428Y-74519819D01*
X121462856Y-75519819D02*
X121272380Y-75519819D01*
X121272380Y-75519819D02*
X121177142Y-75472200D01*
X121177142Y-75472200D02*
X121129523Y-75424580D01*
X121129523Y-75424580D02*
X121034285Y-75281723D01*
X121034285Y-75281723D02*
X120986666Y-75091247D01*
X120986666Y-75091247D02*
X120986666Y-74710295D01*
X120986666Y-74710295D02*
X121034285Y-74615057D01*
X121034285Y-74615057D02*
X121081904Y-74567438D01*
X121081904Y-74567438D02*
X121177142Y-74519819D01*
X121177142Y-74519819D02*
X121367618Y-74519819D01*
X121367618Y-74519819D02*
X121462856Y-74567438D01*
X121462856Y-74567438D02*
X121510475Y-74615057D01*
X121510475Y-74615057D02*
X121558094Y-74710295D01*
X121558094Y-74710295D02*
X121558094Y-74948390D01*
X121558094Y-74948390D02*
X121510475Y-75043628D01*
X121510475Y-75043628D02*
X121462856Y-75091247D01*
X121462856Y-75091247D02*
X121367618Y-75138866D01*
X121367618Y-75138866D02*
X121177142Y-75138866D01*
X121177142Y-75138866D02*
X121081904Y-75091247D01*
X121081904Y-75091247D02*
X121034285Y-75043628D01*
X121034285Y-75043628D02*
X120986666Y-74948390D01*
X159653332Y-57472200D02*
X159510475Y-57519819D01*
X159510475Y-57519819D02*
X159272380Y-57519819D01*
X159272380Y-57519819D02*
X159177142Y-57472200D01*
X159177142Y-57472200D02*
X159129523Y-57424580D01*
X159129523Y-57424580D02*
X159081904Y-57329342D01*
X159081904Y-57329342D02*
X159081904Y-57234104D01*
X159081904Y-57234104D02*
X159129523Y-57138866D01*
X159129523Y-57138866D02*
X159177142Y-57091247D01*
X159177142Y-57091247D02*
X159272380Y-57043628D01*
X159272380Y-57043628D02*
X159462856Y-56996009D01*
X159462856Y-56996009D02*
X159558094Y-56948390D01*
X159558094Y-56948390D02*
X159605713Y-56900771D01*
X159605713Y-56900771D02*
X159653332Y-56805533D01*
X159653332Y-56805533D02*
X159653332Y-56710295D01*
X159653332Y-56710295D02*
X159605713Y-56615057D01*
X159605713Y-56615057D02*
X159558094Y-56567438D01*
X159558094Y-56567438D02*
X159462856Y-56519819D01*
X159462856Y-56519819D02*
X159224761Y-56519819D01*
X159224761Y-56519819D02*
X159081904Y-56567438D01*
X158748570Y-56519819D02*
X158510475Y-57519819D01*
X158510475Y-57519819D02*
X158319999Y-56805533D01*
X158319999Y-56805533D02*
X158129523Y-57519819D01*
X158129523Y-57519819D02*
X157891428Y-56519819D01*
X157034285Y-56519819D02*
X157510475Y-56519819D01*
X157510475Y-56519819D02*
X157558094Y-56996009D01*
X157558094Y-56996009D02*
X157510475Y-56948390D01*
X157510475Y-56948390D02*
X157415237Y-56900771D01*
X157415237Y-56900771D02*
X157177142Y-56900771D01*
X157177142Y-56900771D02*
X157081904Y-56948390D01*
X157081904Y-56948390D02*
X157034285Y-56996009D01*
X157034285Y-56996009D02*
X156986666Y-57091247D01*
X156986666Y-57091247D02*
X156986666Y-57329342D01*
X156986666Y-57329342D02*
X157034285Y-57424580D01*
X157034285Y-57424580D02*
X157081904Y-57472200D01*
X157081904Y-57472200D02*
X157177142Y-57519819D01*
X157177142Y-57519819D02*
X157415237Y-57519819D01*
X157415237Y-57519819D02*
X157510475Y-57472200D01*
X157510475Y-57472200D02*
X157558094Y-57424580D01*
X88209523Y-99472200D02*
X88066666Y-99519819D01*
X88066666Y-99519819D02*
X87828571Y-99519819D01*
X87828571Y-99519819D02*
X87733333Y-99472200D01*
X87733333Y-99472200D02*
X87685714Y-99424580D01*
X87685714Y-99424580D02*
X87638095Y-99329342D01*
X87638095Y-99329342D02*
X87638095Y-99234104D01*
X87638095Y-99234104D02*
X87685714Y-99138866D01*
X87685714Y-99138866D02*
X87733333Y-99091247D01*
X87733333Y-99091247D02*
X87828571Y-99043628D01*
X87828571Y-99043628D02*
X88019047Y-98996009D01*
X88019047Y-98996009D02*
X88114285Y-98948390D01*
X88114285Y-98948390D02*
X88161904Y-98900771D01*
X88161904Y-98900771D02*
X88209523Y-98805533D01*
X88209523Y-98805533D02*
X88209523Y-98710295D01*
X88209523Y-98710295D02*
X88161904Y-98615057D01*
X88161904Y-98615057D02*
X88114285Y-98567438D01*
X88114285Y-98567438D02*
X88019047Y-98519819D01*
X88019047Y-98519819D02*
X87780952Y-98519819D01*
X87780952Y-98519819D02*
X87638095Y-98567438D01*
X87304761Y-98519819D02*
X87066666Y-99519819D01*
X87066666Y-99519819D02*
X86876190Y-98805533D01*
X86876190Y-98805533D02*
X86685714Y-99519819D01*
X86685714Y-99519819D02*
X86447619Y-98519819D01*
X85542857Y-99519819D02*
X86114285Y-99519819D01*
X85828571Y-99519819D02*
X85828571Y-98519819D01*
X85828571Y-98519819D02*
X85923809Y-98662676D01*
X85923809Y-98662676D02*
X86019047Y-98757914D01*
X86019047Y-98757914D02*
X86114285Y-98805533D01*
X85209523Y-98519819D02*
X84590476Y-98519819D01*
X84590476Y-98519819D02*
X84923809Y-98900771D01*
X84923809Y-98900771D02*
X84780952Y-98900771D01*
X84780952Y-98900771D02*
X84685714Y-98948390D01*
X84685714Y-98948390D02*
X84638095Y-98996009D01*
X84638095Y-98996009D02*
X84590476Y-99091247D01*
X84590476Y-99091247D02*
X84590476Y-99329342D01*
X84590476Y-99329342D02*
X84638095Y-99424580D01*
X84638095Y-99424580D02*
X84685714Y-99472200D01*
X84685714Y-99472200D02*
X84780952Y-99519819D01*
X84780952Y-99519819D02*
X85066666Y-99519819D01*
X85066666Y-99519819D02*
X85161904Y-99472200D01*
X85161904Y-99472200D02*
X85209523Y-99424580D01*
X124289523Y-93472200D02*
X124146666Y-93519819D01*
X124146666Y-93519819D02*
X123908571Y-93519819D01*
X123908571Y-93519819D02*
X123813333Y-93472200D01*
X123813333Y-93472200D02*
X123765714Y-93424580D01*
X123765714Y-93424580D02*
X123718095Y-93329342D01*
X123718095Y-93329342D02*
X123718095Y-93234104D01*
X123718095Y-93234104D02*
X123765714Y-93138866D01*
X123765714Y-93138866D02*
X123813333Y-93091247D01*
X123813333Y-93091247D02*
X123908571Y-93043628D01*
X123908571Y-93043628D02*
X124099047Y-92996009D01*
X124099047Y-92996009D02*
X124194285Y-92948390D01*
X124194285Y-92948390D02*
X124241904Y-92900771D01*
X124241904Y-92900771D02*
X124289523Y-92805533D01*
X124289523Y-92805533D02*
X124289523Y-92710295D01*
X124289523Y-92710295D02*
X124241904Y-92615057D01*
X124241904Y-92615057D02*
X124194285Y-92567438D01*
X124194285Y-92567438D02*
X124099047Y-92519819D01*
X124099047Y-92519819D02*
X123860952Y-92519819D01*
X123860952Y-92519819D02*
X123718095Y-92567438D01*
X123384761Y-92519819D02*
X123146666Y-93519819D01*
X123146666Y-93519819D02*
X122956190Y-92805533D01*
X122956190Y-92805533D02*
X122765714Y-93519819D01*
X122765714Y-93519819D02*
X122527619Y-92519819D01*
X121622857Y-93519819D02*
X122194285Y-93519819D01*
X121908571Y-93519819D02*
X121908571Y-92519819D01*
X121908571Y-92519819D02*
X122003809Y-92662676D01*
X122003809Y-92662676D02*
X122099047Y-92757914D01*
X122099047Y-92757914D02*
X122194285Y-92805533D01*
X120718095Y-92519819D02*
X121194285Y-92519819D01*
X121194285Y-92519819D02*
X121241904Y-92996009D01*
X121241904Y-92996009D02*
X121194285Y-92948390D01*
X121194285Y-92948390D02*
X121099047Y-92900771D01*
X121099047Y-92900771D02*
X120860952Y-92900771D01*
X120860952Y-92900771D02*
X120765714Y-92948390D01*
X120765714Y-92948390D02*
X120718095Y-92996009D01*
X120718095Y-92996009D02*
X120670476Y-93091247D01*
X120670476Y-93091247D02*
X120670476Y-93329342D01*
X120670476Y-93329342D02*
X120718095Y-93424580D01*
X120718095Y-93424580D02*
X120765714Y-93472200D01*
X120765714Y-93472200D02*
X120860952Y-93519819D01*
X120860952Y-93519819D02*
X121099047Y-93519819D01*
X121099047Y-93519819D02*
X121194285Y-93472200D01*
X121194285Y-93472200D02*
X121241904Y-93424580D01*
X105653332Y-63472200D02*
X105510475Y-63519819D01*
X105510475Y-63519819D02*
X105272380Y-63519819D01*
X105272380Y-63519819D02*
X105177142Y-63472200D01*
X105177142Y-63472200D02*
X105129523Y-63424580D01*
X105129523Y-63424580D02*
X105081904Y-63329342D01*
X105081904Y-63329342D02*
X105081904Y-63234104D01*
X105081904Y-63234104D02*
X105129523Y-63138866D01*
X105129523Y-63138866D02*
X105177142Y-63091247D01*
X105177142Y-63091247D02*
X105272380Y-63043628D01*
X105272380Y-63043628D02*
X105462856Y-62996009D01*
X105462856Y-62996009D02*
X105558094Y-62948390D01*
X105558094Y-62948390D02*
X105605713Y-62900771D01*
X105605713Y-62900771D02*
X105653332Y-62805533D01*
X105653332Y-62805533D02*
X105653332Y-62710295D01*
X105653332Y-62710295D02*
X105605713Y-62615057D01*
X105605713Y-62615057D02*
X105558094Y-62567438D01*
X105558094Y-62567438D02*
X105462856Y-62519819D01*
X105462856Y-62519819D02*
X105224761Y-62519819D01*
X105224761Y-62519819D02*
X105081904Y-62567438D01*
X104748570Y-62519819D02*
X104510475Y-63519819D01*
X104510475Y-63519819D02*
X104319999Y-62805533D01*
X104319999Y-62805533D02*
X104129523Y-63519819D01*
X104129523Y-63519819D02*
X103891428Y-62519819D01*
X103558094Y-62615057D02*
X103510475Y-62567438D01*
X103510475Y-62567438D02*
X103415237Y-62519819D01*
X103415237Y-62519819D02*
X103177142Y-62519819D01*
X103177142Y-62519819D02*
X103081904Y-62567438D01*
X103081904Y-62567438D02*
X103034285Y-62615057D01*
X103034285Y-62615057D02*
X102986666Y-62710295D01*
X102986666Y-62710295D02*
X102986666Y-62805533D01*
X102986666Y-62805533D02*
X103034285Y-62948390D01*
X103034285Y-62948390D02*
X103605713Y-63519819D01*
X103605713Y-63519819D02*
X102986666Y-63519819D01*
X145129523Y-111472200D02*
X144986666Y-111519819D01*
X144986666Y-111519819D02*
X144748571Y-111519819D01*
X144748571Y-111519819D02*
X144653333Y-111472200D01*
X144653333Y-111472200D02*
X144605714Y-111424580D01*
X144605714Y-111424580D02*
X144558095Y-111329342D01*
X144558095Y-111329342D02*
X144558095Y-111234104D01*
X144558095Y-111234104D02*
X144605714Y-111138866D01*
X144605714Y-111138866D02*
X144653333Y-111091247D01*
X144653333Y-111091247D02*
X144748571Y-111043628D01*
X144748571Y-111043628D02*
X144939047Y-110996009D01*
X144939047Y-110996009D02*
X145034285Y-110948390D01*
X145034285Y-110948390D02*
X145081904Y-110900771D01*
X145081904Y-110900771D02*
X145129523Y-110805533D01*
X145129523Y-110805533D02*
X145129523Y-110710295D01*
X145129523Y-110710295D02*
X145081904Y-110615057D01*
X145081904Y-110615057D02*
X145034285Y-110567438D01*
X145034285Y-110567438D02*
X144939047Y-110519819D01*
X144939047Y-110519819D02*
X144700952Y-110519819D01*
X144700952Y-110519819D02*
X144558095Y-110567438D01*
X144224761Y-110519819D02*
X143986666Y-111519819D01*
X143986666Y-111519819D02*
X143796190Y-110805533D01*
X143796190Y-110805533D02*
X143605714Y-111519819D01*
X143605714Y-111519819D02*
X143367619Y-110519819D01*
X142462857Y-111519819D02*
X143034285Y-111519819D01*
X142748571Y-111519819D02*
X142748571Y-110519819D01*
X142748571Y-110519819D02*
X142843809Y-110662676D01*
X142843809Y-110662676D02*
X142939047Y-110757914D01*
X142939047Y-110757914D02*
X143034285Y-110805533D01*
X141986666Y-111519819D02*
X141796190Y-111519819D01*
X141796190Y-111519819D02*
X141700952Y-111472200D01*
X141700952Y-111472200D02*
X141653333Y-111424580D01*
X141653333Y-111424580D02*
X141558095Y-111281723D01*
X141558095Y-111281723D02*
X141510476Y-111091247D01*
X141510476Y-111091247D02*
X141510476Y-110710295D01*
X141510476Y-110710295D02*
X141558095Y-110615057D01*
X141558095Y-110615057D02*
X141605714Y-110567438D01*
X141605714Y-110567438D02*
X141700952Y-110519819D01*
X141700952Y-110519819D02*
X141891428Y-110519819D01*
X141891428Y-110519819D02*
X141986666Y-110567438D01*
X141986666Y-110567438D02*
X142034285Y-110615057D01*
X142034285Y-110615057D02*
X142081904Y-110710295D01*
X142081904Y-110710295D02*
X142081904Y-110948390D01*
X142081904Y-110948390D02*
X142034285Y-111043628D01*
X142034285Y-111043628D02*
X141986666Y-111091247D01*
X141986666Y-111091247D02*
X141891428Y-111138866D01*
X141891428Y-111138866D02*
X141700952Y-111138866D01*
X141700952Y-111138866D02*
X141605714Y-111091247D01*
X141605714Y-111091247D02*
X141558095Y-111043628D01*
X141558095Y-111043628D02*
X141510476Y-110948390D01*
X141733332Y-51472200D02*
X141590475Y-51519819D01*
X141590475Y-51519819D02*
X141352380Y-51519819D01*
X141352380Y-51519819D02*
X141257142Y-51472200D01*
X141257142Y-51472200D02*
X141209523Y-51424580D01*
X141209523Y-51424580D02*
X141161904Y-51329342D01*
X141161904Y-51329342D02*
X141161904Y-51234104D01*
X141161904Y-51234104D02*
X141209523Y-51138866D01*
X141209523Y-51138866D02*
X141257142Y-51091247D01*
X141257142Y-51091247D02*
X141352380Y-51043628D01*
X141352380Y-51043628D02*
X141542856Y-50996009D01*
X141542856Y-50996009D02*
X141638094Y-50948390D01*
X141638094Y-50948390D02*
X141685713Y-50900771D01*
X141685713Y-50900771D02*
X141733332Y-50805533D01*
X141733332Y-50805533D02*
X141733332Y-50710295D01*
X141733332Y-50710295D02*
X141685713Y-50615057D01*
X141685713Y-50615057D02*
X141638094Y-50567438D01*
X141638094Y-50567438D02*
X141542856Y-50519819D01*
X141542856Y-50519819D02*
X141304761Y-50519819D01*
X141304761Y-50519819D02*
X141161904Y-50567438D01*
X140828570Y-50519819D02*
X140590475Y-51519819D01*
X140590475Y-51519819D02*
X140399999Y-50805533D01*
X140399999Y-50805533D02*
X140209523Y-51519819D01*
X140209523Y-51519819D02*
X139971428Y-50519819D01*
X139161904Y-50853152D02*
X139161904Y-51519819D01*
X139399999Y-50472200D02*
X139638094Y-51186485D01*
X139638094Y-51186485D02*
X139019047Y-51186485D01*
X105653332Y-81472200D02*
X105510475Y-81519819D01*
X105510475Y-81519819D02*
X105272380Y-81519819D01*
X105272380Y-81519819D02*
X105177142Y-81472200D01*
X105177142Y-81472200D02*
X105129523Y-81424580D01*
X105129523Y-81424580D02*
X105081904Y-81329342D01*
X105081904Y-81329342D02*
X105081904Y-81234104D01*
X105081904Y-81234104D02*
X105129523Y-81138866D01*
X105129523Y-81138866D02*
X105177142Y-81091247D01*
X105177142Y-81091247D02*
X105272380Y-81043628D01*
X105272380Y-81043628D02*
X105462856Y-80996009D01*
X105462856Y-80996009D02*
X105558094Y-80948390D01*
X105558094Y-80948390D02*
X105605713Y-80900771D01*
X105605713Y-80900771D02*
X105653332Y-80805533D01*
X105653332Y-80805533D02*
X105653332Y-80710295D01*
X105653332Y-80710295D02*
X105605713Y-80615057D01*
X105605713Y-80615057D02*
X105558094Y-80567438D01*
X105558094Y-80567438D02*
X105462856Y-80519819D01*
X105462856Y-80519819D02*
X105224761Y-80519819D01*
X105224761Y-80519819D02*
X105081904Y-80567438D01*
X104748570Y-80519819D02*
X104510475Y-81519819D01*
X104510475Y-81519819D02*
X104319999Y-80805533D01*
X104319999Y-80805533D02*
X104129523Y-81519819D01*
X104129523Y-81519819D02*
X103891428Y-80519819D01*
X103367618Y-80948390D02*
X103462856Y-80900771D01*
X103462856Y-80900771D02*
X103510475Y-80853152D01*
X103510475Y-80853152D02*
X103558094Y-80757914D01*
X103558094Y-80757914D02*
X103558094Y-80710295D01*
X103558094Y-80710295D02*
X103510475Y-80615057D01*
X103510475Y-80615057D02*
X103462856Y-80567438D01*
X103462856Y-80567438D02*
X103367618Y-80519819D01*
X103367618Y-80519819D02*
X103177142Y-80519819D01*
X103177142Y-80519819D02*
X103081904Y-80567438D01*
X103081904Y-80567438D02*
X103034285Y-80615057D01*
X103034285Y-80615057D02*
X102986666Y-80710295D01*
X102986666Y-80710295D02*
X102986666Y-80757914D01*
X102986666Y-80757914D02*
X103034285Y-80853152D01*
X103034285Y-80853152D02*
X103081904Y-80900771D01*
X103081904Y-80900771D02*
X103177142Y-80948390D01*
X103177142Y-80948390D02*
X103367618Y-80948390D01*
X103367618Y-80948390D02*
X103462856Y-80996009D01*
X103462856Y-80996009D02*
X103510475Y-81043628D01*
X103510475Y-81043628D02*
X103558094Y-81138866D01*
X103558094Y-81138866D02*
X103558094Y-81329342D01*
X103558094Y-81329342D02*
X103510475Y-81424580D01*
X103510475Y-81424580D02*
X103462856Y-81472200D01*
X103462856Y-81472200D02*
X103367618Y-81519819D01*
X103367618Y-81519819D02*
X103177142Y-81519819D01*
X103177142Y-81519819D02*
X103081904Y-81472200D01*
X103081904Y-81472200D02*
X103034285Y-81424580D01*
X103034285Y-81424580D02*
X102986666Y-81329342D01*
X102986666Y-81329342D02*
X102986666Y-81138866D01*
X102986666Y-81138866D02*
X103034285Y-81043628D01*
X103034285Y-81043628D02*
X103081904Y-80996009D01*
X103081904Y-80996009D02*
X103177142Y-80948390D01*
X160209523Y-93472200D02*
X160066666Y-93519819D01*
X160066666Y-93519819D02*
X159828571Y-93519819D01*
X159828571Y-93519819D02*
X159733333Y-93472200D01*
X159733333Y-93472200D02*
X159685714Y-93424580D01*
X159685714Y-93424580D02*
X159638095Y-93329342D01*
X159638095Y-93329342D02*
X159638095Y-93234104D01*
X159638095Y-93234104D02*
X159685714Y-93138866D01*
X159685714Y-93138866D02*
X159733333Y-93091247D01*
X159733333Y-93091247D02*
X159828571Y-93043628D01*
X159828571Y-93043628D02*
X160019047Y-92996009D01*
X160019047Y-92996009D02*
X160114285Y-92948390D01*
X160114285Y-92948390D02*
X160161904Y-92900771D01*
X160161904Y-92900771D02*
X160209523Y-92805533D01*
X160209523Y-92805533D02*
X160209523Y-92710295D01*
X160209523Y-92710295D02*
X160161904Y-92615057D01*
X160161904Y-92615057D02*
X160114285Y-92567438D01*
X160114285Y-92567438D02*
X160019047Y-92519819D01*
X160019047Y-92519819D02*
X159780952Y-92519819D01*
X159780952Y-92519819D02*
X159638095Y-92567438D01*
X159304761Y-92519819D02*
X159066666Y-93519819D01*
X159066666Y-93519819D02*
X158876190Y-92805533D01*
X158876190Y-92805533D02*
X158685714Y-93519819D01*
X158685714Y-93519819D02*
X158447619Y-92519819D01*
X157542857Y-93519819D02*
X158114285Y-93519819D01*
X157828571Y-93519819D02*
X157828571Y-92519819D01*
X157828571Y-92519819D02*
X157923809Y-92662676D01*
X157923809Y-92662676D02*
X158019047Y-92757914D01*
X158019047Y-92757914D02*
X158114285Y-92805533D01*
X157209523Y-92519819D02*
X156542857Y-92519819D01*
X156542857Y-92519819D02*
X156971428Y-93519819D01*
X178129523Y-99472200D02*
X177986666Y-99519819D01*
X177986666Y-99519819D02*
X177748571Y-99519819D01*
X177748571Y-99519819D02*
X177653333Y-99472200D01*
X177653333Y-99472200D02*
X177605714Y-99424580D01*
X177605714Y-99424580D02*
X177558095Y-99329342D01*
X177558095Y-99329342D02*
X177558095Y-99234104D01*
X177558095Y-99234104D02*
X177605714Y-99138866D01*
X177605714Y-99138866D02*
X177653333Y-99091247D01*
X177653333Y-99091247D02*
X177748571Y-99043628D01*
X177748571Y-99043628D02*
X177939047Y-98996009D01*
X177939047Y-98996009D02*
X178034285Y-98948390D01*
X178034285Y-98948390D02*
X178081904Y-98900771D01*
X178081904Y-98900771D02*
X178129523Y-98805533D01*
X178129523Y-98805533D02*
X178129523Y-98710295D01*
X178129523Y-98710295D02*
X178081904Y-98615057D01*
X178081904Y-98615057D02*
X178034285Y-98567438D01*
X178034285Y-98567438D02*
X177939047Y-98519819D01*
X177939047Y-98519819D02*
X177700952Y-98519819D01*
X177700952Y-98519819D02*
X177558095Y-98567438D01*
X177224761Y-98519819D02*
X176986666Y-99519819D01*
X176986666Y-99519819D02*
X176796190Y-98805533D01*
X176796190Y-98805533D02*
X176605714Y-99519819D01*
X176605714Y-99519819D02*
X176367619Y-98519819D01*
X175462857Y-99519819D02*
X176034285Y-99519819D01*
X175748571Y-99519819D02*
X175748571Y-98519819D01*
X175748571Y-98519819D02*
X175843809Y-98662676D01*
X175843809Y-98662676D02*
X175939047Y-98757914D01*
X175939047Y-98757914D02*
X176034285Y-98805533D01*
X174891428Y-98948390D02*
X174986666Y-98900771D01*
X174986666Y-98900771D02*
X175034285Y-98853152D01*
X175034285Y-98853152D02*
X175081904Y-98757914D01*
X175081904Y-98757914D02*
X175081904Y-98710295D01*
X175081904Y-98710295D02*
X175034285Y-98615057D01*
X175034285Y-98615057D02*
X174986666Y-98567438D01*
X174986666Y-98567438D02*
X174891428Y-98519819D01*
X174891428Y-98519819D02*
X174700952Y-98519819D01*
X174700952Y-98519819D02*
X174605714Y-98567438D01*
X174605714Y-98567438D02*
X174558095Y-98615057D01*
X174558095Y-98615057D02*
X174510476Y-98710295D01*
X174510476Y-98710295D02*
X174510476Y-98757914D01*
X174510476Y-98757914D02*
X174558095Y-98853152D01*
X174558095Y-98853152D02*
X174605714Y-98900771D01*
X174605714Y-98900771D02*
X174700952Y-98948390D01*
X174700952Y-98948390D02*
X174891428Y-98948390D01*
X174891428Y-98948390D02*
X174986666Y-98996009D01*
X174986666Y-98996009D02*
X175034285Y-99043628D01*
X175034285Y-99043628D02*
X175081904Y-99138866D01*
X175081904Y-99138866D02*
X175081904Y-99329342D01*
X175081904Y-99329342D02*
X175034285Y-99424580D01*
X175034285Y-99424580D02*
X174986666Y-99472200D01*
X174986666Y-99472200D02*
X174891428Y-99519819D01*
X174891428Y-99519819D02*
X174700952Y-99519819D01*
X174700952Y-99519819D02*
X174605714Y-99472200D01*
X174605714Y-99472200D02*
X174558095Y-99424580D01*
X174558095Y-99424580D02*
X174510476Y-99329342D01*
X174510476Y-99329342D02*
X174510476Y-99138866D01*
X174510476Y-99138866D02*
X174558095Y-99043628D01*
X174558095Y-99043628D02*
X174605714Y-98996009D01*
X174605714Y-98996009D02*
X174700952Y-98948390D01*
X178289523Y-81472200D02*
X178146666Y-81519819D01*
X178146666Y-81519819D02*
X177908571Y-81519819D01*
X177908571Y-81519819D02*
X177813333Y-81472200D01*
X177813333Y-81472200D02*
X177765714Y-81424580D01*
X177765714Y-81424580D02*
X177718095Y-81329342D01*
X177718095Y-81329342D02*
X177718095Y-81234104D01*
X177718095Y-81234104D02*
X177765714Y-81138866D01*
X177765714Y-81138866D02*
X177813333Y-81091247D01*
X177813333Y-81091247D02*
X177908571Y-81043628D01*
X177908571Y-81043628D02*
X178099047Y-80996009D01*
X178099047Y-80996009D02*
X178194285Y-80948390D01*
X178194285Y-80948390D02*
X178241904Y-80900771D01*
X178241904Y-80900771D02*
X178289523Y-80805533D01*
X178289523Y-80805533D02*
X178289523Y-80710295D01*
X178289523Y-80710295D02*
X178241904Y-80615057D01*
X178241904Y-80615057D02*
X178194285Y-80567438D01*
X178194285Y-80567438D02*
X178099047Y-80519819D01*
X178099047Y-80519819D02*
X177860952Y-80519819D01*
X177860952Y-80519819D02*
X177718095Y-80567438D01*
X177384761Y-80519819D02*
X177146666Y-81519819D01*
X177146666Y-81519819D02*
X176956190Y-80805533D01*
X176956190Y-80805533D02*
X176765714Y-81519819D01*
X176765714Y-81519819D02*
X176527619Y-80519819D01*
X175622857Y-81519819D02*
X176194285Y-81519819D01*
X175908571Y-81519819D02*
X175908571Y-80519819D01*
X175908571Y-80519819D02*
X176003809Y-80662676D01*
X176003809Y-80662676D02*
X176099047Y-80757914D01*
X176099047Y-80757914D02*
X176194285Y-80805533D01*
X175241904Y-80615057D02*
X175194285Y-80567438D01*
X175194285Y-80567438D02*
X175099047Y-80519819D01*
X175099047Y-80519819D02*
X174860952Y-80519819D01*
X174860952Y-80519819D02*
X174765714Y-80567438D01*
X174765714Y-80567438D02*
X174718095Y-80615057D01*
X174718095Y-80615057D02*
X174670476Y-80710295D01*
X174670476Y-80710295D02*
X174670476Y-80805533D01*
X174670476Y-80805533D02*
X174718095Y-80948390D01*
X174718095Y-80948390D02*
X175289523Y-81519819D01*
X175289523Y-81519819D02*
X174670476Y-81519819D01*
X160129523Y-75472200D02*
X159986666Y-75519819D01*
X159986666Y-75519819D02*
X159748571Y-75519819D01*
X159748571Y-75519819D02*
X159653333Y-75472200D01*
X159653333Y-75472200D02*
X159605714Y-75424580D01*
X159605714Y-75424580D02*
X159558095Y-75329342D01*
X159558095Y-75329342D02*
X159558095Y-75234104D01*
X159558095Y-75234104D02*
X159605714Y-75138866D01*
X159605714Y-75138866D02*
X159653333Y-75091247D01*
X159653333Y-75091247D02*
X159748571Y-75043628D01*
X159748571Y-75043628D02*
X159939047Y-74996009D01*
X159939047Y-74996009D02*
X160034285Y-74948390D01*
X160034285Y-74948390D02*
X160081904Y-74900771D01*
X160081904Y-74900771D02*
X160129523Y-74805533D01*
X160129523Y-74805533D02*
X160129523Y-74710295D01*
X160129523Y-74710295D02*
X160081904Y-74615057D01*
X160081904Y-74615057D02*
X160034285Y-74567438D01*
X160034285Y-74567438D02*
X159939047Y-74519819D01*
X159939047Y-74519819D02*
X159700952Y-74519819D01*
X159700952Y-74519819D02*
X159558095Y-74567438D01*
X159224761Y-74519819D02*
X158986666Y-75519819D01*
X158986666Y-75519819D02*
X158796190Y-74805533D01*
X158796190Y-74805533D02*
X158605714Y-75519819D01*
X158605714Y-75519819D02*
X158367619Y-74519819D01*
X157462857Y-75519819D02*
X158034285Y-75519819D01*
X157748571Y-75519819D02*
X157748571Y-74519819D01*
X157748571Y-74519819D02*
X157843809Y-74662676D01*
X157843809Y-74662676D02*
X157939047Y-74757914D01*
X157939047Y-74757914D02*
X158034285Y-74805533D01*
X156510476Y-75519819D02*
X157081904Y-75519819D01*
X156796190Y-75519819D02*
X156796190Y-74519819D01*
X156796190Y-74519819D02*
X156891428Y-74662676D01*
X156891428Y-74662676D02*
X156986666Y-74757914D01*
X156986666Y-74757914D02*
X157081904Y-74805533D01*
X106129523Y-99472200D02*
X105986666Y-99519819D01*
X105986666Y-99519819D02*
X105748571Y-99519819D01*
X105748571Y-99519819D02*
X105653333Y-99472200D01*
X105653333Y-99472200D02*
X105605714Y-99424580D01*
X105605714Y-99424580D02*
X105558095Y-99329342D01*
X105558095Y-99329342D02*
X105558095Y-99234104D01*
X105558095Y-99234104D02*
X105605714Y-99138866D01*
X105605714Y-99138866D02*
X105653333Y-99091247D01*
X105653333Y-99091247D02*
X105748571Y-99043628D01*
X105748571Y-99043628D02*
X105939047Y-98996009D01*
X105939047Y-98996009D02*
X106034285Y-98948390D01*
X106034285Y-98948390D02*
X106081904Y-98900771D01*
X106081904Y-98900771D02*
X106129523Y-98805533D01*
X106129523Y-98805533D02*
X106129523Y-98710295D01*
X106129523Y-98710295D02*
X106081904Y-98615057D01*
X106081904Y-98615057D02*
X106034285Y-98567438D01*
X106034285Y-98567438D02*
X105939047Y-98519819D01*
X105939047Y-98519819D02*
X105700952Y-98519819D01*
X105700952Y-98519819D02*
X105558095Y-98567438D01*
X105224761Y-98519819D02*
X104986666Y-99519819D01*
X104986666Y-99519819D02*
X104796190Y-98805533D01*
X104796190Y-98805533D02*
X104605714Y-99519819D01*
X104605714Y-99519819D02*
X104367619Y-98519819D01*
X103462857Y-99519819D02*
X104034285Y-99519819D01*
X103748571Y-99519819D02*
X103748571Y-98519819D01*
X103748571Y-98519819D02*
X103843809Y-98662676D01*
X103843809Y-98662676D02*
X103939047Y-98757914D01*
X103939047Y-98757914D02*
X104034285Y-98805533D01*
X102605714Y-98853152D02*
X102605714Y-99519819D01*
X102843809Y-98472200D02*
X103081904Y-99186485D01*
X103081904Y-99186485D02*
X102462857Y-99186485D01*
%TO.C,SW20*%
X159009330Y-120725118D02*
X158818830Y-121055074D01*
X159148785Y-121245574D02*
X158818830Y-121055074D01*
X160723830Y-117755517D02*
X160533330Y-118085473D01*
X162184064Y-122997993D02*
X160688579Y-122134574D01*
X164193534Y-116825813D02*
X171892500Y-121270813D01*
X169670000Y-125120295D02*
X165270591Y-122580295D01*
X170178000Y-124240414D02*
X169670000Y-125120295D01*
X171892500Y-121270813D02*
X171702000Y-121600768D01*
X160723830Y-117755517D02*
G75*
G02*
X164193534Y-116825812I2199705J-1270001D01*
G01*
X162174584Y-123014413D02*
G75*
G02*
X165270591Y-122580294I1826008J-1765586D01*
G01*
%TO.C,SW21*%
X176505426Y-135232603D02*
X176314926Y-134902648D01*
X176644882Y-134712148D02*
X176314926Y-134902648D01*
X178257845Y-138267882D02*
X177394426Y-136772397D01*
X179614483Y-132997648D02*
X179284527Y-133188148D01*
X183084187Y-133927352D02*
X187529187Y-141626318D01*
X183679705Y-143848818D02*
X181139705Y-139449409D01*
X184559586Y-143340818D02*
X183679705Y-143848818D01*
X187529187Y-141626318D02*
X187199232Y-141816818D01*
X178241425Y-138277362D02*
G75*
G02*
X181139705Y-139449409I698576J-2442046D01*
G01*
X179614483Y-132997648D02*
G75*
G02*
X183084188Y-133927352I1270000J-2199706D01*
G01*
%TO.C,SW3*%
X115970000Y-60875000D02*
X115970000Y-61256000D01*
X115970000Y-64304000D02*
X115970000Y-64685000D01*
X116351000Y-64685000D02*
X115970000Y-64685000D01*
X118510000Y-58335000D02*
X127400000Y-58335000D01*
X119855838Y-64685000D02*
X118129000Y-64685000D01*
X127400000Y-58335000D02*
X127400000Y-58716000D01*
X127400000Y-61764000D02*
X127400000Y-62780000D01*
X127400000Y-62780000D02*
X122320000Y-62780000D01*
X115970000Y-60875000D02*
G75*
G02*
X118510000Y-58335000I2540001J-1D01*
G01*
X119855838Y-64703960D02*
G75*
G02*
X122320000Y-62779999I2464162J-616039D01*
G01*
%TO.C,SW6*%
X169970000Y-66875000D02*
X169970000Y-67256000D01*
X169970000Y-70304000D02*
X169970000Y-70685000D01*
X170351000Y-70685000D02*
X169970000Y-70685000D01*
X172510000Y-64335000D02*
X181400000Y-64335000D01*
X173855838Y-70685000D02*
X172129000Y-70685000D01*
X181400000Y-64335000D02*
X181400000Y-64716000D01*
X181400000Y-67764000D02*
X181400000Y-68780000D01*
X181400000Y-68780000D02*
X176320000Y-68780000D01*
X169970000Y-66875000D02*
G75*
G02*
X172510000Y-64335000I2540001J-1D01*
G01*
X173855838Y-70703960D02*
G75*
G02*
X176320000Y-68779999I2464162J-616039D01*
G01*
%TO.C,SW16*%
X134130000Y-90875000D02*
X134130000Y-91256000D01*
X134130000Y-94304000D02*
X134130000Y-94685000D01*
X134511000Y-94685000D02*
X134130000Y-94685000D01*
X136670000Y-88335000D02*
X145560000Y-88335000D01*
X138015838Y-94685000D02*
X136289000Y-94685000D01*
X145560000Y-88335000D02*
X145560000Y-88716000D01*
X145560000Y-91764000D02*
X145560000Y-92780000D01*
X145560000Y-92780000D02*
X140480000Y-92780000D01*
X134130000Y-90875000D02*
G75*
G02*
X136670000Y-88335000I2540001J-1D01*
G01*
X138015838Y-94703960D02*
G75*
G02*
X140480000Y-92779999I2464162J-616039D01*
G01*
%TO.C,SW7*%
X79970000Y-84875000D02*
X79970000Y-85256000D01*
X79970000Y-88304000D02*
X79970000Y-88685000D01*
X80351000Y-88685000D02*
X79970000Y-88685000D01*
X82510000Y-82335000D02*
X91400000Y-82335000D01*
X83855838Y-88685000D02*
X82129000Y-88685000D01*
X91400000Y-82335000D02*
X91400000Y-82716000D01*
X91400000Y-85764000D02*
X91400000Y-86780000D01*
X91400000Y-86780000D02*
X86320000Y-86780000D01*
X79970000Y-84875000D02*
G75*
G02*
X82510000Y-82335000I2540001J-1D01*
G01*
X83855838Y-88703960D02*
G75*
G02*
X86320000Y-86779999I2464162J-616039D01*
G01*
%TO.C,SW10*%
X133970000Y-72875000D02*
X133970000Y-73256000D01*
X133970000Y-76304000D02*
X133970000Y-76685000D01*
X134351000Y-76685000D02*
X133970000Y-76685000D01*
X136510000Y-70335000D02*
X145400000Y-70335000D01*
X137855838Y-76685000D02*
X136129000Y-76685000D01*
X145400000Y-70335000D02*
X145400000Y-70716000D01*
X145400000Y-73764000D02*
X145400000Y-74780000D01*
X145400000Y-74780000D02*
X140320000Y-74780000D01*
X133970000Y-72875000D02*
G75*
G02*
X136510000Y-70335000I2540001J-1D01*
G01*
X137855838Y-76703960D02*
G75*
G02*
X140320000Y-74779999I2464162J-616039D01*
G01*
%TO.C,SW1*%
X79970000Y-66875000D02*
X79970000Y-67256000D01*
X79970000Y-70304000D02*
X79970000Y-70685000D01*
X80351000Y-70685000D02*
X79970000Y-70685000D01*
X82510000Y-64335000D02*
X91400000Y-64335000D01*
X83855838Y-70685000D02*
X82129000Y-70685000D01*
X91400000Y-64335000D02*
X91400000Y-64716000D01*
X91400000Y-67764000D02*
X91400000Y-68780000D01*
X91400000Y-68780000D02*
X86320000Y-68780000D01*
X79970000Y-66875000D02*
G75*
G02*
X82510000Y-64335000I2540001J-1D01*
G01*
X83855838Y-70703960D02*
G75*
G02*
X86320000Y-68779999I2464162J-616039D01*
G01*
%TO.C,SW9*%
X115970000Y-78875000D02*
X115970000Y-79256000D01*
X115970000Y-82304000D02*
X115970000Y-82685000D01*
X116351000Y-82685000D02*
X115970000Y-82685000D01*
X118510000Y-76335000D02*
X127400000Y-76335000D01*
X119855838Y-82685000D02*
X118129000Y-82685000D01*
X127400000Y-76335000D02*
X127400000Y-76716000D01*
X127400000Y-79764000D02*
X127400000Y-80780000D01*
X127400000Y-80780000D02*
X122320000Y-80780000D01*
X115970000Y-78875000D02*
G75*
G02*
X118510000Y-76335000I2540001J-1D01*
G01*
X119855838Y-82703960D02*
G75*
G02*
X122320000Y-80779999I2464162J-616039D01*
G01*
%TO.C,SW5*%
X151970000Y-60875000D02*
X151970000Y-61256000D01*
X151970000Y-64304000D02*
X151970000Y-64685000D01*
X152351000Y-64685000D02*
X151970000Y-64685000D01*
X154510000Y-58335000D02*
X163400000Y-58335000D01*
X155855838Y-64685000D02*
X154129000Y-64685000D01*
X163400000Y-58335000D02*
X163400000Y-58716000D01*
X163400000Y-61764000D02*
X163400000Y-62780000D01*
X163400000Y-62780000D02*
X158320000Y-62780000D01*
X151970000Y-60875000D02*
G75*
G02*
X154510000Y-58335000I2540001J-1D01*
G01*
X155855838Y-64703960D02*
G75*
G02*
X158320000Y-62779999I2464162J-616039D01*
G01*
%TO.C,SW13*%
X80050000Y-102875000D02*
X80050000Y-103256000D01*
X80050000Y-106304000D02*
X80050000Y-106685000D01*
X80431000Y-106685000D02*
X80050000Y-106685000D01*
X82590000Y-100335000D02*
X91480000Y-100335000D01*
X83935838Y-106685000D02*
X82209000Y-106685000D01*
X91480000Y-100335000D02*
X91480000Y-100716000D01*
X91480000Y-103764000D02*
X91480000Y-104780000D01*
X91480000Y-104780000D02*
X86400000Y-104780000D01*
X80050000Y-102875000D02*
G75*
G02*
X82590000Y-100335000I2540001J-1D01*
G01*
X83935838Y-106703960D02*
G75*
G02*
X86400000Y-104779999I2464162J-616039D01*
G01*
%TO.C,SW15*%
X116130000Y-96875000D02*
X116130000Y-97256000D01*
X116130000Y-100304000D02*
X116130000Y-100685000D01*
X116511000Y-100685000D02*
X116130000Y-100685000D01*
X118670000Y-94335000D02*
X127560000Y-94335000D01*
X120015838Y-100685000D02*
X118289000Y-100685000D01*
X127560000Y-94335000D02*
X127560000Y-94716000D01*
X127560000Y-97764000D02*
X127560000Y-98780000D01*
X127560000Y-98780000D02*
X122480000Y-98780000D01*
X116130000Y-96875000D02*
G75*
G02*
X118670000Y-94335000I2540001J-1D01*
G01*
X120015838Y-100703960D02*
G75*
G02*
X122480000Y-98779999I2464162J-616039D01*
G01*
%TO.C,SW2*%
X97970000Y-66875000D02*
X97970000Y-67256000D01*
X97970000Y-70304000D02*
X97970000Y-70685000D01*
X98351000Y-70685000D02*
X97970000Y-70685000D01*
X100510000Y-64335000D02*
X109400000Y-64335000D01*
X101855838Y-70685000D02*
X100129000Y-70685000D01*
X109400000Y-64335000D02*
X109400000Y-64716000D01*
X109400000Y-67764000D02*
X109400000Y-68780000D01*
X109400000Y-68780000D02*
X104320000Y-68780000D01*
X97970000Y-66875000D02*
G75*
G02*
X100510000Y-64335000I2540001J-1D01*
G01*
X101855838Y-70703960D02*
G75*
G02*
X104320000Y-68779999I2464162J-616039D01*
G01*
%TO.C,SW19*%
X136970000Y-114875000D02*
X136970000Y-115256000D01*
X136970000Y-118304000D02*
X136970000Y-118685000D01*
X137351000Y-118685000D02*
X136970000Y-118685000D01*
X139510000Y-112335000D02*
X148400000Y-112335000D01*
X140855838Y-118685000D02*
X139129000Y-118685000D01*
X148400000Y-112335000D02*
X148400000Y-112716000D01*
X148400000Y-115764000D02*
X148400000Y-116780000D01*
X148400000Y-116780000D02*
X143320000Y-116780000D01*
X136970000Y-114875000D02*
G75*
G02*
X139510000Y-112335000I2540001J-1D01*
G01*
X140855838Y-118703960D02*
G75*
G02*
X143320000Y-116779999I2464162J-616039D01*
G01*
%TO.C,SW4*%
X134050000Y-54875000D02*
X134050000Y-55256000D01*
X134050000Y-58304000D02*
X134050000Y-58685000D01*
X134431000Y-58685000D02*
X134050000Y-58685000D01*
X136590000Y-52335000D02*
X145480000Y-52335000D01*
X137935838Y-58685000D02*
X136209000Y-58685000D01*
X145480000Y-52335000D02*
X145480000Y-52716000D01*
X145480000Y-55764000D02*
X145480000Y-56780000D01*
X145480000Y-56780000D02*
X140400000Y-56780000D01*
X134050000Y-54875000D02*
G75*
G02*
X136590000Y-52335000I2540001J-1D01*
G01*
X137935838Y-58703960D02*
G75*
G02*
X140400000Y-56779999I2464162J-616039D01*
G01*
%TO.C,SW8*%
X97970000Y-84875000D02*
X97970000Y-85256000D01*
X97970000Y-88304000D02*
X97970000Y-88685000D01*
X98351000Y-88685000D02*
X97970000Y-88685000D01*
X100510000Y-82335000D02*
X109400000Y-82335000D01*
X101855838Y-88685000D02*
X100129000Y-88685000D01*
X109400000Y-82335000D02*
X109400000Y-82716000D01*
X109400000Y-85764000D02*
X109400000Y-86780000D01*
X109400000Y-86780000D02*
X104320000Y-86780000D01*
X97970000Y-84875000D02*
G75*
G02*
X100510000Y-82335000I2540001J-1D01*
G01*
X101855838Y-88703960D02*
G75*
G02*
X104320000Y-86779999I2464162J-616039D01*
G01*
%TO.C,SW17*%
X152050000Y-96875000D02*
X152050000Y-97256000D01*
X152050000Y-100304000D02*
X152050000Y-100685000D01*
X152431000Y-100685000D02*
X152050000Y-100685000D01*
X154590000Y-94335000D02*
X163480000Y-94335000D01*
X155935838Y-100685000D02*
X154209000Y-100685000D01*
X163480000Y-94335000D02*
X163480000Y-94716000D01*
X163480000Y-97764000D02*
X163480000Y-98780000D01*
X163480000Y-98780000D02*
X158400000Y-98780000D01*
X152050000Y-96875000D02*
G75*
G02*
X154590000Y-94335000I2540001J-1D01*
G01*
X155935838Y-100703960D02*
G75*
G02*
X158400000Y-98779999I2464162J-616039D01*
G01*
%TO.C,SW18*%
X169970000Y-102875000D02*
X169970000Y-103256000D01*
X169970000Y-106304000D02*
X169970000Y-106685000D01*
X170351000Y-106685000D02*
X169970000Y-106685000D01*
X172510000Y-100335000D02*
X181400000Y-100335000D01*
X173855838Y-106685000D02*
X172129000Y-106685000D01*
X181400000Y-100335000D02*
X181400000Y-100716000D01*
X181400000Y-103764000D02*
X181400000Y-104780000D01*
X181400000Y-104780000D02*
X176320000Y-104780000D01*
X169970000Y-102875000D02*
G75*
G02*
X172510000Y-100335000I2540001J-1D01*
G01*
X173855838Y-106703960D02*
G75*
G02*
X176320000Y-104779999I2464162J-616039D01*
G01*
%TO.C,SW12*%
X170130000Y-84875000D02*
X170130000Y-85256000D01*
X170130000Y-88304000D02*
X170130000Y-88685000D01*
X170511000Y-88685000D02*
X170130000Y-88685000D01*
X172670000Y-82335000D02*
X181560000Y-82335000D01*
X174015838Y-88685000D02*
X172289000Y-88685000D01*
X181560000Y-82335000D02*
X181560000Y-82716000D01*
X181560000Y-85764000D02*
X181560000Y-86780000D01*
X181560000Y-86780000D02*
X176480000Y-86780000D01*
X170130000Y-84875000D02*
G75*
G02*
X172670000Y-82335000I2540001J-1D01*
G01*
X174015838Y-88703960D02*
G75*
G02*
X176480000Y-86779999I2464162J-616039D01*
G01*
%TO.C,SW11*%
X151970000Y-78875000D02*
X151970000Y-79256000D01*
X151970000Y-82304000D02*
X151970000Y-82685000D01*
X152351000Y-82685000D02*
X151970000Y-82685000D01*
X154510000Y-76335000D02*
X163400000Y-76335000D01*
X155855838Y-82685000D02*
X154129000Y-82685000D01*
X163400000Y-76335000D02*
X163400000Y-76716000D01*
X163400000Y-79764000D02*
X163400000Y-80780000D01*
X163400000Y-80780000D02*
X158320000Y-80780000D01*
X151970000Y-78875000D02*
G75*
G02*
X154510000Y-76335000I2540001J-1D01*
G01*
X155855838Y-82703960D02*
G75*
G02*
X158320000Y-80779999I2464162J-616039D01*
G01*
%TO.C,SW14*%
X97970000Y-102875000D02*
X97970000Y-103256000D01*
X97970000Y-106304000D02*
X97970000Y-106685000D01*
X98351000Y-106685000D02*
X97970000Y-106685000D01*
X100510000Y-100335000D02*
X109400000Y-100335000D01*
X101855838Y-106685000D02*
X100129000Y-106685000D01*
X109400000Y-100335000D02*
X109400000Y-100716000D01*
X109400000Y-103764000D02*
X109400000Y-104780000D01*
X109400000Y-104780000D02*
X104320000Y-104780000D01*
X97970000Y-102875000D02*
G75*
G02*
X100510000Y-100335000I2540001J-1D01*
G01*
X101855838Y-106703960D02*
G75*
G02*
X104320000Y-104779999I2464162J-616039D01*
G01*
%TD*%
M02*
