%TF.GenerationSoftware,KiCad,Pcbnew,9.0.4*%
%TF.CreationDate,2025-11-01T07:51:32+01:00*%
%TF.ProjectId,kbv3-left,6b627633-2d6c-4656-9674-2e6b69636164,rev?*%
%TF.SameCoordinates,Original*%
%TF.FileFunction,Legend,Top*%
%TF.FilePolarity,Positive*%
%FSLAX46Y46*%
G04 Gerber Fmt 4.6, Leading zero omitted, Abs format (unit mm)*
G04 Created by KiCad (PCBNEW 9.0.4) date 2025-11-01 07:51:32*
%MOMM*%
%LPD*%
G01*
G04 APERTURE LIST*
%ADD10C,0.150000*%
%ADD11C,0.120000*%
G04 APERTURE END LIST*
D10*
X79666666Y-53004819D02*
X79333333Y-52528628D01*
X79095238Y-53004819D02*
X79095238Y-52004819D01*
X79095238Y-52004819D02*
X79476190Y-52004819D01*
X79476190Y-52004819D02*
X79571428Y-52052438D01*
X79571428Y-52052438D02*
X79619047Y-52100057D01*
X79619047Y-52100057D02*
X79666666Y-52195295D01*
X79666666Y-52195295D02*
X79666666Y-52338152D01*
X79666666Y-52338152D02*
X79619047Y-52433390D01*
X79619047Y-52433390D02*
X79571428Y-52481009D01*
X79571428Y-52481009D02*
X79476190Y-52528628D01*
X79476190Y-52528628D02*
X79095238Y-52528628D01*
X80095238Y-52481009D02*
X80428571Y-52481009D01*
X80571428Y-53004819D02*
X80095238Y-53004819D01*
X80095238Y-53004819D02*
X80095238Y-52004819D01*
X80095238Y-52004819D02*
X80571428Y-52004819D01*
X81333333Y-52481009D02*
X81000000Y-52481009D01*
X81000000Y-53004819D02*
X81000000Y-52004819D01*
X81000000Y-52004819D02*
X81476190Y-52004819D01*
X82000000Y-52004819D02*
X82000000Y-52242914D01*
X81761905Y-52147676D02*
X82000000Y-52242914D01*
X82000000Y-52242914D02*
X82238095Y-52147676D01*
X81857143Y-52433390D02*
X82000000Y-52242914D01*
X82000000Y-52242914D02*
X82142857Y-52433390D01*
X82761905Y-52004819D02*
X82761905Y-52242914D01*
X82523810Y-52147676D02*
X82761905Y-52242914D01*
X82761905Y-52242914D02*
X83000000Y-52147676D01*
X82619048Y-52433390D02*
X82761905Y-52242914D01*
X82761905Y-52242914D02*
X82904762Y-52433390D01*
X217546660Y-102284104D02*
X218022850Y-102284104D01*
X217451422Y-102569819D02*
X217784755Y-101569819D01*
X217784755Y-101569819D02*
X218118088Y-102569819D01*
X218975231Y-102569819D02*
X218403803Y-102569819D01*
X218689517Y-102569819D02*
X218689517Y-101569819D01*
X218689517Y-101569819D02*
X218594279Y-101712676D01*
X218594279Y-101712676D02*
X218499041Y-101807914D01*
X218499041Y-101807914D02*
X218403803Y-101855533D01*
X121666666Y-111004819D02*
X121333333Y-110528628D01*
X121095238Y-111004819D02*
X121095238Y-110004819D01*
X121095238Y-110004819D02*
X121476190Y-110004819D01*
X121476190Y-110004819D02*
X121571428Y-110052438D01*
X121571428Y-110052438D02*
X121619047Y-110100057D01*
X121619047Y-110100057D02*
X121666666Y-110195295D01*
X121666666Y-110195295D02*
X121666666Y-110338152D01*
X121666666Y-110338152D02*
X121619047Y-110433390D01*
X121619047Y-110433390D02*
X121571428Y-110481009D01*
X121571428Y-110481009D02*
X121476190Y-110528628D01*
X121476190Y-110528628D02*
X121095238Y-110528628D01*
X122095238Y-110481009D02*
X122428571Y-110481009D01*
X122571428Y-111004819D02*
X122095238Y-111004819D01*
X122095238Y-111004819D02*
X122095238Y-110004819D01*
X122095238Y-110004819D02*
X122571428Y-110004819D01*
X123333333Y-110481009D02*
X123000000Y-110481009D01*
X123000000Y-111004819D02*
X123000000Y-110004819D01*
X123000000Y-110004819D02*
X123476190Y-110004819D01*
X124000000Y-110004819D02*
X124000000Y-110242914D01*
X123761905Y-110147676D02*
X124000000Y-110242914D01*
X124000000Y-110242914D02*
X124238095Y-110147676D01*
X123857143Y-110433390D02*
X124000000Y-110242914D01*
X124000000Y-110242914D02*
X124142857Y-110433390D01*
X124761905Y-110004819D02*
X124761905Y-110242914D01*
X124523810Y-110147676D02*
X124761905Y-110242914D01*
X124761905Y-110242914D02*
X125000000Y-110147676D01*
X124619048Y-110433390D02*
X124761905Y-110242914D01*
X124761905Y-110242914D02*
X124904762Y-110433390D01*
X189666666Y-105004819D02*
X189333333Y-104528628D01*
X189095238Y-105004819D02*
X189095238Y-104004819D01*
X189095238Y-104004819D02*
X189476190Y-104004819D01*
X189476190Y-104004819D02*
X189571428Y-104052438D01*
X189571428Y-104052438D02*
X189619047Y-104100057D01*
X189619047Y-104100057D02*
X189666666Y-104195295D01*
X189666666Y-104195295D02*
X189666666Y-104338152D01*
X189666666Y-104338152D02*
X189619047Y-104433390D01*
X189619047Y-104433390D02*
X189571428Y-104481009D01*
X189571428Y-104481009D02*
X189476190Y-104528628D01*
X189476190Y-104528628D02*
X189095238Y-104528628D01*
X190095238Y-104481009D02*
X190428571Y-104481009D01*
X190571428Y-105004819D02*
X190095238Y-105004819D01*
X190095238Y-105004819D02*
X190095238Y-104004819D01*
X190095238Y-104004819D02*
X190571428Y-104004819D01*
X191333333Y-104481009D02*
X191000000Y-104481009D01*
X191000000Y-105004819D02*
X191000000Y-104004819D01*
X191000000Y-104004819D02*
X191476190Y-104004819D01*
X192000000Y-104004819D02*
X192000000Y-104242914D01*
X191761905Y-104147676D02*
X192000000Y-104242914D01*
X192000000Y-104242914D02*
X192238095Y-104147676D01*
X191857143Y-104433390D02*
X192000000Y-104242914D01*
X192000000Y-104242914D02*
X192142857Y-104433390D01*
X192761905Y-104004819D02*
X192761905Y-104242914D01*
X192523810Y-104147676D02*
X192761905Y-104242914D01*
X192761905Y-104242914D02*
X193000000Y-104147676D01*
X192619048Y-104433390D02*
X192761905Y-104242914D01*
X192761905Y-104242914D02*
X192904762Y-104433390D01*
X212666666Y-133004819D02*
X212333333Y-132528628D01*
X212095238Y-133004819D02*
X212095238Y-132004819D01*
X212095238Y-132004819D02*
X212476190Y-132004819D01*
X212476190Y-132004819D02*
X212571428Y-132052438D01*
X212571428Y-132052438D02*
X212619047Y-132100057D01*
X212619047Y-132100057D02*
X212666666Y-132195295D01*
X212666666Y-132195295D02*
X212666666Y-132338152D01*
X212666666Y-132338152D02*
X212619047Y-132433390D01*
X212619047Y-132433390D02*
X212571428Y-132481009D01*
X212571428Y-132481009D02*
X212476190Y-132528628D01*
X212476190Y-132528628D02*
X212095238Y-132528628D01*
X213095238Y-132481009D02*
X213428571Y-132481009D01*
X213571428Y-133004819D02*
X213095238Y-133004819D01*
X213095238Y-133004819D02*
X213095238Y-132004819D01*
X213095238Y-132004819D02*
X213571428Y-132004819D01*
X214333333Y-132481009D02*
X214000000Y-132481009D01*
X214000000Y-133004819D02*
X214000000Y-132004819D01*
X214000000Y-132004819D02*
X214476190Y-132004819D01*
X215000000Y-132004819D02*
X215000000Y-132242914D01*
X214761905Y-132147676D02*
X215000000Y-132242914D01*
X215000000Y-132242914D02*
X215238095Y-132147676D01*
X214857143Y-132433390D02*
X215000000Y-132242914D01*
X215000000Y-132242914D02*
X215142857Y-132433390D01*
X215761905Y-132004819D02*
X215761905Y-132242914D01*
X215523810Y-132147676D02*
X215761905Y-132242914D01*
X215761905Y-132242914D02*
X216000000Y-132147676D01*
X215619048Y-132433390D02*
X215761905Y-132242914D01*
X215761905Y-132242914D02*
X215904762Y-132433390D01*
%TO.C,SW20*%
X154438413Y-127342178D02*
X154938413Y-126476152D01*
X154438413Y-127342178D02*
X155304439Y-127842178D01*
X160938413Y-116083848D02*
X161438413Y-115217822D01*
X162304439Y-115717822D02*
X161438413Y-115217822D01*
X165696743Y-133842178D02*
X166562769Y-134342178D01*
X167062769Y-133476152D02*
X166562769Y-134342178D01*
X173562769Y-122217822D02*
X172696743Y-121717822D01*
X173562769Y-122217822D02*
X173062769Y-123083848D01*
%TO.C,SW21*%
X169377822Y-138157231D02*
X169877822Y-139023257D01*
X169377822Y-138157231D02*
X170243848Y-137657231D01*
X175877822Y-149415561D02*
X176377822Y-150281587D01*
X177243848Y-149781587D02*
X176377822Y-150281587D01*
X180636152Y-131657231D02*
X181502178Y-131157231D01*
X182002178Y-132023257D02*
X181502178Y-131157231D01*
X188502178Y-143281587D02*
X187636152Y-143781587D01*
X188502178Y-143281587D02*
X188002178Y-142415561D01*
%TO.C,SW3*%
X115320000Y-59320000D02*
X115320000Y-58320000D01*
X115320000Y-72320000D02*
X115320000Y-71320000D01*
X115320000Y-72320000D02*
X116320000Y-72320000D01*
X116320000Y-58320000D02*
X115320000Y-58320000D01*
X128320000Y-72320000D02*
X129320000Y-72320000D01*
X129320000Y-58320000D02*
X128320000Y-58320000D01*
X129320000Y-58320000D02*
X129320000Y-59320000D01*
X129320000Y-71320000D02*
X129320000Y-72320000D01*
%TO.C,SW6*%
X169320000Y-65320000D02*
X169320000Y-64320000D01*
X169320000Y-78320000D02*
X169320000Y-77320000D01*
X169320000Y-78320000D02*
X170320000Y-78320000D01*
X170320000Y-64320000D02*
X169320000Y-64320000D01*
X182320000Y-78320000D02*
X183320000Y-78320000D01*
X183320000Y-64320000D02*
X182320000Y-64320000D01*
X183320000Y-64320000D02*
X183320000Y-65320000D01*
X183320000Y-77320000D02*
X183320000Y-78320000D01*
%TO.C,SW16*%
X133480000Y-89320000D02*
X133480000Y-88320000D01*
X133480000Y-102320000D02*
X133480000Y-101320000D01*
X133480000Y-102320000D02*
X134480000Y-102320000D01*
X134480000Y-88320000D02*
X133480000Y-88320000D01*
X146480000Y-102320000D02*
X147480000Y-102320000D01*
X147480000Y-88320000D02*
X146480000Y-88320000D01*
X147480000Y-88320000D02*
X147480000Y-89320000D01*
X147480000Y-101320000D02*
X147480000Y-102320000D01*
%TO.C,SW7*%
X79320000Y-83320000D02*
X79320000Y-82320000D01*
X79320000Y-96320000D02*
X79320000Y-95320000D01*
X79320000Y-96320000D02*
X80320000Y-96320000D01*
X80320000Y-82320000D02*
X79320000Y-82320000D01*
X92320000Y-96320000D02*
X93320000Y-96320000D01*
X93320000Y-82320000D02*
X92320000Y-82320000D01*
X93320000Y-82320000D02*
X93320000Y-83320000D01*
X93320000Y-95320000D02*
X93320000Y-96320000D01*
%TO.C,SW10*%
X133320000Y-71320000D02*
X133320000Y-70320000D01*
X133320000Y-84320000D02*
X133320000Y-83320000D01*
X133320000Y-84320000D02*
X134320000Y-84320000D01*
X134320000Y-70320000D02*
X133320000Y-70320000D01*
X146320000Y-84320000D02*
X147320000Y-84320000D01*
X147320000Y-70320000D02*
X146320000Y-70320000D01*
X147320000Y-70320000D02*
X147320000Y-71320000D01*
X147320000Y-83320000D02*
X147320000Y-84320000D01*
%TO.C,SW1*%
X79320000Y-65320000D02*
X79320000Y-64320000D01*
X79320000Y-78320000D02*
X79320000Y-77320000D01*
X79320000Y-78320000D02*
X80320000Y-78320000D01*
X80320000Y-64320000D02*
X79320000Y-64320000D01*
X92320000Y-78320000D02*
X93320000Y-78320000D01*
X93320000Y-64320000D02*
X92320000Y-64320000D01*
X93320000Y-64320000D02*
X93320000Y-65320000D01*
X93320000Y-77320000D02*
X93320000Y-78320000D01*
%TO.C,SW9*%
X115320000Y-77320000D02*
X115320000Y-76320000D01*
X115320000Y-90320000D02*
X115320000Y-89320000D01*
X115320000Y-90320000D02*
X116320000Y-90320000D01*
X116320000Y-76320000D02*
X115320000Y-76320000D01*
X128320000Y-90320000D02*
X129320000Y-90320000D01*
X129320000Y-76320000D02*
X128320000Y-76320000D01*
X129320000Y-76320000D02*
X129320000Y-77320000D01*
X129320000Y-89320000D02*
X129320000Y-90320000D01*
%TO.C,SW5*%
X151320000Y-59320000D02*
X151320000Y-58320000D01*
X151320000Y-72320000D02*
X151320000Y-71320000D01*
X151320000Y-72320000D02*
X152320000Y-72320000D01*
X152320000Y-58320000D02*
X151320000Y-58320000D01*
X164320000Y-72320000D02*
X165320000Y-72320000D01*
X165320000Y-58320000D02*
X164320000Y-58320000D01*
X165320000Y-58320000D02*
X165320000Y-59320000D01*
X165320000Y-71320000D02*
X165320000Y-72320000D01*
%TO.C,SW13*%
X79400000Y-101320000D02*
X79400000Y-100320000D01*
X79400000Y-114320000D02*
X79400000Y-113320000D01*
X79400000Y-114320000D02*
X80400000Y-114320000D01*
X80400000Y-100320000D02*
X79400000Y-100320000D01*
X92400000Y-114320000D02*
X93400000Y-114320000D01*
X93400000Y-100320000D02*
X92400000Y-100320000D01*
X93400000Y-100320000D02*
X93400000Y-101320000D01*
X93400000Y-113320000D02*
X93400000Y-114320000D01*
%TO.C,SW15*%
X115480000Y-95320000D02*
X115480000Y-94320000D01*
X115480000Y-108320000D02*
X115480000Y-107320000D01*
X115480000Y-108320000D02*
X116480000Y-108320000D01*
X116480000Y-94320000D02*
X115480000Y-94320000D01*
X128480000Y-108320000D02*
X129480000Y-108320000D01*
X129480000Y-94320000D02*
X128480000Y-94320000D01*
X129480000Y-94320000D02*
X129480000Y-95320000D01*
X129480000Y-107320000D02*
X129480000Y-108320000D01*
D11*
%TO.C,A1*%
X194580000Y-54020000D02*
X194580000Y-52420000D01*
X194900000Y-52350000D02*
X194900000Y-102350000D01*
X195240000Y-51803000D02*
X195240000Y-102897000D01*
X195510000Y-51740000D02*
X198000000Y-51740000D01*
X195510000Y-102960000D02*
X199347939Y-102960000D01*
X198000000Y-51740000D02*
X198000000Y-52653520D01*
X198000000Y-51740000D02*
X199347940Y-51740000D01*
X198000000Y-55046480D02*
X198000000Y-99653520D01*
X198000000Y-102046480D02*
X198000000Y-102960000D01*
X200272061Y-51740000D02*
X201275000Y-51740000D01*
X201275000Y-51740000D02*
X209745000Y-51740000D01*
X201400000Y-50440000D02*
X201400000Y-51260000D01*
X201400000Y-50440000D02*
X209620000Y-50440000D01*
X201400000Y-51260000D02*
X201610000Y-51260000D01*
X201610000Y-51260000D02*
X201610000Y-52656000D01*
X201610000Y-55044000D02*
X201610000Y-56260000D01*
X201910000Y-102960000D02*
X200272061Y-102960000D01*
X209110000Y-102960000D02*
X201910000Y-102960000D01*
X209410000Y-51260000D02*
X209410000Y-52656000D01*
X209410000Y-55044000D02*
X209410000Y-56260000D01*
X209410000Y-56260000D02*
X201610000Y-56260000D01*
X209620000Y-50440000D02*
X209620000Y-51260000D01*
X209620000Y-51260000D02*
X209410000Y-51260000D01*
X209745000Y-51740000D02*
X210747939Y-51740000D01*
X210747939Y-102960000D02*
X209110000Y-102960000D01*
X211672061Y-51740000D02*
X213020000Y-51740000D01*
X211672061Y-102960000D02*
X215510000Y-102960000D01*
X213020000Y-51740000D02*
X213020000Y-52653520D01*
X213020000Y-55046480D02*
X213020000Y-99653520D01*
X213020000Y-102046480D02*
X213020000Y-102960000D01*
X215510000Y-51740000D02*
X213020000Y-51740000D01*
X215780000Y-102897000D02*
X215780000Y-51803000D01*
X216120000Y-52350000D02*
X216120000Y-102350000D01*
X194900000Y-52350000D02*
G75*
G02*
X195510000Y-51740000I610000J0D01*
G01*
X195510000Y-102960000D02*
G75*
G02*
X194900000Y-102350000I-99J609901D01*
G01*
X215510000Y-51740000D02*
G75*
G02*
X216120000Y-52350000I0J-610000D01*
G01*
X216120000Y-102350000D02*
G75*
G02*
X215510000Y-102960000I-610000J0D01*
G01*
D10*
%TO.C,SW2*%
X97320000Y-65320000D02*
X97320000Y-64320000D01*
X97320000Y-78320000D02*
X97320000Y-77320000D01*
X97320000Y-78320000D02*
X98320000Y-78320000D01*
X98320000Y-64320000D02*
X97320000Y-64320000D01*
X110320000Y-78320000D02*
X111320000Y-78320000D01*
X111320000Y-64320000D02*
X110320000Y-64320000D01*
X111320000Y-64320000D02*
X111320000Y-65320000D01*
X111320000Y-77320000D02*
X111320000Y-78320000D01*
%TO.C,SW19*%
X136320000Y-113320000D02*
X136320000Y-112320000D01*
X136320000Y-126320000D02*
X136320000Y-125320000D01*
X136320000Y-126320000D02*
X137320000Y-126320000D01*
X137320000Y-112320000D02*
X136320000Y-112320000D01*
X149320000Y-126320000D02*
X150320000Y-126320000D01*
X150320000Y-112320000D02*
X149320000Y-112320000D01*
X150320000Y-112320000D02*
X150320000Y-113320000D01*
X150320000Y-125320000D02*
X150320000Y-126320000D01*
%TO.C,SW4*%
X133400000Y-53320000D02*
X133400000Y-52320000D01*
X133400000Y-66320000D02*
X133400000Y-65320000D01*
X133400000Y-66320000D02*
X134400000Y-66320000D01*
X134400000Y-52320000D02*
X133400000Y-52320000D01*
X146400000Y-66320000D02*
X147400000Y-66320000D01*
X147400000Y-52320000D02*
X146400000Y-52320000D01*
X147400000Y-52320000D02*
X147400000Y-53320000D01*
X147400000Y-65320000D02*
X147400000Y-66320000D01*
%TO.C,SW8*%
X97320000Y-83320000D02*
X97320000Y-82320000D01*
X97320000Y-96320000D02*
X97320000Y-95320000D01*
X97320000Y-96320000D02*
X98320000Y-96320000D01*
X98320000Y-82320000D02*
X97320000Y-82320000D01*
X110320000Y-96320000D02*
X111320000Y-96320000D01*
X111320000Y-82320000D02*
X110320000Y-82320000D01*
X111320000Y-82320000D02*
X111320000Y-83320000D01*
X111320000Y-95320000D02*
X111320000Y-96320000D01*
%TO.C,SW17*%
X151400000Y-95320000D02*
X151400000Y-94320000D01*
X151400000Y-108320000D02*
X151400000Y-107320000D01*
X151400000Y-108320000D02*
X152400000Y-108320000D01*
X152400000Y-94320000D02*
X151400000Y-94320000D01*
X164400000Y-108320000D02*
X165400000Y-108320000D01*
X165400000Y-94320000D02*
X164400000Y-94320000D01*
X165400000Y-94320000D02*
X165400000Y-95320000D01*
X165400000Y-107320000D02*
X165400000Y-108320000D01*
%TO.C,SW18*%
X169320000Y-101320000D02*
X169320000Y-100320000D01*
X169320000Y-114320000D02*
X169320000Y-113320000D01*
X169320000Y-114320000D02*
X170320000Y-114320000D01*
X170320000Y-100320000D02*
X169320000Y-100320000D01*
X182320000Y-114320000D02*
X183320000Y-114320000D01*
X183320000Y-100320000D02*
X182320000Y-100320000D01*
X183320000Y-100320000D02*
X183320000Y-101320000D01*
X183320000Y-113320000D02*
X183320000Y-114320000D01*
%TO.C,SW12*%
X169480000Y-83320000D02*
X169480000Y-82320000D01*
X169480000Y-96320000D02*
X169480000Y-95320000D01*
X169480000Y-96320000D02*
X170480000Y-96320000D01*
X170480000Y-82320000D02*
X169480000Y-82320000D01*
X182480000Y-96320000D02*
X183480000Y-96320000D01*
X183480000Y-82320000D02*
X182480000Y-82320000D01*
X183480000Y-82320000D02*
X183480000Y-83320000D01*
X183480000Y-95320000D02*
X183480000Y-96320000D01*
%TO.C,SW11*%
X151320000Y-77320000D02*
X151320000Y-76320000D01*
X151320000Y-90320000D02*
X151320000Y-89320000D01*
X151320000Y-90320000D02*
X152320000Y-90320000D01*
X152320000Y-76320000D02*
X151320000Y-76320000D01*
X164320000Y-90320000D02*
X165320000Y-90320000D01*
X165320000Y-76320000D02*
X164320000Y-76320000D01*
X165320000Y-76320000D02*
X165320000Y-77320000D01*
X165320000Y-89320000D02*
X165320000Y-90320000D01*
%TO.C,SW14*%
X97320000Y-101320000D02*
X97320000Y-100320000D01*
X97320000Y-114320000D02*
X97320000Y-113320000D01*
X97320000Y-114320000D02*
X98320000Y-114320000D01*
X98320000Y-100320000D02*
X97320000Y-100320000D01*
X110320000Y-114320000D02*
X111320000Y-114320000D01*
X111320000Y-100320000D02*
X110320000Y-100320000D01*
X111320000Y-100320000D02*
X111320000Y-101320000D01*
X111320000Y-113320000D02*
X111320000Y-114320000D01*
%TD*%
M02*
