M48
; DRILL file {KiCad 9.0.4} date 2025-11-01T07:52:52+0100
; FORMAT={-:-/ absolute / metric / decimal}
; #@! TF.CreationDate,2025-11-01T07:52:52+01:00
; #@! TF.GenerationSoftware,Kicad,Pcbnew,9.0.4
; #@! TF.FileFunction,Plated,1,2,PTH
FMAT,2
METRIC
; #@! TA.AperFunction,Plated,PTH,ViaDrill
T1C0.300
; #@! TA.AperFunction,Plated,PTH,ComponentDrill
T2C1.000
; #@! TA.AperFunction,Plated,PTH,ComponentDrill
T3C2.500
%
G90
G05
T1
X148.4Y-72.1
X164.3Y-88.9
X184.5Y-64.8
X195.0Y-87.4
X195.2Y-63.7
X195.8Y-54.6
T2
X196.62Y-53.22
X196.62Y-55.76
X196.62Y-58.3
X196.62Y-60.84
X196.62Y-63.38
X196.62Y-65.92
X196.62Y-68.46
X196.62Y-71.0
X196.62Y-73.54
X196.62Y-76.08
X196.62Y-78.62
X196.62Y-81.16
X196.62Y-83.7
X196.62Y-86.24
X196.62Y-88.78
X196.62Y-91.32
X196.62Y-93.86
X196.62Y-96.4
X196.62Y-98.94
X196.62Y-101.48
X214.4Y-53.22
X214.4Y-55.76
X214.4Y-58.3
X214.4Y-60.84
X214.4Y-63.38
X214.4Y-65.92
X214.4Y-68.46
X214.4Y-71.0
X214.4Y-73.54
X214.4Y-76.08
X214.4Y-78.62
X214.4Y-81.16
X214.4Y-83.7
X214.4Y-86.24
X214.4Y-88.78
X214.4Y-91.32
X214.4Y-93.86
X214.4Y-96.4
X214.4Y-98.94
X214.4Y-101.48
T3
X81.0Y-56.0
X123.0Y-114.0
X191.0Y-108.0
X214.0Y-136.0
M30
