M48
; DRILL file {KiCad 9.0.4} date 2025-11-01T07:52:52+0100
; FORMAT={-:-/ absolute / metric / decimal}
; #@! TF.CreationDate,2025-11-01T07:52:52+01:00
; #@! TF.GenerationSoftware,Kicad,Pcbnew,9.0.4
; #@! TF.FileFunction,NonPlated,1,2,NPTH
FMAT,2
METRIC
; #@! TA.AperFunction,NonPlated,NPTH,ComponentDrill
T1C1.702
; #@! TA.AperFunction,NonPlated,NPTH,ComponentDrill
T2C3.000
; #@! TA.AperFunction,NonPlated,NPTH,ComponentDrill
T3C3.988
%
G90
G05
T1
X81.24Y-71.32
X81.24Y-89.32
X81.32Y-107.32
X91.4Y-71.32
X91.4Y-89.32
X91.48Y-107.32
X99.24Y-71.32
X99.24Y-89.32
X99.24Y-107.32
X109.4Y-71.32
X109.4Y-89.32
X109.4Y-107.32
X117.24Y-65.32
X117.24Y-83.32
X117.4Y-101.32
X127.4Y-65.32
X127.4Y-83.32
X127.56Y-101.32
X135.24Y-77.32
X135.32Y-59.32
X135.4Y-95.32
X138.24Y-119.32
X145.4Y-77.32
X145.48Y-59.32
X145.56Y-95.32
X148.4Y-119.32
X153.24Y-65.32
X153.24Y-83.32
X153.32Y-101.32
X159.601Y-122.24
X163.4Y-65.32
X163.4Y-83.32
X163.48Y-101.32
X168.4Y-127.32
X171.24Y-71.32
X171.24Y-107.32
X171.4Y-89.32
X176.4Y-136.32
X181.4Y-71.32
X181.4Y-107.32
X181.48Y-145.119
X181.56Y-89.32
T2
X82.51Y-68.78
X82.51Y-86.78
X82.59Y-104.78
X88.86Y-66.24
X88.86Y-84.24
X88.94Y-102.24
X100.51Y-68.78
X100.51Y-86.78
X100.51Y-104.78
X106.86Y-66.24
X106.86Y-84.24
X106.86Y-102.24
X118.51Y-62.78
X118.51Y-80.78
X118.67Y-98.78
X124.86Y-60.24
X124.86Y-78.24
X125.02Y-96.24
X136.51Y-74.78
X136.59Y-56.78
X136.67Y-92.78
X139.51Y-116.78
X142.86Y-72.24
X142.94Y-54.24
X143.02Y-90.24
X145.86Y-114.24
X154.51Y-62.78
X154.51Y-80.78
X154.59Y-98.78
X160.86Y-60.24
X160.86Y-78.24
X160.94Y-96.24
X161.971Y-120.675
X168.74Y-121.651
X172.51Y-68.78
X172.51Y-104.78
X172.67Y-86.78
X178.86Y-66.24
X178.86Y-102.24
X179.02Y-84.24
X179.235Y-136.15
X184.609Y-140.379
T3
X86.32Y-71.32
X86.32Y-89.32
X86.4Y-107.32
X104.32Y-71.32
X104.32Y-89.32
X104.32Y-107.32
X122.32Y-65.32
X122.32Y-83.32
X122.48Y-101.32
X140.32Y-77.32
X140.4Y-59.32
X140.48Y-95.32
X143.32Y-119.32
X158.32Y-65.32
X158.32Y-83.32
X158.4Y-101.32
X164.001Y-124.78
X176.32Y-71.32
X176.32Y-107.32
X176.48Y-89.32
X178.94Y-140.719
M30
